G04 #@! TF.FileFunction,Copper,L2,Bot,Signal*
%FSLAX46Y46*%
G04 Gerber Fmt 4.6, Leading zero omitted, Abs format (unit mm)*
G04 Created by KiCad (PCBNEW 4.0.7-e0-6372~58~ubuntu16.04.1) date Wed Jul 19 19:33:52 2017*
%MOMM*%
%LPD*%
G01*
G04 APERTURE LIST*
%ADD10C,0.100000*%
%ADD11R,1.727200X1.727200*%
%ADD12O,1.727200X1.727200*%
%ADD13C,4.500000*%
%ADD14C,2.500000*%
%ADD15O,1.998980X1.998980*%
%ADD16R,1.998980X1.998980*%
%ADD17R,2.032000X2.032000*%
%ADD18O,2.032000X2.032000*%
%ADD19O,2.300000X1.600000*%
%ADD20C,0.600000*%
%ADD21C,0.250000*%
%ADD22C,0.254000*%
G04 APERTURE END LIST*
D10*
D11*
X20870000Y-29270000D03*
D12*
X20870000Y-26730000D03*
X23410000Y-29270000D03*
X23410000Y-26730000D03*
X25950000Y-29270000D03*
X25950000Y-26730000D03*
X28490000Y-29270000D03*
X28490000Y-26730000D03*
X31030000Y-29270000D03*
X31030000Y-26730000D03*
X33570000Y-29270000D03*
X33570000Y-26730000D03*
X36110000Y-29270000D03*
X36110000Y-26730000D03*
X38650000Y-29270000D03*
X38650000Y-26730000D03*
X41190000Y-29270000D03*
X41190000Y-26730000D03*
X43730000Y-29270000D03*
X43730000Y-26730000D03*
X46270000Y-29270000D03*
X46270000Y-26730000D03*
X48810000Y-29270000D03*
X48810000Y-26730000D03*
X51350000Y-29270000D03*
X51350000Y-26730000D03*
X53890000Y-29270000D03*
X53890000Y-26730000D03*
X56430000Y-29270000D03*
X56430000Y-26730000D03*
X58970000Y-29270000D03*
X58970000Y-26730000D03*
X61510000Y-29270000D03*
X61510000Y-26730000D03*
X64050000Y-29270000D03*
X64050000Y-26730000D03*
X66590000Y-29270000D03*
X66590000Y-26730000D03*
X69130000Y-29270000D03*
X69130000Y-26730000D03*
D13*
X21700140Y-36750000D03*
X15700660Y-36750000D03*
X18700400Y-41449000D03*
D14*
X25440000Y-47625000D03*
X30440000Y-47625000D03*
D15*
X72000000Y-42810000D03*
D16*
X72000000Y-35190000D03*
D15*
X72000000Y-37730000D03*
X72000000Y-40270000D03*
D17*
X45720000Y-35560000D03*
D18*
X45720000Y-38100000D03*
D17*
X40640000Y-35560000D03*
D18*
X40640000Y-38100000D03*
D17*
X43180000Y-35560000D03*
D18*
X43180000Y-38100000D03*
D19*
X55880000Y-35560000D03*
X55880000Y-38100000D03*
X55880000Y-40640000D03*
X55880000Y-43180000D03*
X55880000Y-45720000D03*
X55880000Y-48260000D03*
X55880000Y-50800000D03*
X63500000Y-50800000D03*
X63500000Y-48260000D03*
X63500000Y-45720000D03*
X63500000Y-43180000D03*
X63500000Y-40640000D03*
X63500000Y-38100000D03*
X63500000Y-35560000D03*
D20*
X54102000Y-50292000D03*
X54610000Y-44450000D03*
X61468000Y-43942000D03*
X61468000Y-38354000D03*
X54610000Y-33274000D03*
X44450000Y-33274000D03*
X37338000Y-28321000D03*
X38735000Y-33274000D03*
D21*
X21700140Y-36750000D02*
X21700140Y-38885140D01*
X21700140Y-38885140D02*
X30440000Y-47625000D01*
X21700140Y-36750000D02*
X24718000Y-36750000D01*
X69068000Y-32258000D02*
X72000000Y-35190000D01*
X29210000Y-32258000D02*
X69068000Y-32258000D01*
X24718000Y-36750000D02*
X29210000Y-32258000D01*
X21700140Y-36750000D02*
X24050000Y-36750000D01*
X54102000Y-44958000D02*
X54102000Y-50292000D01*
X54610000Y-44450000D02*
X54102000Y-44958000D01*
X61468000Y-38354000D02*
X61468000Y-43942000D01*
X44450000Y-33274000D02*
X54610000Y-33274000D01*
X43180000Y-35560000D02*
X43180000Y-34036000D01*
X34780000Y-27940000D02*
X33570000Y-26730000D01*
X36957000Y-27940000D02*
X34780000Y-27940000D01*
X37338000Y-28321000D02*
X36957000Y-27940000D01*
X42418000Y-33274000D02*
X38735000Y-33274000D01*
X43180000Y-34036000D02*
X42418000Y-33274000D01*
D22*
G36*
X72935197Y-31839803D02*
X72977211Y-31867666D01*
X73025000Y-31877000D01*
X76708000Y-31877000D01*
X76708000Y-47498000D01*
X72390000Y-47498000D01*
X72340590Y-47508006D01*
X72288400Y-47548800D01*
X70383400Y-50088800D01*
X70361759Y-50134332D01*
X70358000Y-50165000D01*
X70358000Y-53815000D01*
X19812000Y-53815000D01*
X19812000Y-50477167D01*
X53166838Y-50477167D01*
X53308883Y-50820943D01*
X53571673Y-51084192D01*
X53915201Y-51226838D01*
X54144973Y-51227038D01*
X54169263Y-51349151D01*
X54480332Y-51814698D01*
X54945879Y-52125767D01*
X55495030Y-52235000D01*
X56264970Y-52235000D01*
X56814121Y-52125767D01*
X57279668Y-51814698D01*
X57590737Y-51349151D01*
X57699970Y-50800000D01*
X57590737Y-50250849D01*
X57279668Y-49785302D01*
X56897582Y-49530000D01*
X57279668Y-49274698D01*
X57590737Y-48809151D01*
X57699970Y-48260000D01*
X57590737Y-47710849D01*
X57279668Y-47245302D01*
X56897582Y-46990000D01*
X57279668Y-46734698D01*
X57590737Y-46269151D01*
X57699970Y-45720000D01*
X57590737Y-45170849D01*
X57279668Y-44705302D01*
X56897582Y-44450000D01*
X57279668Y-44194698D01*
X57590737Y-43729151D01*
X57699970Y-43180000D01*
X57590737Y-42630849D01*
X57279668Y-42165302D01*
X56897582Y-41910000D01*
X57279668Y-41654698D01*
X57590737Y-41189151D01*
X57699970Y-40640000D01*
X57590737Y-40090849D01*
X57279668Y-39625302D01*
X56897582Y-39370000D01*
X57279668Y-39114698D01*
X57590737Y-38649151D01*
X57612614Y-38539167D01*
X60532838Y-38539167D01*
X60674883Y-38882943D01*
X60708000Y-38916118D01*
X60708000Y-43379537D01*
X60675808Y-43411673D01*
X60533162Y-43755201D01*
X60532838Y-44127167D01*
X60674883Y-44470943D01*
X60937673Y-44734192D01*
X61281201Y-44876838D01*
X61653167Y-44877162D01*
X61996943Y-44735117D01*
X62260192Y-44472327D01*
X62315715Y-44338613D01*
X62482418Y-44450000D01*
X62100332Y-44705302D01*
X61789263Y-45170849D01*
X61680030Y-45720000D01*
X61789263Y-46269151D01*
X62100332Y-46734698D01*
X62482418Y-46990000D01*
X62100332Y-47245302D01*
X61789263Y-47710849D01*
X61680030Y-48260000D01*
X61789263Y-48809151D01*
X62100332Y-49274698D01*
X62482418Y-49530000D01*
X62100332Y-49785302D01*
X61789263Y-50250849D01*
X61680030Y-50800000D01*
X61789263Y-51349151D01*
X62100332Y-51814698D01*
X62565879Y-52125767D01*
X63115030Y-52235000D01*
X63884970Y-52235000D01*
X64434121Y-52125767D01*
X64899668Y-51814698D01*
X65210737Y-51349151D01*
X65319970Y-50800000D01*
X65210737Y-50250849D01*
X64899668Y-49785302D01*
X64517582Y-49530000D01*
X64899668Y-49274698D01*
X65210737Y-48809151D01*
X65319970Y-48260000D01*
X65210737Y-47710849D01*
X64899668Y-47245302D01*
X64517582Y-46990000D01*
X64899668Y-46734698D01*
X65210737Y-46269151D01*
X65319970Y-45720000D01*
X65210737Y-45170849D01*
X64899668Y-44705302D01*
X64517582Y-44450000D01*
X64899668Y-44194698D01*
X65210737Y-43729151D01*
X65319970Y-43180000D01*
X65210737Y-42630849D01*
X64899668Y-42165302D01*
X64517582Y-41910000D01*
X64899668Y-41654698D01*
X65210737Y-41189151D01*
X65319970Y-40640000D01*
X65210737Y-40090849D01*
X64899668Y-39625302D01*
X64517582Y-39370000D01*
X64899668Y-39114698D01*
X65210737Y-38649151D01*
X65319970Y-38100000D01*
X65210737Y-37550849D01*
X64899668Y-37085302D01*
X64517582Y-36830000D01*
X64899668Y-36574698D01*
X65210737Y-36109151D01*
X65319970Y-35560000D01*
X65303212Y-35475750D01*
X70365510Y-35475750D01*
X70365510Y-36315799D01*
X70462183Y-36549188D01*
X70640811Y-36727817D01*
X70703013Y-36753582D01*
X70489928Y-37072486D01*
X70365510Y-37697978D01*
X70365510Y-37762022D01*
X70489928Y-38387514D01*
X70844241Y-38917781D01*
X70967290Y-39000000D01*
X70844241Y-39082219D01*
X70489928Y-39612486D01*
X70365510Y-40237978D01*
X70365510Y-40302022D01*
X70489928Y-40927514D01*
X70844241Y-41457781D01*
X70967290Y-41540000D01*
X70844241Y-41622219D01*
X70489928Y-42152486D01*
X70365510Y-42777978D01*
X70365510Y-42842022D01*
X70489928Y-43467514D01*
X70844241Y-43997781D01*
X71374508Y-44352094D01*
X72000000Y-44476512D01*
X72625492Y-44352094D01*
X73155759Y-43997781D01*
X73510072Y-43467514D01*
X73634490Y-42842022D01*
X73634490Y-42777978D01*
X73510072Y-42152486D01*
X73155759Y-41622219D01*
X73032710Y-41540000D01*
X73155759Y-41457781D01*
X73510072Y-40927514D01*
X73634490Y-40302022D01*
X73634490Y-40237978D01*
X73510072Y-39612486D01*
X73155759Y-39082219D01*
X73032710Y-39000000D01*
X73155759Y-38917781D01*
X73510072Y-38387514D01*
X73634490Y-37762022D01*
X73634490Y-37697978D01*
X73510072Y-37072486D01*
X73296987Y-36753582D01*
X73359189Y-36727817D01*
X73537817Y-36549188D01*
X73634490Y-36315799D01*
X73634490Y-35475750D01*
X73475740Y-35317000D01*
X72127000Y-35317000D01*
X72127000Y-35337000D01*
X71873000Y-35337000D01*
X71873000Y-35317000D01*
X70524260Y-35317000D01*
X70365510Y-35475750D01*
X65303212Y-35475750D01*
X65210737Y-35010849D01*
X64899668Y-34545302D01*
X64434121Y-34234233D01*
X63884970Y-34125000D01*
X63115030Y-34125000D01*
X62565879Y-34234233D01*
X62100332Y-34545302D01*
X61789263Y-35010849D01*
X61680030Y-35560000D01*
X61789263Y-36109151D01*
X62100332Y-36574698D01*
X62482418Y-36830000D01*
X62100332Y-37085302D01*
X61828938Y-37491471D01*
X61654799Y-37419162D01*
X61282833Y-37418838D01*
X60939057Y-37560883D01*
X60675808Y-37823673D01*
X60533162Y-38167201D01*
X60532838Y-38539167D01*
X57612614Y-38539167D01*
X57699970Y-38100000D01*
X57590737Y-37550849D01*
X57279668Y-37085302D01*
X56897582Y-36830000D01*
X57279668Y-36574698D01*
X57590737Y-36109151D01*
X57699970Y-35560000D01*
X57590737Y-35010849D01*
X57279668Y-34545302D01*
X56814121Y-34234233D01*
X56264970Y-34125000D01*
X55495030Y-34125000D01*
X54945879Y-34234233D01*
X54480332Y-34545302D01*
X54169263Y-35010849D01*
X54060030Y-35560000D01*
X54169263Y-36109151D01*
X54480332Y-36574698D01*
X54862418Y-36830000D01*
X54480332Y-37085302D01*
X54169263Y-37550849D01*
X54060030Y-38100000D01*
X54169263Y-38649151D01*
X54480332Y-39114698D01*
X54862418Y-39370000D01*
X54480332Y-39625302D01*
X54169263Y-40090849D01*
X54060030Y-40640000D01*
X54169263Y-41189151D01*
X54480332Y-41654698D01*
X54862418Y-41910000D01*
X54480332Y-42165302D01*
X54169263Y-42630849D01*
X54060030Y-43180000D01*
X54149281Y-43628694D01*
X54081057Y-43656883D01*
X53817808Y-43919673D01*
X53675162Y-44263201D01*
X53675121Y-44310077D01*
X53564599Y-44420599D01*
X53399852Y-44667161D01*
X53342000Y-44958000D01*
X53342000Y-49729537D01*
X53309808Y-49761673D01*
X53167162Y-50105201D01*
X53166838Y-50477167D01*
X19812000Y-50477167D01*
X19812000Y-47998305D01*
X23554674Y-47998305D01*
X23841043Y-48691372D01*
X24370839Y-49222093D01*
X25063405Y-49509672D01*
X25813305Y-49510326D01*
X26506372Y-49223957D01*
X26772472Y-48958320D01*
X29286285Y-48958320D01*
X29415533Y-49251123D01*
X30115806Y-49519388D01*
X30865435Y-49499250D01*
X31464467Y-49251123D01*
X31593715Y-48958320D01*
X30440000Y-47804605D01*
X29286285Y-48958320D01*
X26772472Y-48958320D01*
X27037093Y-48694161D01*
X27324672Y-48001595D01*
X27325283Y-47300806D01*
X28545612Y-47300806D01*
X28565750Y-48050435D01*
X28813877Y-48649467D01*
X29106680Y-48778715D01*
X30260395Y-47625000D01*
X30619605Y-47625000D01*
X31773320Y-48778715D01*
X32066123Y-48649467D01*
X32334388Y-47949194D01*
X32314250Y-47199565D01*
X32066123Y-46600533D01*
X31773320Y-46471285D01*
X30619605Y-47625000D01*
X30260395Y-47625000D01*
X29106680Y-46471285D01*
X28813877Y-46600533D01*
X28545612Y-47300806D01*
X27325283Y-47300806D01*
X27325326Y-47251695D01*
X27038957Y-46558628D01*
X26772475Y-46291680D01*
X29286285Y-46291680D01*
X30440000Y-47445395D01*
X31593715Y-46291680D01*
X31464467Y-45998877D01*
X30764194Y-45730612D01*
X30014565Y-45750750D01*
X29415533Y-45998877D01*
X29286285Y-46291680D01*
X26772475Y-46291680D01*
X26509161Y-46027907D01*
X25816595Y-45740328D01*
X25066695Y-45739674D01*
X24373628Y-46026043D01*
X23842907Y-46555839D01*
X23555328Y-47248405D01*
X23554674Y-47998305D01*
X19812000Y-47998305D01*
X19812000Y-46990000D01*
X19801994Y-46940590D01*
X19773553Y-46898965D01*
X19731159Y-46871685D01*
X19685000Y-46863000D01*
X13462000Y-46863000D01*
X13462000Y-38591000D01*
X14064305Y-39194357D01*
X15124280Y-39634498D01*
X16272004Y-39635499D01*
X16547550Y-39521646D01*
X16256043Y-39812645D01*
X15815902Y-40872620D01*
X15814901Y-42020344D01*
X16253190Y-43081086D01*
X17064045Y-43893357D01*
X18124020Y-44333498D01*
X19271744Y-44334499D01*
X20332486Y-43896210D01*
X21144757Y-43085355D01*
X21584898Y-42025380D01*
X21585899Y-40877656D01*
X21147610Y-39816914D01*
X20851078Y-39519864D01*
X21137586Y-39637227D01*
X22285302Y-39632730D01*
X23324765Y-39202169D01*
X23576002Y-38805467D01*
X21700140Y-36929605D01*
X21685998Y-36943748D01*
X21506393Y-36764143D01*
X21520535Y-36750000D01*
X21879745Y-36750000D01*
X23755607Y-38625862D01*
X24152309Y-38374625D01*
X24587367Y-37312554D01*
X24582870Y-36164838D01*
X24152309Y-35125375D01*
X23755607Y-34874138D01*
X21879745Y-36750000D01*
X21520535Y-36750000D01*
X19644673Y-34874138D01*
X19247971Y-35125375D01*
X18812913Y-36187446D01*
X18817410Y-37335162D01*
X19247971Y-38374625D01*
X19644671Y-38625861D01*
X19580086Y-38690446D01*
X19276780Y-38564502D01*
X18129056Y-38563501D01*
X17853510Y-38677354D01*
X18145017Y-38386355D01*
X18585158Y-37326380D01*
X18586159Y-36178656D01*
X18147870Y-35117914D01*
X17725228Y-34694533D01*
X19824278Y-34694533D01*
X21700140Y-36570395D01*
X23576002Y-34694533D01*
X23324765Y-34297831D01*
X22262694Y-33862773D01*
X21114978Y-33867270D01*
X20075515Y-34297831D01*
X19824278Y-34694533D01*
X17725228Y-34694533D01*
X17337015Y-34305643D01*
X16277040Y-33865502D01*
X15129316Y-33864501D01*
X14068574Y-34302790D01*
X13462000Y-34908307D01*
X13462000Y-33459167D01*
X37799838Y-33459167D01*
X37941883Y-33802943D01*
X38204673Y-34066192D01*
X38548201Y-34208838D01*
X38920167Y-34209162D01*
X39148790Y-34114697D01*
X39027569Y-34292110D01*
X38976560Y-34544000D01*
X38976560Y-36576000D01*
X39020838Y-36811317D01*
X39159910Y-37027441D01*
X39316206Y-37134233D01*
X39114675Y-37435845D01*
X38989000Y-38067655D01*
X38989000Y-38132345D01*
X39114675Y-38764155D01*
X39472567Y-39299778D01*
X40008190Y-39657670D01*
X40640000Y-39783345D01*
X41271810Y-39657670D01*
X41807433Y-39299778D01*
X41910000Y-39146276D01*
X42012567Y-39299778D01*
X42548190Y-39657670D01*
X43180000Y-39783345D01*
X43811810Y-39657670D01*
X44347433Y-39299778D01*
X44450000Y-39146276D01*
X44552567Y-39299778D01*
X45088190Y-39657670D01*
X45720000Y-39783345D01*
X46351810Y-39657670D01*
X46887433Y-39299778D01*
X47245325Y-38764155D01*
X47371000Y-38132345D01*
X47371000Y-38067655D01*
X47245325Y-37435845D01*
X47042996Y-37133038D01*
X47187441Y-37040090D01*
X47332431Y-36827890D01*
X47383440Y-36576000D01*
X47383440Y-34544000D01*
X47339162Y-34308683D01*
X47200090Y-34092559D01*
X47114386Y-34034000D01*
X54047537Y-34034000D01*
X54079673Y-34066192D01*
X54423201Y-34208838D01*
X54795167Y-34209162D01*
X55138943Y-34067117D01*
X55141864Y-34064201D01*
X70365510Y-34064201D01*
X70365510Y-34904250D01*
X70524260Y-35063000D01*
X71873000Y-35063000D01*
X71873000Y-33714260D01*
X72127000Y-33714260D01*
X72127000Y-35063000D01*
X73475740Y-35063000D01*
X73634490Y-34904250D01*
X73634490Y-34064201D01*
X73537817Y-33830812D01*
X73359189Y-33652183D01*
X73125800Y-33555510D01*
X72285750Y-33555510D01*
X72127000Y-33714260D01*
X71873000Y-33714260D01*
X71714250Y-33555510D01*
X70874200Y-33555510D01*
X70640811Y-33652183D01*
X70462183Y-33830812D01*
X70365510Y-34064201D01*
X55141864Y-34064201D01*
X55402192Y-33804327D01*
X55544838Y-33460799D01*
X55545162Y-33088833D01*
X55403117Y-32745057D01*
X55140327Y-32481808D01*
X54796799Y-32339162D01*
X54424833Y-32338838D01*
X54081057Y-32480883D01*
X54047882Y-32514000D01*
X45012463Y-32514000D01*
X44980327Y-32481808D01*
X44636799Y-32339162D01*
X44264833Y-32338838D01*
X43921057Y-32480883D01*
X43657808Y-32743673D01*
X43515162Y-33087201D01*
X43514980Y-33296178D01*
X42955401Y-32736599D01*
X42708839Y-32571852D01*
X42418000Y-32514000D01*
X39297463Y-32514000D01*
X39265327Y-32481808D01*
X38921799Y-32339162D01*
X38549833Y-32338838D01*
X38206057Y-32480883D01*
X37942808Y-32743673D01*
X37800162Y-33087201D01*
X37799838Y-33459167D01*
X13462000Y-33459167D01*
X13462000Y-31877000D01*
X19050000Y-31877000D01*
X19099410Y-31866994D01*
X19141035Y-31838553D01*
X19168315Y-31796159D01*
X19177000Y-31750000D01*
X19177000Y-29874980D01*
X19358960Y-29511060D01*
X19358960Y-30133600D01*
X19403238Y-30368917D01*
X19542310Y-30585041D01*
X19754510Y-30730031D01*
X20006400Y-30781040D01*
X21733600Y-30781040D01*
X21968917Y-30736762D01*
X22185041Y-30597690D01*
X22330031Y-30385490D01*
X22338864Y-30341869D01*
X22350330Y-30359029D01*
X22836511Y-30683885D01*
X23410000Y-30797959D01*
X23983489Y-30683885D01*
X24469670Y-30359029D01*
X24680000Y-30044248D01*
X24890330Y-30359029D01*
X25376511Y-30683885D01*
X25950000Y-30797959D01*
X26523489Y-30683885D01*
X27009670Y-30359029D01*
X27220000Y-30044248D01*
X27430330Y-30359029D01*
X27916511Y-30683885D01*
X28490000Y-30797959D01*
X29063489Y-30683885D01*
X29549670Y-30359029D01*
X29760000Y-30044248D01*
X29970330Y-30359029D01*
X30456511Y-30683885D01*
X31030000Y-30797959D01*
X31603489Y-30683885D01*
X32089670Y-30359029D01*
X32300000Y-30044248D01*
X32510330Y-30359029D01*
X32996511Y-30683885D01*
X33570000Y-30797959D01*
X34143489Y-30683885D01*
X34629670Y-30359029D01*
X34840000Y-30044248D01*
X35050330Y-30359029D01*
X35536511Y-30683885D01*
X36110000Y-30797959D01*
X36683489Y-30683885D01*
X37169670Y-30359029D01*
X37380000Y-30044248D01*
X37590330Y-30359029D01*
X38076511Y-30683885D01*
X38650000Y-30797959D01*
X39223489Y-30683885D01*
X39709670Y-30359029D01*
X39920000Y-30044248D01*
X40130330Y-30359029D01*
X40616511Y-30683885D01*
X41190000Y-30797959D01*
X41763489Y-30683885D01*
X42249670Y-30359029D01*
X42460000Y-30044248D01*
X42670330Y-30359029D01*
X43156511Y-30683885D01*
X43730000Y-30797959D01*
X44303489Y-30683885D01*
X44789670Y-30359029D01*
X45000000Y-30044248D01*
X45210330Y-30359029D01*
X45696511Y-30683885D01*
X46270000Y-30797959D01*
X46843489Y-30683885D01*
X47329670Y-30359029D01*
X47540000Y-30044248D01*
X47750330Y-30359029D01*
X48236511Y-30683885D01*
X48810000Y-30797959D01*
X49383489Y-30683885D01*
X49869670Y-30359029D01*
X50080000Y-30044248D01*
X50290330Y-30359029D01*
X50776511Y-30683885D01*
X51350000Y-30797959D01*
X51923489Y-30683885D01*
X52409670Y-30359029D01*
X52620000Y-30044248D01*
X52830330Y-30359029D01*
X53316511Y-30683885D01*
X53890000Y-30797959D01*
X54463489Y-30683885D01*
X54949670Y-30359029D01*
X55160000Y-30044248D01*
X55370330Y-30359029D01*
X55856511Y-30683885D01*
X56430000Y-30797959D01*
X57003489Y-30683885D01*
X57489670Y-30359029D01*
X57700000Y-30044248D01*
X57910330Y-30359029D01*
X58396511Y-30683885D01*
X58970000Y-30797959D01*
X59543489Y-30683885D01*
X60029670Y-30359029D01*
X60240000Y-30044248D01*
X60450330Y-30359029D01*
X60936511Y-30683885D01*
X61510000Y-30797959D01*
X62083489Y-30683885D01*
X62569670Y-30359029D01*
X62780000Y-30044248D01*
X62990330Y-30359029D01*
X63476511Y-30683885D01*
X64050000Y-30797959D01*
X64623489Y-30683885D01*
X65109670Y-30359029D01*
X65320000Y-30044248D01*
X65530330Y-30359029D01*
X66016511Y-30683885D01*
X66590000Y-30797959D01*
X67163489Y-30683885D01*
X67649670Y-30359029D01*
X67860000Y-30044248D01*
X68070330Y-30359029D01*
X68556511Y-30683885D01*
X69130000Y-30797959D01*
X69703489Y-30683885D01*
X70189670Y-30359029D01*
X70514526Y-29872848D01*
X70589802Y-29494408D01*
X72935197Y-31839803D01*
X72935197Y-31839803D01*
G37*
X72935197Y-31839803D02*
X72977211Y-31867666D01*
X73025000Y-31877000D01*
X76708000Y-31877000D01*
X76708000Y-47498000D01*
X72390000Y-47498000D01*
X72340590Y-47508006D01*
X72288400Y-47548800D01*
X70383400Y-50088800D01*
X70361759Y-50134332D01*
X70358000Y-50165000D01*
X70358000Y-53815000D01*
X19812000Y-53815000D01*
X19812000Y-50477167D01*
X53166838Y-50477167D01*
X53308883Y-50820943D01*
X53571673Y-51084192D01*
X53915201Y-51226838D01*
X54144973Y-51227038D01*
X54169263Y-51349151D01*
X54480332Y-51814698D01*
X54945879Y-52125767D01*
X55495030Y-52235000D01*
X56264970Y-52235000D01*
X56814121Y-52125767D01*
X57279668Y-51814698D01*
X57590737Y-51349151D01*
X57699970Y-50800000D01*
X57590737Y-50250849D01*
X57279668Y-49785302D01*
X56897582Y-49530000D01*
X57279668Y-49274698D01*
X57590737Y-48809151D01*
X57699970Y-48260000D01*
X57590737Y-47710849D01*
X57279668Y-47245302D01*
X56897582Y-46990000D01*
X57279668Y-46734698D01*
X57590737Y-46269151D01*
X57699970Y-45720000D01*
X57590737Y-45170849D01*
X57279668Y-44705302D01*
X56897582Y-44450000D01*
X57279668Y-44194698D01*
X57590737Y-43729151D01*
X57699970Y-43180000D01*
X57590737Y-42630849D01*
X57279668Y-42165302D01*
X56897582Y-41910000D01*
X57279668Y-41654698D01*
X57590737Y-41189151D01*
X57699970Y-40640000D01*
X57590737Y-40090849D01*
X57279668Y-39625302D01*
X56897582Y-39370000D01*
X57279668Y-39114698D01*
X57590737Y-38649151D01*
X57612614Y-38539167D01*
X60532838Y-38539167D01*
X60674883Y-38882943D01*
X60708000Y-38916118D01*
X60708000Y-43379537D01*
X60675808Y-43411673D01*
X60533162Y-43755201D01*
X60532838Y-44127167D01*
X60674883Y-44470943D01*
X60937673Y-44734192D01*
X61281201Y-44876838D01*
X61653167Y-44877162D01*
X61996943Y-44735117D01*
X62260192Y-44472327D01*
X62315715Y-44338613D01*
X62482418Y-44450000D01*
X62100332Y-44705302D01*
X61789263Y-45170849D01*
X61680030Y-45720000D01*
X61789263Y-46269151D01*
X62100332Y-46734698D01*
X62482418Y-46990000D01*
X62100332Y-47245302D01*
X61789263Y-47710849D01*
X61680030Y-48260000D01*
X61789263Y-48809151D01*
X62100332Y-49274698D01*
X62482418Y-49530000D01*
X62100332Y-49785302D01*
X61789263Y-50250849D01*
X61680030Y-50800000D01*
X61789263Y-51349151D01*
X62100332Y-51814698D01*
X62565879Y-52125767D01*
X63115030Y-52235000D01*
X63884970Y-52235000D01*
X64434121Y-52125767D01*
X64899668Y-51814698D01*
X65210737Y-51349151D01*
X65319970Y-50800000D01*
X65210737Y-50250849D01*
X64899668Y-49785302D01*
X64517582Y-49530000D01*
X64899668Y-49274698D01*
X65210737Y-48809151D01*
X65319970Y-48260000D01*
X65210737Y-47710849D01*
X64899668Y-47245302D01*
X64517582Y-46990000D01*
X64899668Y-46734698D01*
X65210737Y-46269151D01*
X65319970Y-45720000D01*
X65210737Y-45170849D01*
X64899668Y-44705302D01*
X64517582Y-44450000D01*
X64899668Y-44194698D01*
X65210737Y-43729151D01*
X65319970Y-43180000D01*
X65210737Y-42630849D01*
X64899668Y-42165302D01*
X64517582Y-41910000D01*
X64899668Y-41654698D01*
X65210737Y-41189151D01*
X65319970Y-40640000D01*
X65210737Y-40090849D01*
X64899668Y-39625302D01*
X64517582Y-39370000D01*
X64899668Y-39114698D01*
X65210737Y-38649151D01*
X65319970Y-38100000D01*
X65210737Y-37550849D01*
X64899668Y-37085302D01*
X64517582Y-36830000D01*
X64899668Y-36574698D01*
X65210737Y-36109151D01*
X65319970Y-35560000D01*
X65303212Y-35475750D01*
X70365510Y-35475750D01*
X70365510Y-36315799D01*
X70462183Y-36549188D01*
X70640811Y-36727817D01*
X70703013Y-36753582D01*
X70489928Y-37072486D01*
X70365510Y-37697978D01*
X70365510Y-37762022D01*
X70489928Y-38387514D01*
X70844241Y-38917781D01*
X70967290Y-39000000D01*
X70844241Y-39082219D01*
X70489928Y-39612486D01*
X70365510Y-40237978D01*
X70365510Y-40302022D01*
X70489928Y-40927514D01*
X70844241Y-41457781D01*
X70967290Y-41540000D01*
X70844241Y-41622219D01*
X70489928Y-42152486D01*
X70365510Y-42777978D01*
X70365510Y-42842022D01*
X70489928Y-43467514D01*
X70844241Y-43997781D01*
X71374508Y-44352094D01*
X72000000Y-44476512D01*
X72625492Y-44352094D01*
X73155759Y-43997781D01*
X73510072Y-43467514D01*
X73634490Y-42842022D01*
X73634490Y-42777978D01*
X73510072Y-42152486D01*
X73155759Y-41622219D01*
X73032710Y-41540000D01*
X73155759Y-41457781D01*
X73510072Y-40927514D01*
X73634490Y-40302022D01*
X73634490Y-40237978D01*
X73510072Y-39612486D01*
X73155759Y-39082219D01*
X73032710Y-39000000D01*
X73155759Y-38917781D01*
X73510072Y-38387514D01*
X73634490Y-37762022D01*
X73634490Y-37697978D01*
X73510072Y-37072486D01*
X73296987Y-36753582D01*
X73359189Y-36727817D01*
X73537817Y-36549188D01*
X73634490Y-36315799D01*
X73634490Y-35475750D01*
X73475740Y-35317000D01*
X72127000Y-35317000D01*
X72127000Y-35337000D01*
X71873000Y-35337000D01*
X71873000Y-35317000D01*
X70524260Y-35317000D01*
X70365510Y-35475750D01*
X65303212Y-35475750D01*
X65210737Y-35010849D01*
X64899668Y-34545302D01*
X64434121Y-34234233D01*
X63884970Y-34125000D01*
X63115030Y-34125000D01*
X62565879Y-34234233D01*
X62100332Y-34545302D01*
X61789263Y-35010849D01*
X61680030Y-35560000D01*
X61789263Y-36109151D01*
X62100332Y-36574698D01*
X62482418Y-36830000D01*
X62100332Y-37085302D01*
X61828938Y-37491471D01*
X61654799Y-37419162D01*
X61282833Y-37418838D01*
X60939057Y-37560883D01*
X60675808Y-37823673D01*
X60533162Y-38167201D01*
X60532838Y-38539167D01*
X57612614Y-38539167D01*
X57699970Y-38100000D01*
X57590737Y-37550849D01*
X57279668Y-37085302D01*
X56897582Y-36830000D01*
X57279668Y-36574698D01*
X57590737Y-36109151D01*
X57699970Y-35560000D01*
X57590737Y-35010849D01*
X57279668Y-34545302D01*
X56814121Y-34234233D01*
X56264970Y-34125000D01*
X55495030Y-34125000D01*
X54945879Y-34234233D01*
X54480332Y-34545302D01*
X54169263Y-35010849D01*
X54060030Y-35560000D01*
X54169263Y-36109151D01*
X54480332Y-36574698D01*
X54862418Y-36830000D01*
X54480332Y-37085302D01*
X54169263Y-37550849D01*
X54060030Y-38100000D01*
X54169263Y-38649151D01*
X54480332Y-39114698D01*
X54862418Y-39370000D01*
X54480332Y-39625302D01*
X54169263Y-40090849D01*
X54060030Y-40640000D01*
X54169263Y-41189151D01*
X54480332Y-41654698D01*
X54862418Y-41910000D01*
X54480332Y-42165302D01*
X54169263Y-42630849D01*
X54060030Y-43180000D01*
X54149281Y-43628694D01*
X54081057Y-43656883D01*
X53817808Y-43919673D01*
X53675162Y-44263201D01*
X53675121Y-44310077D01*
X53564599Y-44420599D01*
X53399852Y-44667161D01*
X53342000Y-44958000D01*
X53342000Y-49729537D01*
X53309808Y-49761673D01*
X53167162Y-50105201D01*
X53166838Y-50477167D01*
X19812000Y-50477167D01*
X19812000Y-47998305D01*
X23554674Y-47998305D01*
X23841043Y-48691372D01*
X24370839Y-49222093D01*
X25063405Y-49509672D01*
X25813305Y-49510326D01*
X26506372Y-49223957D01*
X26772472Y-48958320D01*
X29286285Y-48958320D01*
X29415533Y-49251123D01*
X30115806Y-49519388D01*
X30865435Y-49499250D01*
X31464467Y-49251123D01*
X31593715Y-48958320D01*
X30440000Y-47804605D01*
X29286285Y-48958320D01*
X26772472Y-48958320D01*
X27037093Y-48694161D01*
X27324672Y-48001595D01*
X27325283Y-47300806D01*
X28545612Y-47300806D01*
X28565750Y-48050435D01*
X28813877Y-48649467D01*
X29106680Y-48778715D01*
X30260395Y-47625000D01*
X30619605Y-47625000D01*
X31773320Y-48778715D01*
X32066123Y-48649467D01*
X32334388Y-47949194D01*
X32314250Y-47199565D01*
X32066123Y-46600533D01*
X31773320Y-46471285D01*
X30619605Y-47625000D01*
X30260395Y-47625000D01*
X29106680Y-46471285D01*
X28813877Y-46600533D01*
X28545612Y-47300806D01*
X27325283Y-47300806D01*
X27325326Y-47251695D01*
X27038957Y-46558628D01*
X26772475Y-46291680D01*
X29286285Y-46291680D01*
X30440000Y-47445395D01*
X31593715Y-46291680D01*
X31464467Y-45998877D01*
X30764194Y-45730612D01*
X30014565Y-45750750D01*
X29415533Y-45998877D01*
X29286285Y-46291680D01*
X26772475Y-46291680D01*
X26509161Y-46027907D01*
X25816595Y-45740328D01*
X25066695Y-45739674D01*
X24373628Y-46026043D01*
X23842907Y-46555839D01*
X23555328Y-47248405D01*
X23554674Y-47998305D01*
X19812000Y-47998305D01*
X19812000Y-46990000D01*
X19801994Y-46940590D01*
X19773553Y-46898965D01*
X19731159Y-46871685D01*
X19685000Y-46863000D01*
X13462000Y-46863000D01*
X13462000Y-38591000D01*
X14064305Y-39194357D01*
X15124280Y-39634498D01*
X16272004Y-39635499D01*
X16547550Y-39521646D01*
X16256043Y-39812645D01*
X15815902Y-40872620D01*
X15814901Y-42020344D01*
X16253190Y-43081086D01*
X17064045Y-43893357D01*
X18124020Y-44333498D01*
X19271744Y-44334499D01*
X20332486Y-43896210D01*
X21144757Y-43085355D01*
X21584898Y-42025380D01*
X21585899Y-40877656D01*
X21147610Y-39816914D01*
X20851078Y-39519864D01*
X21137586Y-39637227D01*
X22285302Y-39632730D01*
X23324765Y-39202169D01*
X23576002Y-38805467D01*
X21700140Y-36929605D01*
X21685998Y-36943748D01*
X21506393Y-36764143D01*
X21520535Y-36750000D01*
X21879745Y-36750000D01*
X23755607Y-38625862D01*
X24152309Y-38374625D01*
X24587367Y-37312554D01*
X24582870Y-36164838D01*
X24152309Y-35125375D01*
X23755607Y-34874138D01*
X21879745Y-36750000D01*
X21520535Y-36750000D01*
X19644673Y-34874138D01*
X19247971Y-35125375D01*
X18812913Y-36187446D01*
X18817410Y-37335162D01*
X19247971Y-38374625D01*
X19644671Y-38625861D01*
X19580086Y-38690446D01*
X19276780Y-38564502D01*
X18129056Y-38563501D01*
X17853510Y-38677354D01*
X18145017Y-38386355D01*
X18585158Y-37326380D01*
X18586159Y-36178656D01*
X18147870Y-35117914D01*
X17725228Y-34694533D01*
X19824278Y-34694533D01*
X21700140Y-36570395D01*
X23576002Y-34694533D01*
X23324765Y-34297831D01*
X22262694Y-33862773D01*
X21114978Y-33867270D01*
X20075515Y-34297831D01*
X19824278Y-34694533D01*
X17725228Y-34694533D01*
X17337015Y-34305643D01*
X16277040Y-33865502D01*
X15129316Y-33864501D01*
X14068574Y-34302790D01*
X13462000Y-34908307D01*
X13462000Y-33459167D01*
X37799838Y-33459167D01*
X37941883Y-33802943D01*
X38204673Y-34066192D01*
X38548201Y-34208838D01*
X38920167Y-34209162D01*
X39148790Y-34114697D01*
X39027569Y-34292110D01*
X38976560Y-34544000D01*
X38976560Y-36576000D01*
X39020838Y-36811317D01*
X39159910Y-37027441D01*
X39316206Y-37134233D01*
X39114675Y-37435845D01*
X38989000Y-38067655D01*
X38989000Y-38132345D01*
X39114675Y-38764155D01*
X39472567Y-39299778D01*
X40008190Y-39657670D01*
X40640000Y-39783345D01*
X41271810Y-39657670D01*
X41807433Y-39299778D01*
X41910000Y-39146276D01*
X42012567Y-39299778D01*
X42548190Y-39657670D01*
X43180000Y-39783345D01*
X43811810Y-39657670D01*
X44347433Y-39299778D01*
X44450000Y-39146276D01*
X44552567Y-39299778D01*
X45088190Y-39657670D01*
X45720000Y-39783345D01*
X46351810Y-39657670D01*
X46887433Y-39299778D01*
X47245325Y-38764155D01*
X47371000Y-38132345D01*
X47371000Y-38067655D01*
X47245325Y-37435845D01*
X47042996Y-37133038D01*
X47187441Y-37040090D01*
X47332431Y-36827890D01*
X47383440Y-36576000D01*
X47383440Y-34544000D01*
X47339162Y-34308683D01*
X47200090Y-34092559D01*
X47114386Y-34034000D01*
X54047537Y-34034000D01*
X54079673Y-34066192D01*
X54423201Y-34208838D01*
X54795167Y-34209162D01*
X55138943Y-34067117D01*
X55141864Y-34064201D01*
X70365510Y-34064201D01*
X70365510Y-34904250D01*
X70524260Y-35063000D01*
X71873000Y-35063000D01*
X71873000Y-33714260D01*
X72127000Y-33714260D01*
X72127000Y-35063000D01*
X73475740Y-35063000D01*
X73634490Y-34904250D01*
X73634490Y-34064201D01*
X73537817Y-33830812D01*
X73359189Y-33652183D01*
X73125800Y-33555510D01*
X72285750Y-33555510D01*
X72127000Y-33714260D01*
X71873000Y-33714260D01*
X71714250Y-33555510D01*
X70874200Y-33555510D01*
X70640811Y-33652183D01*
X70462183Y-33830812D01*
X70365510Y-34064201D01*
X55141864Y-34064201D01*
X55402192Y-33804327D01*
X55544838Y-33460799D01*
X55545162Y-33088833D01*
X55403117Y-32745057D01*
X55140327Y-32481808D01*
X54796799Y-32339162D01*
X54424833Y-32338838D01*
X54081057Y-32480883D01*
X54047882Y-32514000D01*
X45012463Y-32514000D01*
X44980327Y-32481808D01*
X44636799Y-32339162D01*
X44264833Y-32338838D01*
X43921057Y-32480883D01*
X43657808Y-32743673D01*
X43515162Y-33087201D01*
X43514980Y-33296178D01*
X42955401Y-32736599D01*
X42708839Y-32571852D01*
X42418000Y-32514000D01*
X39297463Y-32514000D01*
X39265327Y-32481808D01*
X38921799Y-32339162D01*
X38549833Y-32338838D01*
X38206057Y-32480883D01*
X37942808Y-32743673D01*
X37800162Y-33087201D01*
X37799838Y-33459167D01*
X13462000Y-33459167D01*
X13462000Y-31877000D01*
X19050000Y-31877000D01*
X19099410Y-31866994D01*
X19141035Y-31838553D01*
X19168315Y-31796159D01*
X19177000Y-31750000D01*
X19177000Y-29874980D01*
X19358960Y-29511060D01*
X19358960Y-30133600D01*
X19403238Y-30368917D01*
X19542310Y-30585041D01*
X19754510Y-30730031D01*
X20006400Y-30781040D01*
X21733600Y-30781040D01*
X21968917Y-30736762D01*
X22185041Y-30597690D01*
X22330031Y-30385490D01*
X22338864Y-30341869D01*
X22350330Y-30359029D01*
X22836511Y-30683885D01*
X23410000Y-30797959D01*
X23983489Y-30683885D01*
X24469670Y-30359029D01*
X24680000Y-30044248D01*
X24890330Y-30359029D01*
X25376511Y-30683885D01*
X25950000Y-30797959D01*
X26523489Y-30683885D01*
X27009670Y-30359029D01*
X27220000Y-30044248D01*
X27430330Y-30359029D01*
X27916511Y-30683885D01*
X28490000Y-30797959D01*
X29063489Y-30683885D01*
X29549670Y-30359029D01*
X29760000Y-30044248D01*
X29970330Y-30359029D01*
X30456511Y-30683885D01*
X31030000Y-30797959D01*
X31603489Y-30683885D01*
X32089670Y-30359029D01*
X32300000Y-30044248D01*
X32510330Y-30359029D01*
X32996511Y-30683885D01*
X33570000Y-30797959D01*
X34143489Y-30683885D01*
X34629670Y-30359029D01*
X34840000Y-30044248D01*
X35050330Y-30359029D01*
X35536511Y-30683885D01*
X36110000Y-30797959D01*
X36683489Y-30683885D01*
X37169670Y-30359029D01*
X37380000Y-30044248D01*
X37590330Y-30359029D01*
X38076511Y-30683885D01*
X38650000Y-30797959D01*
X39223489Y-30683885D01*
X39709670Y-30359029D01*
X39920000Y-30044248D01*
X40130330Y-30359029D01*
X40616511Y-30683885D01*
X41190000Y-30797959D01*
X41763489Y-30683885D01*
X42249670Y-30359029D01*
X42460000Y-30044248D01*
X42670330Y-30359029D01*
X43156511Y-30683885D01*
X43730000Y-30797959D01*
X44303489Y-30683885D01*
X44789670Y-30359029D01*
X45000000Y-30044248D01*
X45210330Y-30359029D01*
X45696511Y-30683885D01*
X46270000Y-30797959D01*
X46843489Y-30683885D01*
X47329670Y-30359029D01*
X47540000Y-30044248D01*
X47750330Y-30359029D01*
X48236511Y-30683885D01*
X48810000Y-30797959D01*
X49383489Y-30683885D01*
X49869670Y-30359029D01*
X50080000Y-30044248D01*
X50290330Y-30359029D01*
X50776511Y-30683885D01*
X51350000Y-30797959D01*
X51923489Y-30683885D01*
X52409670Y-30359029D01*
X52620000Y-30044248D01*
X52830330Y-30359029D01*
X53316511Y-30683885D01*
X53890000Y-30797959D01*
X54463489Y-30683885D01*
X54949670Y-30359029D01*
X55160000Y-30044248D01*
X55370330Y-30359029D01*
X55856511Y-30683885D01*
X56430000Y-30797959D01*
X57003489Y-30683885D01*
X57489670Y-30359029D01*
X57700000Y-30044248D01*
X57910330Y-30359029D01*
X58396511Y-30683885D01*
X58970000Y-30797959D01*
X59543489Y-30683885D01*
X60029670Y-30359029D01*
X60240000Y-30044248D01*
X60450330Y-30359029D01*
X60936511Y-30683885D01*
X61510000Y-30797959D01*
X62083489Y-30683885D01*
X62569670Y-30359029D01*
X62780000Y-30044248D01*
X62990330Y-30359029D01*
X63476511Y-30683885D01*
X64050000Y-30797959D01*
X64623489Y-30683885D01*
X65109670Y-30359029D01*
X65320000Y-30044248D01*
X65530330Y-30359029D01*
X66016511Y-30683885D01*
X66590000Y-30797959D01*
X67163489Y-30683885D01*
X67649670Y-30359029D01*
X67860000Y-30044248D01*
X68070330Y-30359029D01*
X68556511Y-30683885D01*
X69130000Y-30797959D01*
X69703489Y-30683885D01*
X70189670Y-30359029D01*
X70514526Y-29872848D01*
X70589802Y-29494408D01*
X72935197Y-31839803D01*
M02*
