G04 #@! TF.FileFunction,Legend,Top*
%FSLAX46Y46*%
G04 Gerber Fmt 4.6, Leading zero omitted, Abs format (unit mm)*
G04 Created by KiCad (PCBNEW 4.0.6-e0-6349~53~ubuntu16.04.1) date Fri Jun 23 16:13:46 2017*
%MOMM*%
%LPD*%
G01*
G04 APERTURE LIST*
%ADD10C,0.100000*%
%ADD11C,0.200000*%
%ADD12C,0.254000*%
%ADD13C,0.300000*%
%ADD14C,0.190500*%
%ADD15C,0.150000*%
%ADD16C,0.381000*%
%ADD17C,0.010000*%
G04 APERTURE END LIST*
D10*
D11*
X43688000Y-31115000D02*
X43688000Y-30607000D01*
X46482000Y-31115000D02*
X46482000Y-30607000D01*
X43688000Y-31115000D02*
X46482000Y-31115000D01*
X43815000Y-31115000D02*
X46355000Y-31115000D01*
D12*
X48846619Y-40029190D02*
X47830619Y-40029190D01*
X47830619Y-39787285D01*
X47879000Y-39642143D01*
X47975762Y-39545381D01*
X48072524Y-39497000D01*
X48266048Y-39448619D01*
X48411190Y-39448619D01*
X48604714Y-39497000D01*
X48701476Y-39545381D01*
X48798238Y-39642143D01*
X48846619Y-39787285D01*
X48846619Y-40029190D01*
X48846619Y-38577762D02*
X48314429Y-38577762D01*
X48217667Y-38626143D01*
X48169286Y-38722905D01*
X48169286Y-38916428D01*
X48217667Y-39013190D01*
X48798238Y-38577762D02*
X48846619Y-38674524D01*
X48846619Y-38916428D01*
X48798238Y-39013190D01*
X48701476Y-39061571D01*
X48604714Y-39061571D01*
X48507952Y-39013190D01*
X48459571Y-38916428D01*
X48459571Y-38674524D01*
X48411190Y-38577762D01*
X48169286Y-38239095D02*
X48169286Y-37852047D01*
X47830619Y-38093952D02*
X48701476Y-38093952D01*
X48798238Y-38045571D01*
X48846619Y-37948809D01*
X48846619Y-37852047D01*
X48846619Y-37077953D02*
X48314429Y-37077953D01*
X48217667Y-37126334D01*
X48169286Y-37223096D01*
X48169286Y-37416619D01*
X48217667Y-37513381D01*
X48798238Y-37077953D02*
X48846619Y-37174715D01*
X48846619Y-37416619D01*
X48798238Y-37513381D01*
X48701476Y-37561762D01*
X48604714Y-37561762D01*
X48507952Y-37513381D01*
X48459571Y-37416619D01*
X48459571Y-37174715D01*
X48411190Y-37077953D01*
X48846619Y-35820048D02*
X47830619Y-35820048D01*
X47830619Y-35433001D01*
X47879000Y-35336239D01*
X47927381Y-35287858D01*
X48024143Y-35239477D01*
X48169286Y-35239477D01*
X48266048Y-35287858D01*
X48314429Y-35336239D01*
X48362810Y-35433001D01*
X48362810Y-35820048D01*
X48846619Y-34804048D02*
X48169286Y-34804048D01*
X47830619Y-34804048D02*
X47879000Y-34852429D01*
X47927381Y-34804048D01*
X47879000Y-34755667D01*
X47830619Y-34804048D01*
X47927381Y-34804048D01*
X48169286Y-34320238D02*
X48846619Y-34320238D01*
X48266048Y-34320238D02*
X48217667Y-34271857D01*
X48169286Y-34175095D01*
X48169286Y-34029953D01*
X48217667Y-33933191D01*
X48314429Y-33884810D01*
X48846619Y-33884810D01*
X50576238Y-39109951D02*
X50624619Y-38964808D01*
X50624619Y-38722904D01*
X50576238Y-38626142D01*
X50527857Y-38577761D01*
X50431095Y-38529380D01*
X50334333Y-38529380D01*
X50237571Y-38577761D01*
X50189190Y-38626142D01*
X50140810Y-38722904D01*
X50092429Y-38916427D01*
X50044048Y-39013189D01*
X49995667Y-39061570D01*
X49898905Y-39109951D01*
X49802143Y-39109951D01*
X49705381Y-39061570D01*
X49657000Y-39013189D01*
X49608619Y-38916427D01*
X49608619Y-38674523D01*
X49657000Y-38529380D01*
X50576238Y-37706904D02*
X50624619Y-37803666D01*
X50624619Y-37997189D01*
X50576238Y-38093951D01*
X50479476Y-38142332D01*
X50092429Y-38142332D01*
X49995667Y-38093951D01*
X49947286Y-37997189D01*
X49947286Y-37803666D01*
X49995667Y-37706904D01*
X50092429Y-37658523D01*
X50189190Y-37658523D01*
X50285952Y-38142332D01*
X50624619Y-37077951D02*
X50576238Y-37174713D01*
X50479476Y-37223094D01*
X49608619Y-37223094D01*
X50576238Y-36303857D02*
X50624619Y-36400619D01*
X50624619Y-36594142D01*
X50576238Y-36690904D01*
X50479476Y-36739285D01*
X50092429Y-36739285D01*
X49995667Y-36690904D01*
X49947286Y-36594142D01*
X49947286Y-36400619D01*
X49995667Y-36303857D01*
X50092429Y-36255476D01*
X50189190Y-36255476D01*
X50285952Y-36739285D01*
X50576238Y-35384619D02*
X50624619Y-35481381D01*
X50624619Y-35674904D01*
X50576238Y-35771666D01*
X50527857Y-35820047D01*
X50431095Y-35868428D01*
X50140810Y-35868428D01*
X50044048Y-35820047D01*
X49995667Y-35771666D01*
X49947286Y-35674904D01*
X49947286Y-35481381D01*
X49995667Y-35384619D01*
X49947286Y-35094333D02*
X49947286Y-34707285D01*
X49608619Y-34949190D02*
X50479476Y-34949190D01*
X50576238Y-34900809D01*
X50624619Y-34804047D01*
X50624619Y-34707285D01*
X17163144Y-45671619D02*
X17163144Y-44655619D01*
X17550191Y-44655619D01*
X17646953Y-44704000D01*
X17695334Y-44752381D01*
X17743715Y-44849143D01*
X17743715Y-44994286D01*
X17695334Y-45091048D01*
X17646953Y-45139429D01*
X17550191Y-45187810D01*
X17163144Y-45187810D01*
X18324287Y-45671619D02*
X18227525Y-45623238D01*
X18179144Y-45574857D01*
X18130763Y-45478095D01*
X18130763Y-45187810D01*
X18179144Y-45091048D01*
X18227525Y-45042667D01*
X18324287Y-44994286D01*
X18469429Y-44994286D01*
X18566191Y-45042667D01*
X18614572Y-45091048D01*
X18662953Y-45187810D01*
X18662953Y-45478095D01*
X18614572Y-45574857D01*
X18566191Y-45623238D01*
X18469429Y-45671619D01*
X18324287Y-45671619D01*
X19001620Y-44994286D02*
X19195144Y-45671619D01*
X19388667Y-45187810D01*
X19582191Y-45671619D01*
X19775715Y-44994286D01*
X20549810Y-45623238D02*
X20453048Y-45671619D01*
X20259525Y-45671619D01*
X20162763Y-45623238D01*
X20114382Y-45526476D01*
X20114382Y-45139429D01*
X20162763Y-45042667D01*
X20259525Y-44994286D01*
X20453048Y-44994286D01*
X20549810Y-45042667D01*
X20598191Y-45139429D01*
X20598191Y-45236190D01*
X20114382Y-45332952D01*
X21033620Y-45671619D02*
X21033620Y-44994286D01*
X21033620Y-45187810D02*
X21082001Y-45091048D01*
X21130382Y-45042667D01*
X21227144Y-44994286D01*
X21323905Y-44994286D01*
X17888858Y-47449619D02*
X17888858Y-46433619D01*
X18372668Y-46772286D02*
X18372668Y-47449619D01*
X18372668Y-46869048D02*
X18421049Y-46820667D01*
X18517811Y-46772286D01*
X18662953Y-46772286D01*
X18759715Y-46820667D01*
X18808096Y-46917429D01*
X18808096Y-47449619D01*
X19291906Y-46772286D02*
X19291906Y-47788286D01*
X19291906Y-46820667D02*
X19388668Y-46772286D01*
X19582191Y-46772286D01*
X19678953Y-46820667D01*
X19727334Y-46869048D01*
X19775715Y-46965810D01*
X19775715Y-47256095D01*
X19727334Y-47352857D01*
X19678953Y-47401238D01*
X19582191Y-47449619D01*
X19388668Y-47449619D01*
X19291906Y-47401238D01*
X20646572Y-46772286D02*
X20646572Y-47449619D01*
X20211144Y-46772286D02*
X20211144Y-47304476D01*
X20259525Y-47401238D01*
X20356287Y-47449619D01*
X20501429Y-47449619D01*
X20598191Y-47401238D01*
X20646572Y-47352857D01*
X20985239Y-46772286D02*
X21372287Y-46772286D01*
X21130382Y-46433619D02*
X21130382Y-47304476D01*
X21178763Y-47401238D01*
X21275525Y-47449619D01*
X21372287Y-47449619D01*
X68477191Y-46179619D02*
X67993382Y-46179619D01*
X67993382Y-45163619D01*
X68815858Y-45647429D02*
X69154524Y-45647429D01*
X69299667Y-46179619D02*
X68815858Y-46179619D01*
X68815858Y-45163619D01*
X69299667Y-45163619D01*
X69735096Y-46179619D02*
X69735096Y-45163619D01*
X69977001Y-45163619D01*
X70122143Y-45212000D01*
X70218905Y-45308762D01*
X70267286Y-45405524D01*
X70315667Y-45599048D01*
X70315667Y-45744190D01*
X70267286Y-45937714D01*
X70218905Y-46034476D01*
X70122143Y-46131238D01*
X69977001Y-46179619D01*
X69735096Y-46179619D01*
X71718715Y-45163619D02*
X71912238Y-45163619D01*
X72009000Y-45212000D01*
X72105762Y-45308762D01*
X72154143Y-45502286D01*
X72154143Y-45840952D01*
X72105762Y-46034476D01*
X72009000Y-46131238D01*
X71912238Y-46179619D01*
X71718715Y-46179619D01*
X71621953Y-46131238D01*
X71525191Y-46034476D01*
X71476810Y-45840952D01*
X71476810Y-45502286D01*
X71525191Y-45308762D01*
X71621953Y-45212000D01*
X71718715Y-45163619D01*
X73025000Y-45502286D02*
X73025000Y-46179619D01*
X72589572Y-45502286D02*
X72589572Y-46034476D01*
X72637953Y-46131238D01*
X72734715Y-46179619D01*
X72879857Y-46179619D01*
X72976619Y-46131238D01*
X73025000Y-46082857D01*
X73363667Y-45502286D02*
X73750715Y-45502286D01*
X73508810Y-45163619D02*
X73508810Y-46034476D01*
X73557191Y-46131238D01*
X73653953Y-46179619D01*
X73750715Y-46179619D01*
X74089381Y-45502286D02*
X74089381Y-46518286D01*
X74089381Y-45550667D02*
X74186143Y-45502286D01*
X74379666Y-45502286D01*
X74476428Y-45550667D01*
X74524809Y-45599048D01*
X74573190Y-45695810D01*
X74573190Y-45986095D01*
X74524809Y-46082857D01*
X74476428Y-46131238D01*
X74379666Y-46179619D01*
X74186143Y-46179619D01*
X74089381Y-46131238D01*
X75444047Y-45502286D02*
X75444047Y-46179619D01*
X75008619Y-45502286D02*
X75008619Y-46034476D01*
X75057000Y-46131238D01*
X75153762Y-46179619D01*
X75298904Y-46179619D01*
X75395666Y-46131238D01*
X75444047Y-46082857D01*
X75782714Y-45502286D02*
X76169762Y-45502286D01*
X75927857Y-45163619D02*
X75927857Y-46034476D01*
X75976238Y-46131238D01*
X76073000Y-46179619D01*
X76169762Y-46179619D01*
D13*
X35560001Y-49688429D02*
X35560001Y-48164429D01*
X36068001Y-49253000D01*
X36576001Y-48164429D01*
X36576001Y-49688429D01*
X37954858Y-49688429D02*
X37954858Y-48890143D01*
X37882287Y-48745000D01*
X37737144Y-48672429D01*
X37446858Y-48672429D01*
X37301715Y-48745000D01*
X37954858Y-49615857D02*
X37809715Y-49688429D01*
X37446858Y-49688429D01*
X37301715Y-49615857D01*
X37229144Y-49470714D01*
X37229144Y-49325571D01*
X37301715Y-49180429D01*
X37446858Y-49107857D01*
X37809715Y-49107857D01*
X37954858Y-49035286D01*
X38680572Y-48672429D02*
X38680572Y-49688429D01*
X38680572Y-48817571D02*
X38753144Y-48745000D01*
X38898286Y-48672429D01*
X39116001Y-48672429D01*
X39261144Y-48745000D01*
X39333715Y-48890143D01*
X39333715Y-49688429D01*
X40059429Y-49688429D02*
X40059429Y-48672429D01*
X40059429Y-48164429D02*
X39986858Y-48237000D01*
X40059429Y-48309571D01*
X40132001Y-48237000D01*
X40059429Y-48164429D01*
X40059429Y-48309571D01*
X41438286Y-49688429D02*
X41438286Y-48890143D01*
X41365715Y-48745000D01*
X41220572Y-48672429D01*
X40930286Y-48672429D01*
X40785143Y-48745000D01*
X41438286Y-49615857D02*
X41293143Y-49688429D01*
X40930286Y-49688429D01*
X40785143Y-49615857D01*
X40712572Y-49470714D01*
X40712572Y-49325571D01*
X40785143Y-49180429D01*
X40930286Y-49107857D01*
X41293143Y-49107857D01*
X41438286Y-49035286D01*
X42817143Y-49615857D02*
X42672000Y-49688429D01*
X42381714Y-49688429D01*
X42236572Y-49615857D01*
X42164000Y-49543286D01*
X42091429Y-49398143D01*
X42091429Y-48962714D01*
X42164000Y-48817571D01*
X42236572Y-48745000D01*
X42381714Y-48672429D01*
X42672000Y-48672429D01*
X42817143Y-48745000D01*
X44123429Y-49688429D02*
X44123429Y-48890143D01*
X44050858Y-48745000D01*
X43905715Y-48672429D01*
X43615429Y-48672429D01*
X43470286Y-48745000D01*
X44123429Y-49615857D02*
X43978286Y-49688429D01*
X43615429Y-49688429D01*
X43470286Y-49615857D01*
X43397715Y-49470714D01*
X43397715Y-49325571D01*
X43470286Y-49180429D01*
X43615429Y-49107857D01*
X43978286Y-49107857D01*
X44123429Y-49035286D01*
X45066857Y-49688429D02*
X44921715Y-49615857D01*
X44849143Y-49470714D01*
X44849143Y-48164429D01*
X47534286Y-49688429D02*
X46808572Y-49688429D01*
X46808572Y-48164429D01*
X48695429Y-49688429D02*
X48695429Y-48890143D01*
X48622858Y-48745000D01*
X48477715Y-48672429D01*
X48187429Y-48672429D01*
X48042286Y-48745000D01*
X48695429Y-49615857D02*
X48550286Y-49688429D01*
X48187429Y-49688429D01*
X48042286Y-49615857D01*
X47969715Y-49470714D01*
X47969715Y-49325571D01*
X48042286Y-49180429D01*
X48187429Y-49107857D01*
X48550286Y-49107857D01*
X48695429Y-49035286D01*
X49421143Y-49688429D02*
X49421143Y-48164429D01*
X49421143Y-48745000D02*
X49566286Y-48672429D01*
X49856572Y-48672429D01*
X50001715Y-48745000D01*
X50074286Y-48817571D01*
X50146857Y-48962714D01*
X50146857Y-49398143D01*
X50074286Y-49543286D01*
X50001715Y-49615857D01*
X49856572Y-49688429D01*
X49566286Y-49688429D01*
X49421143Y-49615857D01*
X50727429Y-49615857D02*
X50872572Y-49688429D01*
X51162857Y-49688429D01*
X51308000Y-49615857D01*
X51380572Y-49470714D01*
X51380572Y-49398143D01*
X51308000Y-49253000D01*
X51162857Y-49180429D01*
X50945143Y-49180429D01*
X50800000Y-49107857D01*
X50727429Y-48962714D01*
X50727429Y-48890143D01*
X50800000Y-48745000D01*
X50945143Y-48672429D01*
X51162857Y-48672429D01*
X51308000Y-48745000D01*
X39878000Y-52274429D02*
X39878000Y-50750429D01*
X40458572Y-50750429D01*
X40603714Y-50823000D01*
X40676286Y-50895571D01*
X40748857Y-51040714D01*
X40748857Y-51258429D01*
X40676286Y-51403571D01*
X40603714Y-51476143D01*
X40458572Y-51548714D01*
X39878000Y-51548714D01*
X41402000Y-52274429D02*
X41402000Y-51258429D01*
X41402000Y-50750429D02*
X41329429Y-50823000D01*
X41402000Y-50895571D01*
X41474572Y-50823000D01*
X41402000Y-50750429D01*
X41402000Y-50895571D01*
X42127714Y-52274429D02*
X42127714Y-50750429D01*
X42708286Y-50750429D01*
X42853428Y-50823000D01*
X42926000Y-50895571D01*
X42998571Y-51040714D01*
X42998571Y-51258429D01*
X42926000Y-51403571D01*
X42853428Y-51476143D01*
X42708286Y-51548714D01*
X42127714Y-51548714D01*
X43651714Y-52274429D02*
X43651714Y-51258429D01*
X43651714Y-50750429D02*
X43579143Y-50823000D01*
X43651714Y-50895571D01*
X43724286Y-50823000D01*
X43651714Y-50750429D01*
X43651714Y-50895571D01*
X44232285Y-52274429D02*
X45030571Y-51258429D01*
X44232285Y-51258429D02*
X45030571Y-52274429D01*
X46191714Y-52201857D02*
X46046571Y-52274429D01*
X45756285Y-52274429D01*
X45611142Y-52201857D01*
X45538571Y-52056714D01*
X45538571Y-51476143D01*
X45611142Y-51331000D01*
X45756285Y-51258429D01*
X46046571Y-51258429D01*
X46191714Y-51331000D01*
X46264285Y-51476143D01*
X46264285Y-51621286D01*
X45538571Y-51766429D01*
X47135142Y-52274429D02*
X46990000Y-52201857D01*
X46917428Y-52056714D01*
X46917428Y-50750429D01*
D11*
X39370000Y-34544000D02*
X39370000Y-34290000D01*
X41910000Y-34290000D02*
X41910000Y-34544000D01*
X44450000Y-34290000D02*
X44450000Y-34544000D01*
X46990000Y-33782000D02*
X46990000Y-34544000D01*
X44450000Y-33782000D02*
X46990000Y-33782000D01*
X44450000Y-33782000D02*
X44450000Y-34290000D01*
X41910000Y-33782000D02*
X44450000Y-33782000D01*
X41910000Y-33782000D02*
X41910000Y-34290000D01*
X39370000Y-33782000D02*
X41910000Y-33782000D01*
X39370000Y-34290000D02*
X39370000Y-33782000D01*
X46990000Y-40132000D02*
X46990000Y-39370000D01*
X44450000Y-40132000D02*
X46990000Y-40132000D01*
X44450000Y-39370000D02*
X44450000Y-40132000D01*
X44450000Y-40132000D02*
X44450000Y-39370000D01*
X41910000Y-40132000D02*
X44450000Y-40132000D01*
X41910000Y-39370000D02*
X41910000Y-40132000D01*
X41910000Y-40132000D02*
X41910000Y-39370000D01*
X39370000Y-40132000D02*
X41910000Y-40132000D01*
X39370000Y-39370000D02*
X39370000Y-40132000D01*
D14*
X46028429Y-44740285D02*
X46064714Y-44631428D01*
X46064714Y-44449999D01*
X46028429Y-44377428D01*
X45992143Y-44341142D01*
X45919571Y-44304857D01*
X45847000Y-44304857D01*
X45774429Y-44341142D01*
X45738143Y-44377428D01*
X45701857Y-44449999D01*
X45665571Y-44595142D01*
X45629286Y-44667714D01*
X45593000Y-44703999D01*
X45520429Y-44740285D01*
X45447857Y-44740285D01*
X45375286Y-44703999D01*
X45339000Y-44667714D01*
X45302714Y-44595142D01*
X45302714Y-44413714D01*
X45339000Y-44304857D01*
X46064714Y-43978285D02*
X45302714Y-43978285D01*
X45302714Y-43688000D01*
X45339000Y-43615428D01*
X45375286Y-43579143D01*
X45447857Y-43542857D01*
X45556714Y-43542857D01*
X45629286Y-43579143D01*
X45665571Y-43615428D01*
X45701857Y-43688000D01*
X45701857Y-43978285D01*
X46064714Y-43216285D02*
X45302714Y-43216285D01*
X46137286Y-43034857D02*
X46137286Y-42454286D01*
X46064714Y-42272857D02*
X45302714Y-42272857D01*
X45302714Y-42091429D01*
X45339000Y-41982572D01*
X45411571Y-41910000D01*
X45484143Y-41873715D01*
X45629286Y-41837429D01*
X45738143Y-41837429D01*
X45883286Y-41873715D01*
X45955857Y-41910000D01*
X46028429Y-41982572D01*
X46064714Y-42091429D01*
X46064714Y-42272857D01*
X45847000Y-41547143D02*
X45847000Y-41184286D01*
X46064714Y-41619715D02*
X45302714Y-41365715D01*
X46064714Y-41111715D01*
X45302714Y-40966572D02*
X45302714Y-40531143D01*
X46064714Y-40748857D02*
X45302714Y-40748857D01*
X42799000Y-42817143D02*
X42762714Y-42889714D01*
X42762714Y-42998571D01*
X42799000Y-43107428D01*
X42871571Y-43180000D01*
X42944143Y-43216285D01*
X43089286Y-43252571D01*
X43198143Y-43252571D01*
X43343286Y-43216285D01*
X43415857Y-43180000D01*
X43488429Y-43107428D01*
X43524714Y-42998571D01*
X43524714Y-42926000D01*
X43488429Y-42817143D01*
X43452143Y-42780857D01*
X43198143Y-42780857D01*
X43198143Y-42926000D01*
X43524714Y-42454285D02*
X42762714Y-42454285D01*
X42762714Y-42164000D01*
X42799000Y-42091428D01*
X42835286Y-42055143D01*
X42907857Y-42018857D01*
X43016714Y-42018857D01*
X43089286Y-42055143D01*
X43125571Y-42091428D01*
X43161857Y-42164000D01*
X43161857Y-42454285D01*
X43524714Y-41293143D02*
X43524714Y-41728571D01*
X43524714Y-41510857D02*
X42762714Y-41510857D01*
X42871571Y-41583428D01*
X42944143Y-41656000D01*
X42980429Y-41728571D01*
X43089286Y-40857714D02*
X43053000Y-40930286D01*
X43016714Y-40966571D01*
X42944143Y-41002857D01*
X42907857Y-41002857D01*
X42835286Y-40966571D01*
X42799000Y-40930286D01*
X42762714Y-40857714D01*
X42762714Y-40712571D01*
X42799000Y-40640000D01*
X42835286Y-40603714D01*
X42907857Y-40567429D01*
X42944143Y-40567429D01*
X43016714Y-40603714D01*
X43053000Y-40640000D01*
X43089286Y-40712571D01*
X43089286Y-40857714D01*
X43125571Y-40930286D01*
X43161857Y-40966571D01*
X43234429Y-41002857D01*
X43379571Y-41002857D01*
X43452143Y-40966571D01*
X43488429Y-40930286D01*
X43524714Y-40857714D01*
X43524714Y-40712571D01*
X43488429Y-40640000D01*
X43452143Y-40603714D01*
X43379571Y-40567429D01*
X43234429Y-40567429D01*
X43161857Y-40603714D01*
X43125571Y-40640000D01*
X43089286Y-40712571D01*
X40259000Y-42817143D02*
X40222714Y-42889714D01*
X40222714Y-42998571D01*
X40259000Y-43107428D01*
X40331571Y-43180000D01*
X40404143Y-43216285D01*
X40549286Y-43252571D01*
X40658143Y-43252571D01*
X40803286Y-43216285D01*
X40875857Y-43180000D01*
X40948429Y-43107428D01*
X40984714Y-42998571D01*
X40984714Y-42926000D01*
X40948429Y-42817143D01*
X40912143Y-42780857D01*
X40658143Y-42780857D01*
X40658143Y-42926000D01*
X40984714Y-42454285D02*
X40222714Y-42454285D01*
X40222714Y-42164000D01*
X40259000Y-42091428D01*
X40295286Y-42055143D01*
X40367857Y-42018857D01*
X40476714Y-42018857D01*
X40549286Y-42055143D01*
X40585571Y-42091428D01*
X40621857Y-42164000D01*
X40621857Y-42454285D01*
X40984714Y-41293143D02*
X40984714Y-41728571D01*
X40984714Y-41510857D02*
X40222714Y-41510857D01*
X40331571Y-41583428D01*
X40404143Y-41656000D01*
X40440429Y-41728571D01*
X40222714Y-41039143D02*
X40222714Y-40567429D01*
X40513000Y-40821429D01*
X40513000Y-40712571D01*
X40549286Y-40640000D01*
X40585571Y-40603714D01*
X40658143Y-40567429D01*
X40839571Y-40567429D01*
X40912143Y-40603714D01*
X40948429Y-40640000D01*
X40984714Y-40712571D01*
X40984714Y-40930286D01*
X40948429Y-41002857D01*
X40912143Y-41039143D01*
X76726143Y-40585571D02*
X76762429Y-40621857D01*
X76798714Y-40730714D01*
X76798714Y-40803285D01*
X76762429Y-40912142D01*
X76689857Y-40984714D01*
X76617286Y-41020999D01*
X76472143Y-41057285D01*
X76363286Y-41057285D01*
X76218143Y-41020999D01*
X76145571Y-40984714D01*
X76073000Y-40912142D01*
X76036714Y-40803285D01*
X76036714Y-40730714D01*
X76073000Y-40621857D01*
X76109286Y-40585571D01*
X76798714Y-39896142D02*
X76798714Y-40258999D01*
X76036714Y-40258999D01*
X76798714Y-39642142D02*
X76036714Y-39642142D01*
X76798714Y-39206714D02*
X76363286Y-39533285D01*
X76036714Y-39206714D02*
X76472143Y-39642142D01*
X76036714Y-35777715D02*
X76798714Y-35523715D01*
X76036714Y-35269715D01*
X76508429Y-35015714D02*
X76508429Y-34435143D01*
X76798714Y-34725429D02*
X76218143Y-34725429D01*
X76798714Y-38408428D02*
X76036714Y-38408428D01*
X76036714Y-38227000D01*
X76073000Y-38118143D01*
X76145571Y-38045571D01*
X76218143Y-38009286D01*
X76363286Y-37973000D01*
X76472143Y-37973000D01*
X76617286Y-38009286D01*
X76689857Y-38045571D01*
X76762429Y-38118143D01*
X76798714Y-38227000D01*
X76798714Y-38408428D01*
X76581000Y-37682714D02*
X76581000Y-37319857D01*
X76798714Y-37755286D02*
X76036714Y-37501286D01*
X76798714Y-37247286D01*
X76036714Y-37102143D02*
X76036714Y-36666714D01*
X76798714Y-36884428D02*
X76036714Y-36884428D01*
X67400714Y-35777715D02*
X68162714Y-35523715D01*
X67400714Y-35269715D01*
X67872429Y-35015714D02*
X67872429Y-34435143D01*
X68162714Y-34725429D02*
X67582143Y-34725429D01*
X76073000Y-43252572D02*
X76036714Y-43325143D01*
X76036714Y-43434000D01*
X76073000Y-43542857D01*
X76145571Y-43615429D01*
X76218143Y-43651714D01*
X76363286Y-43688000D01*
X76472143Y-43688000D01*
X76617286Y-43651714D01*
X76689857Y-43615429D01*
X76762429Y-43542857D01*
X76798714Y-43434000D01*
X76798714Y-43361429D01*
X76762429Y-43252572D01*
X76726143Y-43216286D01*
X76472143Y-43216286D01*
X76472143Y-43361429D01*
X76798714Y-42889714D02*
X76036714Y-42889714D01*
X76798714Y-42454286D01*
X76036714Y-42454286D01*
X76798714Y-42091428D02*
X76036714Y-42091428D01*
X76036714Y-41910000D01*
X76073000Y-41801143D01*
X76145571Y-41728571D01*
X76218143Y-41692286D01*
X76363286Y-41656000D01*
X76472143Y-41656000D01*
X76617286Y-41692286D01*
X76689857Y-41728571D01*
X76762429Y-41801143D01*
X76798714Y-41910000D01*
X76798714Y-42091428D01*
X67437000Y-42998572D02*
X67400714Y-43071143D01*
X67400714Y-43180000D01*
X67437000Y-43288857D01*
X67509571Y-43361429D01*
X67582143Y-43397714D01*
X67727286Y-43434000D01*
X67836143Y-43434000D01*
X67981286Y-43397714D01*
X68053857Y-43361429D01*
X68126429Y-43288857D01*
X68162714Y-43180000D01*
X68162714Y-43107429D01*
X68126429Y-42998572D01*
X68090143Y-42962286D01*
X67836143Y-42962286D01*
X67836143Y-43107429D01*
X68162714Y-42635714D02*
X67400714Y-42635714D01*
X68162714Y-42200286D01*
X67400714Y-42200286D01*
X68162714Y-41837428D02*
X67400714Y-41837428D01*
X67400714Y-41656000D01*
X67437000Y-41547143D01*
X67509571Y-41474571D01*
X67582143Y-41438286D01*
X67727286Y-41402000D01*
X67836143Y-41402000D01*
X67981286Y-41438286D01*
X68053857Y-41474571D01*
X68126429Y-41547143D01*
X68162714Y-41656000D01*
X68162714Y-41837428D01*
X68090143Y-40331571D02*
X68126429Y-40367857D01*
X68162714Y-40476714D01*
X68162714Y-40549285D01*
X68126429Y-40658142D01*
X68053857Y-40730714D01*
X67981286Y-40766999D01*
X67836143Y-40803285D01*
X67727286Y-40803285D01*
X67582143Y-40766999D01*
X67509571Y-40730714D01*
X67437000Y-40658142D01*
X67400714Y-40549285D01*
X67400714Y-40476714D01*
X67437000Y-40367857D01*
X67473286Y-40331571D01*
X68162714Y-39642142D02*
X68162714Y-40004999D01*
X67400714Y-40004999D01*
X68162714Y-39388142D02*
X67400714Y-39388142D01*
X68162714Y-38952714D02*
X67727286Y-39279285D01*
X67400714Y-38952714D02*
X67836143Y-39388142D01*
X68162714Y-38154428D02*
X67400714Y-38154428D01*
X67400714Y-37973000D01*
X67437000Y-37864143D01*
X67509571Y-37791571D01*
X67582143Y-37755286D01*
X67727286Y-37719000D01*
X67836143Y-37719000D01*
X67981286Y-37755286D01*
X68053857Y-37791571D01*
X68126429Y-37864143D01*
X68162714Y-37973000D01*
X68162714Y-38154428D01*
X67945000Y-37428714D02*
X67945000Y-37065857D01*
X68162714Y-37501286D02*
X67400714Y-37247286D01*
X68162714Y-36993286D01*
X67400714Y-36848143D02*
X67400714Y-36412714D01*
X68162714Y-36630428D02*
X67400714Y-36630428D01*
D13*
X24686381Y-52705000D02*
X24565429Y-52644524D01*
X24384000Y-52644524D01*
X24202572Y-52705000D01*
X24081619Y-52825952D01*
X24021143Y-52946905D01*
X23960667Y-53188810D01*
X23960667Y-53370238D01*
X24021143Y-53612143D01*
X24081619Y-53733095D01*
X24202572Y-53854048D01*
X24384000Y-53914524D01*
X24504952Y-53914524D01*
X24686381Y-53854048D01*
X24746857Y-53793571D01*
X24746857Y-53370238D01*
X24504952Y-53370238D01*
X25291143Y-53914524D02*
X25291143Y-52644524D01*
X26016857Y-53914524D01*
X26016857Y-52644524D01*
X26621619Y-53914524D02*
X26621619Y-52644524D01*
X26924000Y-52644524D01*
X27105428Y-52705000D01*
X27226381Y-52825952D01*
X27286857Y-52946905D01*
X27347333Y-53188810D01*
X27347333Y-53370238D01*
X27286857Y-53612143D01*
X27226381Y-53733095D01*
X27105428Y-53854048D01*
X26924000Y-53914524D01*
X26621619Y-53914524D01*
X29270476Y-52644524D02*
X29693810Y-53914524D01*
X30117143Y-52644524D01*
X30540476Y-53430714D02*
X31508095Y-53430714D01*
X31024285Y-53914524D02*
X31024285Y-52946905D01*
D15*
X70400000Y-25460000D02*
X19600000Y-25460000D01*
X22140000Y-30540000D02*
X70400000Y-30540000D01*
X70400000Y-25460000D02*
X70400000Y-30540000D01*
X19600000Y-25460000D02*
X19600000Y-28000000D01*
X19320000Y-29270000D02*
X19320000Y-30820000D01*
X19600000Y-28000000D02*
X22140000Y-28000000D01*
X22140000Y-28000000D02*
X22140000Y-30540000D01*
X19320000Y-30820000D02*
X20870000Y-30820000D01*
D16*
X12799500Y-32249120D02*
X12799500Y-41250880D01*
X12799380Y-41250880D02*
X22500240Y-41250880D01*
X22500240Y-41250880D02*
X22500240Y-32249120D01*
X22500240Y-32249120D02*
X12799380Y-32249120D01*
X27940000Y-51725000D02*
X27940000Y-52225000D01*
X32440000Y-47725000D02*
G75*
G03X32440000Y-47725000I-2000000J0D01*
G01*
X27440000Y-47725000D02*
G75*
G03X27440000Y-47725000I-2000000J0D01*
G01*
X22940000Y-50225000D02*
X32940000Y-50225000D01*
X22940000Y-45325000D02*
X32940000Y-45325000D01*
X22940000Y-51725000D02*
X32940000Y-51725000D01*
X22940000Y-52225000D02*
X32940000Y-52225000D01*
X32940000Y-52225000D02*
X32940000Y-42425000D01*
X32940000Y-42425000D02*
X22940000Y-42425000D01*
X22940000Y-42425000D02*
X22940000Y-52225000D01*
D12*
X68901200Y-33699020D02*
X68901200Y-44300980D01*
X69299980Y-44300980D02*
X69299980Y-33699020D01*
X74600960Y-44300980D02*
X74600960Y-33699020D01*
X75098800Y-33699020D02*
X75098800Y-44300980D01*
X74600960Y-36503180D02*
X75098800Y-36503180D01*
X74600960Y-39000000D02*
X75098800Y-39000000D01*
X75098800Y-44097780D02*
X74600960Y-44097780D01*
X74600960Y-33899680D02*
X75098800Y-33899680D01*
X75098800Y-41496820D02*
X74600960Y-41496820D01*
X75098800Y-33701560D02*
X68901200Y-33701560D01*
X68901200Y-44295900D02*
X75098800Y-44295900D01*
D15*
X58420000Y-33655000D02*
X55880000Y-33655000D01*
X58420000Y-33655000D02*
X58420000Y-34290000D01*
X58420000Y-34290000D02*
X59055000Y-34290000D01*
X55880000Y-34925000D02*
X55880000Y-33655000D01*
X59055000Y-34290000D02*
X60960000Y-34290000D01*
X60960000Y-34290000D02*
X60960000Y-33655000D01*
X60960000Y-33655000D02*
X63500000Y-33655000D01*
X63500000Y-33655000D02*
X63500000Y-34925000D01*
X55880000Y-51435000D02*
X55880000Y-52705000D01*
X55880000Y-52705000D02*
X63500000Y-52705000D01*
X63500000Y-52705000D02*
X63500000Y-51435000D01*
D17*
G36*
X31268132Y-32003141D02*
X31457330Y-32003704D01*
X31639803Y-32004553D01*
X31812802Y-32005693D01*
X31973580Y-32007121D01*
X32119388Y-32008837D01*
X32247478Y-32010843D01*
X32355101Y-32013137D01*
X32439511Y-32015719D01*
X32497958Y-32018591D01*
X32527694Y-32021751D01*
X32529045Y-32022101D01*
X32602650Y-32057801D01*
X32656272Y-32110954D01*
X32689256Y-32175582D01*
X32700948Y-32245706D01*
X32690692Y-32315346D01*
X32657833Y-32378525D01*
X32601717Y-32429264D01*
X32575218Y-32443553D01*
X32512819Y-32472312D01*
X32512409Y-33954141D01*
X32512000Y-35435969D01*
X32939194Y-36176641D01*
X33029737Y-36333615D01*
X33132897Y-36512444D01*
X33245416Y-36707483D01*
X33364038Y-36913090D01*
X33485507Y-37123620D01*
X33606568Y-37333429D01*
X33723963Y-37536874D01*
X33834437Y-37728312D01*
X33883756Y-37813770D01*
X33972967Y-37968722D01*
X34057309Y-38115946D01*
X34135458Y-38253082D01*
X34206089Y-38377771D01*
X34267877Y-38487652D01*
X34319497Y-38580365D01*
X34359624Y-38653552D01*
X34386934Y-38704852D01*
X34400102Y-38731905D01*
X34401125Y-38735254D01*
X34393259Y-38755854D01*
X34370954Y-38800330D01*
X34336145Y-38865359D01*
X34290767Y-38947615D01*
X34236756Y-39043774D01*
X34176047Y-39150511D01*
X34110577Y-39264503D01*
X34042279Y-39382423D01*
X33973091Y-39500948D01*
X33904948Y-39616754D01*
X33839784Y-39726515D01*
X33779537Y-39826906D01*
X33726141Y-39914605D01*
X33681532Y-39986285D01*
X33647645Y-40038622D01*
X33626416Y-40068292D01*
X33622599Y-40072468D01*
X33575124Y-40116125D01*
X28400875Y-40116125D01*
X28353400Y-40072468D01*
X28336606Y-40050746D01*
X28306539Y-40005288D01*
X28265134Y-39939420D01*
X28214325Y-39856466D01*
X28156050Y-39759753D01*
X28092242Y-39652605D01*
X28024838Y-39538346D01*
X27955772Y-39420303D01*
X27886981Y-39301800D01*
X27820400Y-39186163D01*
X27757963Y-39076717D01*
X27701608Y-38976786D01*
X27653267Y-38889695D01*
X27614879Y-38818771D01*
X27588377Y-38767338D01*
X27575697Y-38738720D01*
X27574874Y-38734933D01*
X27581139Y-38719738D01*
X28079817Y-38719738D01*
X28354508Y-39195681D01*
X28629198Y-39671625D01*
X33346654Y-39671625D01*
X33621694Y-39194873D01*
X33896735Y-38718121D01*
X33788627Y-38532091D01*
X33740108Y-38448084D01*
X33689391Y-38359405D01*
X33642699Y-38276982D01*
X33608228Y-38215315D01*
X33535937Y-38084567D01*
X31520125Y-38084125D01*
X31815748Y-38381781D01*
X31895725Y-38462852D01*
X31968741Y-38537905D01*
X32031638Y-38603609D01*
X32081257Y-38656634D01*
X32114440Y-38693650D01*
X32127732Y-38710697D01*
X32135043Y-38748230D01*
X32122704Y-38783316D01*
X32097692Y-38819070D01*
X32057306Y-38863828D01*
X32008048Y-38911770D01*
X31956420Y-38957074D01*
X31908926Y-38993919D01*
X31872067Y-39016484D01*
X31857480Y-39020750D01*
X31835132Y-39010200D01*
X31793787Y-38978232D01*
X31732908Y-38924363D01*
X31651960Y-38848114D01*
X31550408Y-38749002D01*
X31508810Y-38707741D01*
X31194375Y-38394732D01*
X31194375Y-38829522D01*
X31194186Y-38960308D01*
X31193480Y-39063011D01*
X31192051Y-39141296D01*
X31189691Y-39198830D01*
X31186191Y-39239276D01*
X31181345Y-39266301D01*
X31174944Y-39283570D01*
X31168102Y-39293343D01*
X31151266Y-39306829D01*
X31125807Y-39315459D01*
X31085181Y-39320237D01*
X31022844Y-39322165D01*
X30978754Y-39322375D01*
X30905007Y-39321988D01*
X30856052Y-39319820D01*
X30824932Y-39314360D01*
X30804690Y-39304094D01*
X30788370Y-39287512D01*
X30782053Y-39279627D01*
X30771921Y-39265620D01*
X30764117Y-39249895D01*
X30758392Y-39228501D01*
X30754497Y-39197484D01*
X30752185Y-39152892D01*
X30751207Y-39090771D01*
X30751314Y-39007170D01*
X30752259Y-38898136D01*
X30753120Y-38819238D01*
X30754336Y-38707830D01*
X30755363Y-38607621D01*
X30756164Y-38522754D01*
X30756700Y-38457372D01*
X30756937Y-38415619D01*
X30756846Y-38401611D01*
X30745874Y-38412389D01*
X30715423Y-38442776D01*
X30668394Y-38489863D01*
X30607693Y-38550739D01*
X30536221Y-38622496D01*
X30456882Y-38702225D01*
X30455221Y-38703894D01*
X30373795Y-38784741D01*
X30297946Y-38858133D01*
X30231010Y-38920994D01*
X30176322Y-38970247D01*
X30137218Y-39002816D01*
X30117337Y-39015556D01*
X30096907Y-39016152D01*
X30072469Y-39005567D01*
X30039225Y-38980398D01*
X29992375Y-38937244D01*
X29954618Y-38900190D01*
X29892367Y-38835657D01*
X29852516Y-38787575D01*
X29832581Y-38752681D01*
X29829125Y-38735521D01*
X29834451Y-38717558D01*
X29851771Y-38690344D01*
X29883090Y-38651608D01*
X29930416Y-38599079D01*
X29995757Y-38530484D01*
X30081120Y-38443551D01*
X30134566Y-38389867D01*
X30440007Y-38084125D01*
X30012557Y-38084125D01*
X29873238Y-38084235D01*
X29762412Y-38083593D01*
X29676828Y-38080739D01*
X29613238Y-38074213D01*
X29568392Y-38062556D01*
X29539040Y-38044308D01*
X29521932Y-38018009D01*
X29513820Y-37982200D01*
X29511454Y-37935420D01*
X29511583Y-37876211D01*
X29511625Y-37859107D01*
X29511249Y-37797737D01*
X29512298Y-37748980D01*
X29518033Y-37711390D01*
X29531717Y-37683522D01*
X29556611Y-37663933D01*
X29595977Y-37651178D01*
X29653078Y-37643811D01*
X29731176Y-37640388D01*
X29833532Y-37639465D01*
X29963409Y-37639596D01*
X30007196Y-37639625D01*
X30439267Y-37639625D01*
X30126258Y-37325189D01*
X30036898Y-37234371D01*
X29959404Y-37153517D01*
X29896051Y-37085128D01*
X29849114Y-37031706D01*
X29820868Y-36995753D01*
X29813250Y-36980990D01*
X29824746Y-36954392D01*
X29855271Y-36913976D01*
X29898876Y-36865523D01*
X29949613Y-36814817D01*
X30001534Y-36767641D01*
X30048690Y-36729778D01*
X30085134Y-36707010D01*
X30099177Y-36703000D01*
X30118107Y-36709738D01*
X30149067Y-36731065D01*
X30193936Y-36768648D01*
X30254590Y-36824153D01*
X30332908Y-36899247D01*
X30430767Y-36995597D01*
X30447345Y-37012083D01*
X30757812Y-37321166D01*
X30753134Y-36896775D01*
X30751453Y-36758249D01*
X30750794Y-36648203D01*
X30752651Y-36563374D01*
X30758515Y-36500496D01*
X30769879Y-36456302D01*
X30788236Y-36427528D01*
X30815078Y-36410909D01*
X30851897Y-36403179D01*
X30900186Y-36401073D01*
X30961436Y-36401325D01*
X30979546Y-36401375D01*
X31059777Y-36402496D01*
X31114137Y-36406371D01*
X31148445Y-36413763D01*
X31168519Y-36425438D01*
X31169428Y-36426321D01*
X31176921Y-36437469D01*
X31182780Y-36456540D01*
X31187198Y-36487092D01*
X31190365Y-36532686D01*
X31192473Y-36596878D01*
X31193714Y-36683230D01*
X31194279Y-36795298D01*
X31194375Y-36890142D01*
X31194375Y-37329017D01*
X31508810Y-37016008D01*
X31612977Y-36913240D01*
X31697018Y-36832457D01*
X31762393Y-36772357D01*
X31810558Y-36731639D01*
X31842973Y-36709001D01*
X31859435Y-36703000D01*
X31891640Y-36715050D01*
X31939929Y-36749515D01*
X31999031Y-36802218D01*
X32065277Y-36868807D01*
X32108369Y-36920289D01*
X32130644Y-36960492D01*
X32134437Y-36993242D01*
X32127732Y-37013052D01*
X32112448Y-37032412D01*
X32077823Y-37070842D01*
X32027016Y-37125013D01*
X31963186Y-37191594D01*
X31889491Y-37267256D01*
X31815748Y-37341968D01*
X31520125Y-37639625D01*
X33276589Y-37639625D01*
X33245294Y-37588031D01*
X33210471Y-37529823D01*
X33164078Y-37451049D01*
X33107623Y-37354349D01*
X33042614Y-37242365D01*
X32970559Y-37117736D01*
X32892966Y-36983105D01*
X32811344Y-36841113D01*
X32727201Y-36694400D01*
X32642044Y-36545608D01*
X32557382Y-36397378D01*
X32474723Y-36252351D01*
X32395576Y-36113167D01*
X32321448Y-35982468D01*
X32253847Y-35862896D01*
X32194282Y-35757090D01*
X32144260Y-35667693D01*
X32105291Y-35597345D01*
X32078882Y-35548688D01*
X32066540Y-35524361D01*
X32065896Y-35522659D01*
X32063786Y-35499630D01*
X32061779Y-35447011D01*
X32059895Y-35366962D01*
X32058154Y-35261643D01*
X32056575Y-35133212D01*
X32055179Y-34983830D01*
X32053985Y-34815656D01*
X32053013Y-34630850D01*
X32052282Y-34431573D01*
X32051814Y-34219983D01*
X32051627Y-33998240D01*
X32051625Y-33968636D01*
X32051625Y-32464375D01*
X29924989Y-32464375D01*
X29916437Y-35536187D01*
X29572729Y-36131500D01*
X29483018Y-36286868D01*
X29383473Y-36459244D01*
X29278521Y-36640961D01*
X29172590Y-36824356D01*
X29070106Y-37001764D01*
X28975496Y-37165521D01*
X28907940Y-37282437D01*
X28762356Y-37534399D01*
X28630857Y-37762050D01*
X28513664Y-37965010D01*
X28410995Y-38142897D01*
X28323071Y-38295331D01*
X28250110Y-38421931D01*
X28192332Y-38522316D01*
X28149957Y-38596107D01*
X28123205Y-38642921D01*
X28118081Y-38651962D01*
X28079817Y-38719738D01*
X27581139Y-38719738D01*
X27582593Y-38716214D01*
X27604661Y-38673010D01*
X27639444Y-38608273D01*
X27685311Y-38524953D01*
X27740628Y-38425999D01*
X27803763Y-38314362D01*
X27873083Y-38192993D01*
X27917919Y-38115074D01*
X28004007Y-37965890D01*
X28096884Y-37804959D01*
X28192742Y-37638876D01*
X28287776Y-37474236D01*
X28378179Y-37317633D01*
X28460145Y-37175663D01*
X28526823Y-37060187D01*
X28598062Y-36936821D01*
X28681259Y-36792738D01*
X28772500Y-36634716D01*
X28867870Y-36469537D01*
X28963455Y-36303979D01*
X29055341Y-36144823D01*
X29128341Y-36018372D01*
X29464000Y-35436931D01*
X29463590Y-33954622D01*
X29463180Y-32472312D01*
X29400781Y-32443553D01*
X29335983Y-32398866D01*
X29294683Y-32339549D01*
X29276225Y-32271581D01*
X29279955Y-32200941D01*
X29305218Y-32133606D01*
X29351358Y-32075557D01*
X29417721Y-32032771D01*
X29446954Y-32022101D01*
X29473501Y-32018910D01*
X29529048Y-32016009D01*
X29610847Y-32013396D01*
X29716151Y-32011071D01*
X29842211Y-32009035D01*
X29986279Y-32007288D01*
X30145606Y-32005830D01*
X30317446Y-32004660D01*
X30499049Y-32003780D01*
X30687667Y-32003187D01*
X30880552Y-32002883D01*
X31074957Y-32002868D01*
X31268132Y-32003141D01*
X31268132Y-32003141D01*
G37*
X31268132Y-32003141D02*
X31457330Y-32003704D01*
X31639803Y-32004553D01*
X31812802Y-32005693D01*
X31973580Y-32007121D01*
X32119388Y-32008837D01*
X32247478Y-32010843D01*
X32355101Y-32013137D01*
X32439511Y-32015719D01*
X32497958Y-32018591D01*
X32527694Y-32021751D01*
X32529045Y-32022101D01*
X32602650Y-32057801D01*
X32656272Y-32110954D01*
X32689256Y-32175582D01*
X32700948Y-32245706D01*
X32690692Y-32315346D01*
X32657833Y-32378525D01*
X32601717Y-32429264D01*
X32575218Y-32443553D01*
X32512819Y-32472312D01*
X32512409Y-33954141D01*
X32512000Y-35435969D01*
X32939194Y-36176641D01*
X33029737Y-36333615D01*
X33132897Y-36512444D01*
X33245416Y-36707483D01*
X33364038Y-36913090D01*
X33485507Y-37123620D01*
X33606568Y-37333429D01*
X33723963Y-37536874D01*
X33834437Y-37728312D01*
X33883756Y-37813770D01*
X33972967Y-37968722D01*
X34057309Y-38115946D01*
X34135458Y-38253082D01*
X34206089Y-38377771D01*
X34267877Y-38487652D01*
X34319497Y-38580365D01*
X34359624Y-38653552D01*
X34386934Y-38704852D01*
X34400102Y-38731905D01*
X34401125Y-38735254D01*
X34393259Y-38755854D01*
X34370954Y-38800330D01*
X34336145Y-38865359D01*
X34290767Y-38947615D01*
X34236756Y-39043774D01*
X34176047Y-39150511D01*
X34110577Y-39264503D01*
X34042279Y-39382423D01*
X33973091Y-39500948D01*
X33904948Y-39616754D01*
X33839784Y-39726515D01*
X33779537Y-39826906D01*
X33726141Y-39914605D01*
X33681532Y-39986285D01*
X33647645Y-40038622D01*
X33626416Y-40068292D01*
X33622599Y-40072468D01*
X33575124Y-40116125D01*
X28400875Y-40116125D01*
X28353400Y-40072468D01*
X28336606Y-40050746D01*
X28306539Y-40005288D01*
X28265134Y-39939420D01*
X28214325Y-39856466D01*
X28156050Y-39759753D01*
X28092242Y-39652605D01*
X28024838Y-39538346D01*
X27955772Y-39420303D01*
X27886981Y-39301800D01*
X27820400Y-39186163D01*
X27757963Y-39076717D01*
X27701608Y-38976786D01*
X27653267Y-38889695D01*
X27614879Y-38818771D01*
X27588377Y-38767338D01*
X27575697Y-38738720D01*
X27574874Y-38734933D01*
X27581139Y-38719738D01*
X28079817Y-38719738D01*
X28354508Y-39195681D01*
X28629198Y-39671625D01*
X33346654Y-39671625D01*
X33621694Y-39194873D01*
X33896735Y-38718121D01*
X33788627Y-38532091D01*
X33740108Y-38448084D01*
X33689391Y-38359405D01*
X33642699Y-38276982D01*
X33608228Y-38215315D01*
X33535937Y-38084567D01*
X31520125Y-38084125D01*
X31815748Y-38381781D01*
X31895725Y-38462852D01*
X31968741Y-38537905D01*
X32031638Y-38603609D01*
X32081257Y-38656634D01*
X32114440Y-38693650D01*
X32127732Y-38710697D01*
X32135043Y-38748230D01*
X32122704Y-38783316D01*
X32097692Y-38819070D01*
X32057306Y-38863828D01*
X32008048Y-38911770D01*
X31956420Y-38957074D01*
X31908926Y-38993919D01*
X31872067Y-39016484D01*
X31857480Y-39020750D01*
X31835132Y-39010200D01*
X31793787Y-38978232D01*
X31732908Y-38924363D01*
X31651960Y-38848114D01*
X31550408Y-38749002D01*
X31508810Y-38707741D01*
X31194375Y-38394732D01*
X31194375Y-38829522D01*
X31194186Y-38960308D01*
X31193480Y-39063011D01*
X31192051Y-39141296D01*
X31189691Y-39198830D01*
X31186191Y-39239276D01*
X31181345Y-39266301D01*
X31174944Y-39283570D01*
X31168102Y-39293343D01*
X31151266Y-39306829D01*
X31125807Y-39315459D01*
X31085181Y-39320237D01*
X31022844Y-39322165D01*
X30978754Y-39322375D01*
X30905007Y-39321988D01*
X30856052Y-39319820D01*
X30824932Y-39314360D01*
X30804690Y-39304094D01*
X30788370Y-39287512D01*
X30782053Y-39279627D01*
X30771921Y-39265620D01*
X30764117Y-39249895D01*
X30758392Y-39228501D01*
X30754497Y-39197484D01*
X30752185Y-39152892D01*
X30751207Y-39090771D01*
X30751314Y-39007170D01*
X30752259Y-38898136D01*
X30753120Y-38819238D01*
X30754336Y-38707830D01*
X30755363Y-38607621D01*
X30756164Y-38522754D01*
X30756700Y-38457372D01*
X30756937Y-38415619D01*
X30756846Y-38401611D01*
X30745874Y-38412389D01*
X30715423Y-38442776D01*
X30668394Y-38489863D01*
X30607693Y-38550739D01*
X30536221Y-38622496D01*
X30456882Y-38702225D01*
X30455221Y-38703894D01*
X30373795Y-38784741D01*
X30297946Y-38858133D01*
X30231010Y-38920994D01*
X30176322Y-38970247D01*
X30137218Y-39002816D01*
X30117337Y-39015556D01*
X30096907Y-39016152D01*
X30072469Y-39005567D01*
X30039225Y-38980398D01*
X29992375Y-38937244D01*
X29954618Y-38900190D01*
X29892367Y-38835657D01*
X29852516Y-38787575D01*
X29832581Y-38752681D01*
X29829125Y-38735521D01*
X29834451Y-38717558D01*
X29851771Y-38690344D01*
X29883090Y-38651608D01*
X29930416Y-38599079D01*
X29995757Y-38530484D01*
X30081120Y-38443551D01*
X30134566Y-38389867D01*
X30440007Y-38084125D01*
X30012557Y-38084125D01*
X29873238Y-38084235D01*
X29762412Y-38083593D01*
X29676828Y-38080739D01*
X29613238Y-38074213D01*
X29568392Y-38062556D01*
X29539040Y-38044308D01*
X29521932Y-38018009D01*
X29513820Y-37982200D01*
X29511454Y-37935420D01*
X29511583Y-37876211D01*
X29511625Y-37859107D01*
X29511249Y-37797737D01*
X29512298Y-37748980D01*
X29518033Y-37711390D01*
X29531717Y-37683522D01*
X29556611Y-37663933D01*
X29595977Y-37651178D01*
X29653078Y-37643811D01*
X29731176Y-37640388D01*
X29833532Y-37639465D01*
X29963409Y-37639596D01*
X30007196Y-37639625D01*
X30439267Y-37639625D01*
X30126258Y-37325189D01*
X30036898Y-37234371D01*
X29959404Y-37153517D01*
X29896051Y-37085128D01*
X29849114Y-37031706D01*
X29820868Y-36995753D01*
X29813250Y-36980990D01*
X29824746Y-36954392D01*
X29855271Y-36913976D01*
X29898876Y-36865523D01*
X29949613Y-36814817D01*
X30001534Y-36767641D01*
X30048690Y-36729778D01*
X30085134Y-36707010D01*
X30099177Y-36703000D01*
X30118107Y-36709738D01*
X30149067Y-36731065D01*
X30193936Y-36768648D01*
X30254590Y-36824153D01*
X30332908Y-36899247D01*
X30430767Y-36995597D01*
X30447345Y-37012083D01*
X30757812Y-37321166D01*
X30753134Y-36896775D01*
X30751453Y-36758249D01*
X30750794Y-36648203D01*
X30752651Y-36563374D01*
X30758515Y-36500496D01*
X30769879Y-36456302D01*
X30788236Y-36427528D01*
X30815078Y-36410909D01*
X30851897Y-36403179D01*
X30900186Y-36401073D01*
X30961436Y-36401325D01*
X30979546Y-36401375D01*
X31059777Y-36402496D01*
X31114137Y-36406371D01*
X31148445Y-36413763D01*
X31168519Y-36425438D01*
X31169428Y-36426321D01*
X31176921Y-36437469D01*
X31182780Y-36456540D01*
X31187198Y-36487092D01*
X31190365Y-36532686D01*
X31192473Y-36596878D01*
X31193714Y-36683230D01*
X31194279Y-36795298D01*
X31194375Y-36890142D01*
X31194375Y-37329017D01*
X31508810Y-37016008D01*
X31612977Y-36913240D01*
X31697018Y-36832457D01*
X31762393Y-36772357D01*
X31810558Y-36731639D01*
X31842973Y-36709001D01*
X31859435Y-36703000D01*
X31891640Y-36715050D01*
X31939929Y-36749515D01*
X31999031Y-36802218D01*
X32065277Y-36868807D01*
X32108369Y-36920289D01*
X32130644Y-36960492D01*
X32134437Y-36993242D01*
X32127732Y-37013052D01*
X32112448Y-37032412D01*
X32077823Y-37070842D01*
X32027016Y-37125013D01*
X31963186Y-37191594D01*
X31889491Y-37267256D01*
X31815748Y-37341968D01*
X31520125Y-37639625D01*
X33276589Y-37639625D01*
X33245294Y-37588031D01*
X33210471Y-37529823D01*
X33164078Y-37451049D01*
X33107623Y-37354349D01*
X33042614Y-37242365D01*
X32970559Y-37117736D01*
X32892966Y-36983105D01*
X32811344Y-36841113D01*
X32727201Y-36694400D01*
X32642044Y-36545608D01*
X32557382Y-36397378D01*
X32474723Y-36252351D01*
X32395576Y-36113167D01*
X32321448Y-35982468D01*
X32253847Y-35862896D01*
X32194282Y-35757090D01*
X32144260Y-35667693D01*
X32105291Y-35597345D01*
X32078882Y-35548688D01*
X32066540Y-35524361D01*
X32065896Y-35522659D01*
X32063786Y-35499630D01*
X32061779Y-35447011D01*
X32059895Y-35366962D01*
X32058154Y-35261643D01*
X32056575Y-35133212D01*
X32055179Y-34983830D01*
X32053985Y-34815656D01*
X32053013Y-34630850D01*
X32052282Y-34431573D01*
X32051814Y-34219983D01*
X32051627Y-33998240D01*
X32051625Y-33968636D01*
X32051625Y-32464375D01*
X29924989Y-32464375D01*
X29916437Y-35536187D01*
X29572729Y-36131500D01*
X29483018Y-36286868D01*
X29383473Y-36459244D01*
X29278521Y-36640961D01*
X29172590Y-36824356D01*
X29070106Y-37001764D01*
X28975496Y-37165521D01*
X28907940Y-37282437D01*
X28762356Y-37534399D01*
X28630857Y-37762050D01*
X28513664Y-37965010D01*
X28410995Y-38142897D01*
X28323071Y-38295331D01*
X28250110Y-38421931D01*
X28192332Y-38522316D01*
X28149957Y-38596107D01*
X28123205Y-38642921D01*
X28118081Y-38651962D01*
X28079817Y-38719738D01*
X27581139Y-38719738D01*
X27582593Y-38716214D01*
X27604661Y-38673010D01*
X27639444Y-38608273D01*
X27685311Y-38524953D01*
X27740628Y-38425999D01*
X27803763Y-38314362D01*
X27873083Y-38192993D01*
X27917919Y-38115074D01*
X28004007Y-37965890D01*
X28096884Y-37804959D01*
X28192742Y-37638876D01*
X28287776Y-37474236D01*
X28378179Y-37317633D01*
X28460145Y-37175663D01*
X28526823Y-37060187D01*
X28598062Y-36936821D01*
X28681259Y-36792738D01*
X28772500Y-36634716D01*
X28867870Y-36469537D01*
X28963455Y-36303979D01*
X29055341Y-36144823D01*
X29128341Y-36018372D01*
X29464000Y-35436931D01*
X29463590Y-33954622D01*
X29463180Y-32472312D01*
X29400781Y-32443553D01*
X29335983Y-32398866D01*
X29294683Y-32339549D01*
X29276225Y-32271581D01*
X29279955Y-32200941D01*
X29305218Y-32133606D01*
X29351358Y-32075557D01*
X29417721Y-32032771D01*
X29446954Y-32022101D01*
X29473501Y-32018910D01*
X29529048Y-32016009D01*
X29610847Y-32013396D01*
X29716151Y-32011071D01*
X29842211Y-32009035D01*
X29986279Y-32007288D01*
X30145606Y-32005830D01*
X30317446Y-32004660D01*
X30499049Y-32003780D01*
X30687667Y-32003187D01*
X30880552Y-32002883D01*
X31074957Y-32002868D01*
X31268132Y-32003141D01*
D15*
X59142381Y-47505476D02*
X59142381Y-46838809D01*
X60142381Y-47267381D01*
X59475714Y-46029285D02*
X60142381Y-46029285D01*
X59094762Y-46267381D02*
X59809048Y-46505476D01*
X59809048Y-45886428D01*
X59856667Y-45553095D02*
X59856667Y-45076904D01*
X60142381Y-45648333D02*
X59142381Y-45315000D01*
X60142381Y-44981666D01*
X60142381Y-44648333D02*
X59142381Y-44648333D01*
X59618571Y-44648333D02*
X59618571Y-44076904D01*
X60142381Y-44076904D02*
X59142381Y-44076904D01*
X60047143Y-43029285D02*
X60094762Y-43076904D01*
X60142381Y-43219761D01*
X60142381Y-43314999D01*
X60094762Y-43457857D01*
X59999524Y-43553095D01*
X59904286Y-43600714D01*
X59713810Y-43648333D01*
X59570952Y-43648333D01*
X59380476Y-43600714D01*
X59285238Y-43553095D01*
X59190000Y-43457857D01*
X59142381Y-43314999D01*
X59142381Y-43219761D01*
X59190000Y-43076904D01*
X59237619Y-43029285D01*
X60142381Y-42076904D02*
X60142381Y-42648333D01*
X60142381Y-42362619D02*
X59142381Y-42362619D01*
X59285238Y-42457857D01*
X59380476Y-42553095D01*
X59428095Y-42648333D01*
X59237619Y-41695952D02*
X59190000Y-41648333D01*
X59142381Y-41553095D01*
X59142381Y-41314999D01*
X59190000Y-41219761D01*
X59237619Y-41172142D01*
X59332857Y-41124523D01*
X59428095Y-41124523D01*
X59570952Y-41172142D01*
X60142381Y-41743571D01*
X60142381Y-41124523D01*
X59142381Y-40219761D02*
X59142381Y-40695952D01*
X59618571Y-40743571D01*
X59570952Y-40695952D01*
X59523333Y-40600714D01*
X59523333Y-40362618D01*
X59570952Y-40267380D01*
X59618571Y-40219761D01*
X59713810Y-40172142D01*
X59951905Y-40172142D01*
X60047143Y-40219761D01*
X60094762Y-40267380D01*
X60142381Y-40362618D01*
X60142381Y-40600714D01*
X60094762Y-40695952D01*
X60047143Y-40743571D01*
M02*
