M48
;DRILL file {KiCad 4.0.7-e0-6372~58~ubuntu16.04.1} date Wed Jul 19 19:33:57 2017
;FORMAT={-:-/ absolute / inch / decimal}
FMAT,2
INCH,TZ
T1C0.016
T2C0.031
T3C0.040
T4C0.043
T5C0.051
T6C0.118
T7C0.108
%
G90
G05
M72
T1
X1.47Y-1.115
X1.525Y-1.31
X1.75Y-1.31
X2.13Y-1.98
X2.15Y-1.31
X2.15Y-1.75
X2.42Y-1.51
X2.42Y-1.73
T2
X2.2Y-1.4
X2.2Y-1.5
X2.2Y-1.6
X2.2Y-1.7
X2.2Y-1.8
X2.2Y-1.9
X2.2Y-2.
X2.5Y-1.4
X2.5Y-1.5
X2.5Y-1.6
X2.5Y-1.7
X2.5Y-1.8
X2.5Y-1.9
X2.5Y-2.
T3
X0.8217Y-1.0524
X0.8217Y-1.1524
X0.9217Y-1.0524
X0.9217Y-1.1524
X1.0217Y-1.0524
X1.0217Y-1.1524
X1.1217Y-1.0524
X1.1217Y-1.1524
X1.2217Y-1.0524
X1.2217Y-1.1524
X1.3217Y-1.0524
X1.3217Y-1.1524
X1.4217Y-1.0524
X1.4217Y-1.1524
X1.5217Y-1.0524
X1.5217Y-1.1524
X1.6Y-1.4
X1.6Y-1.5
X1.6217Y-1.0524
X1.6217Y-1.1524
X1.7Y-1.4
X1.7Y-1.5
X1.7217Y-1.0524
X1.7217Y-1.1524
X1.8Y-1.4
X1.8Y-1.5
X1.8217Y-1.0524
X1.8217Y-1.1524
X1.9217Y-1.0524
X1.9217Y-1.1524
X2.0217Y-1.0524
X2.0217Y-1.1524
X2.1217Y-1.0524
X2.1217Y-1.1524
X2.2217Y-1.0524
X2.2217Y-1.1524
X2.3217Y-1.0524
X2.3217Y-1.1524
X2.4217Y-1.0524
X2.4217Y-1.1524
X2.5217Y-1.0524
X2.5217Y-1.1524
X2.6217Y-1.0524
X2.6217Y-1.1524
X2.7217Y-1.0524
X2.7217Y-1.1524
T4
X2.8346Y-1.3854
X2.8346Y-1.4854
X2.8346Y-1.5854
X2.8346Y-1.6854
T5
X1.0016Y-1.875
X1.1984Y-1.875
T6
X0.6181Y-1.4469
X0.7362Y-1.6319
X0.8543Y-1.4469
T7
X0.6299Y-1.1024
X0.6299Y-2.0079
X2.9134Y-1.1024
X2.9134Y-2.0079
T0
M30
