G04 #@! TF.FileFunction,Copper,L1,Top,Signal*
%FSLAX46Y46*%
G04 Gerber Fmt 4.6, Leading zero omitted, Abs format (unit mm)*
G04 Created by KiCad (PCBNEW 4.0.7-e0-6372~58~ubuntu16.04.1) date Wed Jul 19 19:33:52 2017*
%MOMM*%
%LPD*%
G01*
G04 APERTURE LIST*
%ADD10C,0.100000*%
%ADD11R,1.727200X1.727200*%
%ADD12O,1.727200X1.727200*%
%ADD13C,4.500000*%
%ADD14C,2.500000*%
%ADD15O,1.998980X1.998980*%
%ADD16R,1.998980X1.998980*%
%ADD17R,2.032000X2.032000*%
%ADD18O,2.032000X2.032000*%
%ADD19O,2.300000X1.600000*%
%ADD20C,0.600000*%
%ADD21C,0.250000*%
%ADD22C,0.254000*%
G04 APERTURE END LIST*
D10*
D11*
X20870000Y-29270000D03*
D12*
X20870000Y-26730000D03*
X23410000Y-29270000D03*
X23410000Y-26730000D03*
X25950000Y-29270000D03*
X25950000Y-26730000D03*
X28490000Y-29270000D03*
X28490000Y-26730000D03*
X31030000Y-29270000D03*
X31030000Y-26730000D03*
X33570000Y-29270000D03*
X33570000Y-26730000D03*
X36110000Y-29270000D03*
X36110000Y-26730000D03*
X38650000Y-29270000D03*
X38650000Y-26730000D03*
X41190000Y-29270000D03*
X41190000Y-26730000D03*
X43730000Y-29270000D03*
X43730000Y-26730000D03*
X46270000Y-29270000D03*
X46270000Y-26730000D03*
X48810000Y-29270000D03*
X48810000Y-26730000D03*
X51350000Y-29270000D03*
X51350000Y-26730000D03*
X53890000Y-29270000D03*
X53890000Y-26730000D03*
X56430000Y-29270000D03*
X56430000Y-26730000D03*
X58970000Y-29270000D03*
X58970000Y-26730000D03*
X61510000Y-29270000D03*
X61510000Y-26730000D03*
X64050000Y-29270000D03*
X64050000Y-26730000D03*
X66590000Y-29270000D03*
X66590000Y-26730000D03*
X69130000Y-29270000D03*
X69130000Y-26730000D03*
D13*
X21700140Y-36750000D03*
X15700660Y-36750000D03*
X18700400Y-41449000D03*
D14*
X25440000Y-47625000D03*
X30440000Y-47625000D03*
D15*
X72000000Y-42810000D03*
D16*
X72000000Y-35190000D03*
D15*
X72000000Y-37730000D03*
X72000000Y-40270000D03*
D17*
X45720000Y-35560000D03*
D18*
X45720000Y-38100000D03*
D17*
X40640000Y-35560000D03*
D18*
X40640000Y-38100000D03*
D17*
X43180000Y-35560000D03*
D18*
X43180000Y-38100000D03*
D19*
X55880000Y-35560000D03*
X55880000Y-38100000D03*
X55880000Y-40640000D03*
X55880000Y-43180000D03*
X55880000Y-45720000D03*
X55880000Y-48260000D03*
X55880000Y-50800000D03*
X63500000Y-50800000D03*
X63500000Y-48260000D03*
X63500000Y-45720000D03*
X63500000Y-43180000D03*
X63500000Y-40640000D03*
X63500000Y-38100000D03*
X63500000Y-35560000D03*
D20*
X54102000Y-50292000D03*
X54610000Y-44450000D03*
X61468000Y-43942000D03*
X61468000Y-38354000D03*
X54610000Y-33274000D03*
X44450000Y-33274000D03*
X37338000Y-28321000D03*
X38735000Y-33274000D03*
D21*
X18700400Y-41449000D02*
X19264000Y-41449000D01*
X19264000Y-41449000D02*
X25440000Y-47625000D01*
X25654000Y-52832000D02*
X25400000Y-52832000D01*
X55880000Y-50800000D02*
X53848000Y-52832000D01*
X25654000Y-52832000D02*
X53848000Y-52832000D01*
X24130000Y-48935000D02*
X25440000Y-47625000D01*
X24130000Y-51562000D02*
X24130000Y-48935000D01*
X25400000Y-52832000D02*
X24130000Y-51562000D01*
X15700660Y-36750000D02*
X15828000Y-36750000D01*
X15828000Y-36750000D02*
X19558000Y-33020000D01*
X24366000Y-25146000D02*
X25950000Y-26730000D01*
X20066000Y-25146000D02*
X24366000Y-25146000D01*
X19558000Y-25654000D02*
X20066000Y-25146000D01*
X19558000Y-33020000D02*
X19558000Y-25654000D01*
X55880000Y-43180000D02*
X54610000Y-44450000D01*
X54610000Y-50800000D02*
X55880000Y-50800000D01*
X54102000Y-50292000D02*
X54610000Y-50800000D01*
X55880000Y-50800000D02*
X55880000Y-51562000D01*
X55880000Y-51562000D02*
X57150000Y-52832000D01*
X72000000Y-47126000D02*
X72000000Y-42810000D01*
X66294000Y-52832000D02*
X72000000Y-47126000D01*
X57150000Y-52832000D02*
X66294000Y-52832000D01*
X15700660Y-36750000D02*
X15700660Y-38449260D01*
X15700660Y-38449260D02*
X18700400Y-41449000D01*
X72000000Y-42810000D02*
X72760000Y-42810000D01*
X72760000Y-42810000D02*
X73914000Y-41656000D01*
X73914000Y-41656000D02*
X73914000Y-34054000D01*
X73914000Y-34054000D02*
X69130000Y-29270000D01*
X61510000Y-26730000D02*
X61528000Y-26730000D01*
X61528000Y-26730000D02*
X62738000Y-27940000D01*
X67800000Y-27940000D02*
X69130000Y-29270000D01*
X62738000Y-27940000D02*
X67800000Y-27940000D01*
X56430000Y-26730000D02*
X56430000Y-26966000D01*
X56430000Y-26966000D02*
X57404000Y-27940000D01*
X60300000Y-27940000D02*
X61510000Y-26730000D01*
X57404000Y-27940000D02*
X60300000Y-27940000D01*
X51350000Y-29270000D02*
X51350000Y-29168000D01*
X51350000Y-29168000D02*
X52578000Y-27940000D01*
X55220000Y-27940000D02*
X56430000Y-26730000D01*
X52578000Y-27940000D02*
X55220000Y-27940000D01*
X43730000Y-26730000D02*
X43748000Y-26730000D01*
X43748000Y-26730000D02*
X44958000Y-27940000D01*
X50020000Y-27940000D02*
X51350000Y-29270000D01*
X44958000Y-27940000D02*
X50020000Y-27940000D01*
X36110000Y-26730000D02*
X36110000Y-26628000D01*
X36110000Y-26628000D02*
X37338000Y-25400000D01*
X42400000Y-25400000D02*
X43730000Y-26730000D01*
X37338000Y-25400000D02*
X42400000Y-25400000D01*
X31030000Y-29270000D02*
X31030000Y-29168000D01*
X31030000Y-29168000D02*
X32258000Y-27940000D01*
X34900000Y-27940000D02*
X36110000Y-26730000D01*
X32258000Y-27940000D02*
X34900000Y-27940000D01*
X25950000Y-26730000D02*
X25968000Y-26730000D01*
X25968000Y-26730000D02*
X27178000Y-27940000D01*
X27178000Y-27940000D02*
X29700000Y-27940000D01*
X29700000Y-27940000D02*
X31030000Y-29270000D01*
X55880000Y-35560000D02*
X54864000Y-35560000D01*
X54864000Y-35560000D02*
X51350000Y-32046000D01*
X51350000Y-32046000D02*
X51350000Y-29270000D01*
X63500000Y-35560000D02*
X62738000Y-35560000D01*
X62738000Y-35560000D02*
X61468000Y-36830000D01*
X61468000Y-43942000D02*
X61468000Y-45720000D01*
X61468000Y-36830000D02*
X61468000Y-38354000D01*
X63500000Y-35560000D02*
X63500000Y-38100000D01*
X23410000Y-26730000D02*
X20870000Y-26730000D01*
X63500000Y-45720000D02*
X61468000Y-45720000D01*
X24638000Y-27958000D02*
X23410000Y-26730000D01*
X24638000Y-30226000D02*
X24638000Y-27958000D01*
X25146000Y-30734000D02*
X24638000Y-30226000D01*
X34798000Y-30734000D02*
X25146000Y-30734000D01*
X38354000Y-34290000D02*
X34798000Y-30734000D01*
X38354000Y-39624000D02*
X38354000Y-34290000D01*
X38862000Y-40132000D02*
X38354000Y-39624000D01*
X51054000Y-40132000D02*
X38862000Y-40132000D01*
X52578000Y-41656000D02*
X51054000Y-40132000D01*
X52578000Y-47244000D02*
X52578000Y-41656000D01*
X54864000Y-49530000D02*
X52578000Y-47244000D01*
X57658000Y-49530000D02*
X54864000Y-49530000D01*
X61468000Y-45720000D02*
X57658000Y-49530000D01*
X40640000Y-35560000D02*
X40640000Y-34036000D01*
X61510000Y-30184000D02*
X61510000Y-29270000D01*
X58420000Y-33274000D02*
X61510000Y-30184000D01*
X54610000Y-33274000D02*
X58420000Y-33274000D01*
X41402000Y-33274000D02*
X44450000Y-33274000D01*
X40640000Y-34036000D02*
X41402000Y-33274000D01*
X37338000Y-31877000D02*
X37338000Y-28321000D01*
X38735000Y-33274000D02*
X37338000Y-31877000D01*
X45720000Y-35560000D02*
X45720000Y-31750000D01*
X45720000Y-31750000D02*
X43730000Y-29760000D01*
X43730000Y-29760000D02*
X43730000Y-29270000D01*
X55880000Y-45720000D02*
X57404000Y-45720000D01*
X48810000Y-32808000D02*
X48810000Y-29270000D01*
X52832000Y-36830000D02*
X48810000Y-32808000D01*
X57150000Y-36830000D02*
X52832000Y-36830000D01*
X57658000Y-37338000D02*
X57150000Y-36830000D01*
X57658000Y-45466000D02*
X57658000Y-37338000D01*
X57404000Y-45720000D02*
X57658000Y-45466000D01*
X40640000Y-38100000D02*
X43180000Y-38100000D01*
X43180000Y-38100000D02*
X45720000Y-38100000D01*
X45720000Y-38100000D02*
X55880000Y-38100000D01*
X72000000Y-37730000D02*
X66664000Y-37730000D01*
X53848000Y-42672000D02*
X55880000Y-40640000D01*
X53848000Y-45974000D02*
X53848000Y-42672000D01*
X54864000Y-46990000D02*
X53848000Y-45974000D01*
X57658000Y-46990000D02*
X54864000Y-46990000D01*
X58420000Y-46228000D02*
X57658000Y-46990000D01*
X58420000Y-39878000D02*
X58420000Y-46228000D01*
X58928000Y-39370000D02*
X58420000Y-39878000D01*
X65024000Y-39370000D02*
X58928000Y-39370000D01*
X66664000Y-37730000D02*
X65024000Y-39370000D01*
X72000000Y-40270000D02*
X66410000Y-40270000D01*
X57658000Y-48260000D02*
X55880000Y-48260000D01*
X58928000Y-46990000D02*
X57658000Y-48260000D01*
X58928000Y-42614002D02*
X58928000Y-46990000D01*
X59632002Y-41910000D02*
X58928000Y-42614002D01*
X64770000Y-41910000D02*
X59632002Y-41910000D01*
X66410000Y-40270000D02*
X64770000Y-41910000D01*
D22*
G36*
X51477000Y-29143000D02*
X51497000Y-29143000D01*
X51497000Y-29397000D01*
X51477000Y-29397000D01*
X51477000Y-30603817D01*
X51709026Y-30724958D01*
X52124947Y-30552688D01*
X52556821Y-30158490D01*
X52614336Y-30035772D01*
X52830330Y-30359029D01*
X53316511Y-30683885D01*
X53890000Y-30797959D01*
X54463489Y-30683885D01*
X54949670Y-30359029D01*
X55160000Y-30044248D01*
X55370330Y-30359029D01*
X55856511Y-30683885D01*
X56430000Y-30797959D01*
X57003489Y-30683885D01*
X57489670Y-30359029D01*
X57700000Y-30044248D01*
X57910330Y-30359029D01*
X58396511Y-30683885D01*
X58970000Y-30797959D01*
X59543489Y-30683885D01*
X60029670Y-30359029D01*
X60240000Y-30044248D01*
X60374162Y-30245036D01*
X58105198Y-32514000D01*
X55172463Y-32514000D01*
X55140327Y-32481808D01*
X54796799Y-32339162D01*
X54424833Y-32338838D01*
X54081057Y-32480883D01*
X53817808Y-32743673D01*
X53675162Y-33087201D01*
X53674838Y-33459167D01*
X53816883Y-33802943D01*
X54079673Y-34066192D01*
X54423201Y-34208838D01*
X54795167Y-34209162D01*
X55138943Y-34067117D01*
X55172118Y-34034000D01*
X58420000Y-34034000D01*
X58710839Y-33976148D01*
X58957401Y-33811401D01*
X62047401Y-30721401D01*
X62070779Y-30686413D01*
X62083489Y-30683885D01*
X62569670Y-30359029D01*
X62780000Y-30044248D01*
X62990330Y-30359029D01*
X63476511Y-30683885D01*
X64050000Y-30797959D01*
X64623489Y-30683885D01*
X65109670Y-30359029D01*
X65320000Y-30044248D01*
X65530330Y-30359029D01*
X66016511Y-30683885D01*
X66590000Y-30797959D01*
X67163489Y-30683885D01*
X67649670Y-30359029D01*
X67865664Y-30035772D01*
X67923179Y-30158490D01*
X68355053Y-30552688D01*
X68770974Y-30724958D01*
X69003000Y-30603817D01*
X69003000Y-29397000D01*
X68983000Y-29397000D01*
X68983000Y-29143000D01*
X69003000Y-29143000D01*
X69003000Y-29123000D01*
X69257000Y-29123000D01*
X69257000Y-29143000D01*
X69277000Y-29143000D01*
X69277000Y-29397000D01*
X69257000Y-29397000D01*
X69257000Y-30603817D01*
X69489026Y-30724958D01*
X69904947Y-30552688D01*
X70336821Y-30158490D01*
X70584968Y-29629027D01*
X70464470Y-29397002D01*
X70492396Y-29397002D01*
X72935197Y-31839803D01*
X72977211Y-31867666D01*
X73025000Y-31877000D01*
X76708000Y-31877000D01*
X76708000Y-47498000D01*
X72390000Y-47498000D01*
X72340590Y-47508006D01*
X72288400Y-47548800D01*
X70383400Y-50088800D01*
X70361759Y-50134332D01*
X70358000Y-50165000D01*
X70358000Y-53815000D01*
X19812000Y-53815000D01*
X19812000Y-51149039D01*
X54138096Y-51149039D01*
X54155633Y-51231819D01*
X54425500Y-51724896D01*
X54863517Y-52077166D01*
X55403000Y-52235000D01*
X55753000Y-52235000D01*
X55753000Y-50927000D01*
X56007000Y-50927000D01*
X56007000Y-52235000D01*
X56357000Y-52235000D01*
X56896483Y-52077166D01*
X57334500Y-51724896D01*
X57604367Y-51231819D01*
X57621904Y-51149039D01*
X57499915Y-50927000D01*
X56007000Y-50927000D01*
X55753000Y-50927000D01*
X54260085Y-50927000D01*
X54138096Y-51149039D01*
X19812000Y-51149039D01*
X19812000Y-48958320D01*
X24286285Y-48958320D01*
X24415533Y-49251123D01*
X25115806Y-49519388D01*
X25865435Y-49499250D01*
X26464467Y-49251123D01*
X26593715Y-48958320D01*
X25440000Y-47804605D01*
X24286285Y-48958320D01*
X19812000Y-48958320D01*
X19812000Y-47300806D01*
X23545612Y-47300806D01*
X23565750Y-48050435D01*
X23813877Y-48649467D01*
X24106680Y-48778715D01*
X25260395Y-47625000D01*
X25619605Y-47625000D01*
X26773320Y-48778715D01*
X27066123Y-48649467D01*
X27315574Y-47998305D01*
X28554674Y-47998305D01*
X28841043Y-48691372D01*
X29370839Y-49222093D01*
X30063405Y-49509672D01*
X30813305Y-49510326D01*
X31506372Y-49223957D01*
X32037093Y-48694161D01*
X32324672Y-48001595D01*
X32325326Y-47251695D01*
X32038957Y-46558628D01*
X31509161Y-46027907D01*
X30816595Y-45740328D01*
X30066695Y-45739674D01*
X29373628Y-46026043D01*
X28842907Y-46555839D01*
X28555328Y-47248405D01*
X28554674Y-47998305D01*
X27315574Y-47998305D01*
X27334388Y-47949194D01*
X27314250Y-47199565D01*
X27066123Y-46600533D01*
X26773320Y-46471285D01*
X25619605Y-47625000D01*
X25260395Y-47625000D01*
X24106680Y-46471285D01*
X23813877Y-46600533D01*
X23545612Y-47300806D01*
X19812000Y-47300806D01*
X19812000Y-46990000D01*
X19801994Y-46940590D01*
X19773553Y-46898965D01*
X19731159Y-46871685D01*
X19685000Y-46863000D01*
X13462000Y-46863000D01*
X13462000Y-46291680D01*
X24286285Y-46291680D01*
X25440000Y-47445395D01*
X26593715Y-46291680D01*
X26464467Y-45998877D01*
X25764194Y-45730612D01*
X25014565Y-45750750D01*
X24415533Y-45998877D01*
X24286285Y-46291680D01*
X13462000Y-46291680D01*
X13462000Y-43504467D01*
X16824538Y-43504467D01*
X17075775Y-43901169D01*
X18137846Y-44336227D01*
X19285562Y-44331730D01*
X20325025Y-43901169D01*
X20576262Y-43504467D01*
X18700400Y-41628605D01*
X16824538Y-43504467D01*
X13462000Y-43504467D01*
X13462000Y-38805467D01*
X13824798Y-38805467D01*
X14076035Y-39202169D01*
X15138106Y-39637227D01*
X16285822Y-39632730D01*
X16581887Y-39510095D01*
X16644931Y-39573139D01*
X16248231Y-39824375D01*
X15813173Y-40886446D01*
X15817670Y-42034162D01*
X16248231Y-43073625D01*
X16644933Y-43324862D01*
X18520795Y-41449000D01*
X18506653Y-41434858D01*
X18686258Y-41255253D01*
X18700400Y-41269395D01*
X18714543Y-41255253D01*
X18894148Y-41434858D01*
X18880005Y-41449000D01*
X20755867Y-43324862D01*
X21152569Y-43073625D01*
X21587627Y-42011554D01*
X21583130Y-40863838D01*
X21152569Y-39824375D01*
X20755869Y-39573139D01*
X20820454Y-39508554D01*
X21123760Y-39634498D01*
X22271484Y-39635499D01*
X23332226Y-39197210D01*
X24144497Y-38386355D01*
X24584638Y-37326380D01*
X24585639Y-36178656D01*
X24147350Y-35117914D01*
X23336495Y-34305643D01*
X22276520Y-33865502D01*
X21128796Y-33864501D01*
X20068054Y-34302790D01*
X19255783Y-35113645D01*
X18815642Y-36173620D01*
X18814641Y-37321344D01*
X19252930Y-38382086D01*
X19549462Y-38679136D01*
X19262954Y-38561773D01*
X18115238Y-38566270D01*
X17819173Y-38688905D01*
X17756129Y-38625861D01*
X18152829Y-38374625D01*
X18587887Y-37312554D01*
X18583390Y-36164838D01*
X18152829Y-35125375D01*
X17756127Y-34874138D01*
X15880265Y-36750000D01*
X15894408Y-36764143D01*
X15714803Y-36943748D01*
X15700660Y-36929605D01*
X13824798Y-38805467D01*
X13462000Y-38805467D01*
X13462000Y-38509843D01*
X13645193Y-38625862D01*
X15521055Y-36750000D01*
X13645193Y-34874138D01*
X13462000Y-34990157D01*
X13462000Y-34694533D01*
X13824798Y-34694533D01*
X15700660Y-36570395D01*
X17576522Y-34694533D01*
X17325285Y-34297831D01*
X16263214Y-33862773D01*
X15115498Y-33867270D01*
X14076035Y-34297831D01*
X13824798Y-34694533D01*
X13462000Y-34694533D01*
X13462000Y-31877000D01*
X19050000Y-31877000D01*
X19099410Y-31866994D01*
X19141035Y-31838553D01*
X19168315Y-31796159D01*
X19177000Y-31750000D01*
X19177000Y-29874980D01*
X19358960Y-29511060D01*
X19358960Y-30133600D01*
X19403238Y-30368917D01*
X19542310Y-30585041D01*
X19754510Y-30730031D01*
X20006400Y-30781040D01*
X21733600Y-30781040D01*
X21968917Y-30736762D01*
X22185041Y-30597690D01*
X22330031Y-30385490D01*
X22338864Y-30341869D01*
X22350330Y-30359029D01*
X22836511Y-30683885D01*
X23410000Y-30797959D01*
X23983489Y-30683885D01*
X24027721Y-30654330D01*
X24100599Y-30763401D01*
X24608599Y-31271401D01*
X24855161Y-31436148D01*
X25146000Y-31494000D01*
X34483198Y-31494000D01*
X37594000Y-34604802D01*
X37594000Y-39624000D01*
X37651852Y-39914839D01*
X37816599Y-40161401D01*
X38324599Y-40669401D01*
X38571161Y-40834148D01*
X38862000Y-40892000D01*
X50739198Y-40892000D01*
X51818000Y-41970802D01*
X51818000Y-47244000D01*
X51875852Y-47534839D01*
X52040599Y-47781401D01*
X54322498Y-50063300D01*
X54155633Y-50368181D01*
X54138096Y-50450961D01*
X54260085Y-50673000D01*
X55753000Y-50673000D01*
X55753000Y-50653000D01*
X56007000Y-50653000D01*
X56007000Y-50673000D01*
X57499915Y-50673000D01*
X57621904Y-50450961D01*
X57604367Y-50368181D01*
X57561578Y-50290000D01*
X57658000Y-50290000D01*
X57948839Y-50232148D01*
X58195401Y-50067401D01*
X61782802Y-46480000D01*
X61930148Y-46480000D01*
X62100332Y-46734698D01*
X62482418Y-46990000D01*
X62100332Y-47245302D01*
X61789263Y-47710849D01*
X61680030Y-48260000D01*
X61789263Y-48809151D01*
X62100332Y-49274698D01*
X62482418Y-49530000D01*
X62100332Y-49785302D01*
X61789263Y-50250849D01*
X61680030Y-50800000D01*
X61789263Y-51349151D01*
X62100332Y-51814698D01*
X62565879Y-52125767D01*
X63115030Y-52235000D01*
X63884970Y-52235000D01*
X64434121Y-52125767D01*
X64899668Y-51814698D01*
X65210737Y-51349151D01*
X65319970Y-50800000D01*
X65210737Y-50250849D01*
X64899668Y-49785302D01*
X64517582Y-49530000D01*
X64899668Y-49274698D01*
X65210737Y-48809151D01*
X65319970Y-48260000D01*
X65210737Y-47710849D01*
X64899668Y-47245302D01*
X64517582Y-46990000D01*
X64899668Y-46734698D01*
X65210737Y-46269151D01*
X65319970Y-45720000D01*
X65210737Y-45170849D01*
X64899668Y-44705302D01*
X64517582Y-44450000D01*
X64899668Y-44194698D01*
X65210737Y-43729151D01*
X65317910Y-43190355D01*
X70410373Y-43190355D01*
X70676932Y-43769726D01*
X71144916Y-44202987D01*
X71619646Y-44399619D01*
X71873000Y-44280265D01*
X71873000Y-42937000D01*
X72127000Y-42937000D01*
X72127000Y-44280265D01*
X72380354Y-44399619D01*
X72855084Y-44202987D01*
X73323068Y-43769726D01*
X73589627Y-43190355D01*
X73470807Y-42937000D01*
X72127000Y-42937000D01*
X71873000Y-42937000D01*
X70529193Y-42937000D01*
X70410373Y-43190355D01*
X65317910Y-43190355D01*
X65319970Y-43180000D01*
X65210737Y-42630849D01*
X65155831Y-42548677D01*
X65307401Y-42447401D01*
X66724802Y-41030000D01*
X70558407Y-41030000D01*
X70844241Y-41457781D01*
X70993300Y-41557379D01*
X70676932Y-41850274D01*
X70410373Y-42429645D01*
X70529193Y-42683000D01*
X71873000Y-42683000D01*
X71873000Y-42663000D01*
X72127000Y-42663000D01*
X72127000Y-42683000D01*
X73470807Y-42683000D01*
X73589627Y-42429645D01*
X73323068Y-41850274D01*
X73006700Y-41557379D01*
X73155759Y-41457781D01*
X73510072Y-40927514D01*
X73634490Y-40302022D01*
X73634490Y-40237978D01*
X73510072Y-39612486D01*
X73155759Y-39082219D01*
X73032710Y-39000000D01*
X73155759Y-38917781D01*
X73510072Y-38387514D01*
X73634490Y-37762022D01*
X73634490Y-37697978D01*
X73510072Y-37072486D01*
X73296547Y-36752923D01*
X73450931Y-36653580D01*
X73595921Y-36441380D01*
X73646930Y-36189490D01*
X73646930Y-34190510D01*
X73602652Y-33955193D01*
X73463580Y-33739069D01*
X73251380Y-33594079D01*
X72999490Y-33543070D01*
X71000510Y-33543070D01*
X70765193Y-33587348D01*
X70549069Y-33726420D01*
X70404079Y-33938620D01*
X70353070Y-34190510D01*
X70353070Y-36189490D01*
X70397348Y-36424807D01*
X70536420Y-36640931D01*
X70702473Y-36754390D01*
X70558407Y-36970000D01*
X66664000Y-36970000D01*
X66373160Y-37027852D01*
X66126599Y-37192599D01*
X65303251Y-38015947D01*
X65210737Y-37550849D01*
X64899668Y-37085302D01*
X64517582Y-36830000D01*
X64899668Y-36574698D01*
X65210737Y-36109151D01*
X65319970Y-35560000D01*
X65210737Y-35010849D01*
X64899668Y-34545302D01*
X64434121Y-34234233D01*
X63884970Y-34125000D01*
X63115030Y-34125000D01*
X62565879Y-34234233D01*
X62100332Y-34545302D01*
X61789263Y-35010849D01*
X61684209Y-35538989D01*
X60930599Y-36292599D01*
X60765852Y-36539161D01*
X60708000Y-36830000D01*
X60708000Y-37791537D01*
X60675808Y-37823673D01*
X60533162Y-38167201D01*
X60532838Y-38539167D01*
X60562106Y-38610000D01*
X58928000Y-38610000D01*
X58637161Y-38667852D01*
X58637159Y-38667853D01*
X58637160Y-38667853D01*
X58418000Y-38814290D01*
X58418000Y-37338000D01*
X58360148Y-37047161D01*
X58195401Y-36800599D01*
X57687401Y-36292599D01*
X57506062Y-36171433D01*
X57604367Y-35991819D01*
X57621904Y-35909039D01*
X57499915Y-35687000D01*
X56007000Y-35687000D01*
X56007000Y-35707000D01*
X55753000Y-35707000D01*
X55753000Y-35687000D01*
X54260085Y-35687000D01*
X54138096Y-35909039D01*
X54155633Y-35991819D01*
X54198422Y-36070000D01*
X53146802Y-36070000D01*
X52287763Y-35210961D01*
X54138096Y-35210961D01*
X54260085Y-35433000D01*
X55753000Y-35433000D01*
X55753000Y-34125000D01*
X56007000Y-34125000D01*
X56007000Y-35433000D01*
X57499915Y-35433000D01*
X57621904Y-35210961D01*
X57604367Y-35128181D01*
X57334500Y-34635104D01*
X56896483Y-34282834D01*
X56357000Y-34125000D01*
X56007000Y-34125000D01*
X55753000Y-34125000D01*
X55403000Y-34125000D01*
X54863517Y-34282834D01*
X54425500Y-34635104D01*
X54155633Y-35128181D01*
X54138096Y-35210961D01*
X52287763Y-35210961D01*
X49570000Y-32493198D01*
X49570000Y-30559262D01*
X49869670Y-30359029D01*
X50085664Y-30035772D01*
X50143179Y-30158490D01*
X50575053Y-30552688D01*
X50990974Y-30724958D01*
X51223000Y-30603817D01*
X51223000Y-29397000D01*
X51203000Y-29397000D01*
X51203000Y-29143000D01*
X51223000Y-29143000D01*
X51223000Y-29123000D01*
X51477000Y-29123000D01*
X51477000Y-29143000D01*
X51477000Y-29143000D01*
G37*
X51477000Y-29143000D02*
X51497000Y-29143000D01*
X51497000Y-29397000D01*
X51477000Y-29397000D01*
X51477000Y-30603817D01*
X51709026Y-30724958D01*
X52124947Y-30552688D01*
X52556821Y-30158490D01*
X52614336Y-30035772D01*
X52830330Y-30359029D01*
X53316511Y-30683885D01*
X53890000Y-30797959D01*
X54463489Y-30683885D01*
X54949670Y-30359029D01*
X55160000Y-30044248D01*
X55370330Y-30359029D01*
X55856511Y-30683885D01*
X56430000Y-30797959D01*
X57003489Y-30683885D01*
X57489670Y-30359029D01*
X57700000Y-30044248D01*
X57910330Y-30359029D01*
X58396511Y-30683885D01*
X58970000Y-30797959D01*
X59543489Y-30683885D01*
X60029670Y-30359029D01*
X60240000Y-30044248D01*
X60374162Y-30245036D01*
X58105198Y-32514000D01*
X55172463Y-32514000D01*
X55140327Y-32481808D01*
X54796799Y-32339162D01*
X54424833Y-32338838D01*
X54081057Y-32480883D01*
X53817808Y-32743673D01*
X53675162Y-33087201D01*
X53674838Y-33459167D01*
X53816883Y-33802943D01*
X54079673Y-34066192D01*
X54423201Y-34208838D01*
X54795167Y-34209162D01*
X55138943Y-34067117D01*
X55172118Y-34034000D01*
X58420000Y-34034000D01*
X58710839Y-33976148D01*
X58957401Y-33811401D01*
X62047401Y-30721401D01*
X62070779Y-30686413D01*
X62083489Y-30683885D01*
X62569670Y-30359029D01*
X62780000Y-30044248D01*
X62990330Y-30359029D01*
X63476511Y-30683885D01*
X64050000Y-30797959D01*
X64623489Y-30683885D01*
X65109670Y-30359029D01*
X65320000Y-30044248D01*
X65530330Y-30359029D01*
X66016511Y-30683885D01*
X66590000Y-30797959D01*
X67163489Y-30683885D01*
X67649670Y-30359029D01*
X67865664Y-30035772D01*
X67923179Y-30158490D01*
X68355053Y-30552688D01*
X68770974Y-30724958D01*
X69003000Y-30603817D01*
X69003000Y-29397000D01*
X68983000Y-29397000D01*
X68983000Y-29143000D01*
X69003000Y-29143000D01*
X69003000Y-29123000D01*
X69257000Y-29123000D01*
X69257000Y-29143000D01*
X69277000Y-29143000D01*
X69277000Y-29397000D01*
X69257000Y-29397000D01*
X69257000Y-30603817D01*
X69489026Y-30724958D01*
X69904947Y-30552688D01*
X70336821Y-30158490D01*
X70584968Y-29629027D01*
X70464470Y-29397002D01*
X70492396Y-29397002D01*
X72935197Y-31839803D01*
X72977211Y-31867666D01*
X73025000Y-31877000D01*
X76708000Y-31877000D01*
X76708000Y-47498000D01*
X72390000Y-47498000D01*
X72340590Y-47508006D01*
X72288400Y-47548800D01*
X70383400Y-50088800D01*
X70361759Y-50134332D01*
X70358000Y-50165000D01*
X70358000Y-53815000D01*
X19812000Y-53815000D01*
X19812000Y-51149039D01*
X54138096Y-51149039D01*
X54155633Y-51231819D01*
X54425500Y-51724896D01*
X54863517Y-52077166D01*
X55403000Y-52235000D01*
X55753000Y-52235000D01*
X55753000Y-50927000D01*
X56007000Y-50927000D01*
X56007000Y-52235000D01*
X56357000Y-52235000D01*
X56896483Y-52077166D01*
X57334500Y-51724896D01*
X57604367Y-51231819D01*
X57621904Y-51149039D01*
X57499915Y-50927000D01*
X56007000Y-50927000D01*
X55753000Y-50927000D01*
X54260085Y-50927000D01*
X54138096Y-51149039D01*
X19812000Y-51149039D01*
X19812000Y-48958320D01*
X24286285Y-48958320D01*
X24415533Y-49251123D01*
X25115806Y-49519388D01*
X25865435Y-49499250D01*
X26464467Y-49251123D01*
X26593715Y-48958320D01*
X25440000Y-47804605D01*
X24286285Y-48958320D01*
X19812000Y-48958320D01*
X19812000Y-47300806D01*
X23545612Y-47300806D01*
X23565750Y-48050435D01*
X23813877Y-48649467D01*
X24106680Y-48778715D01*
X25260395Y-47625000D01*
X25619605Y-47625000D01*
X26773320Y-48778715D01*
X27066123Y-48649467D01*
X27315574Y-47998305D01*
X28554674Y-47998305D01*
X28841043Y-48691372D01*
X29370839Y-49222093D01*
X30063405Y-49509672D01*
X30813305Y-49510326D01*
X31506372Y-49223957D01*
X32037093Y-48694161D01*
X32324672Y-48001595D01*
X32325326Y-47251695D01*
X32038957Y-46558628D01*
X31509161Y-46027907D01*
X30816595Y-45740328D01*
X30066695Y-45739674D01*
X29373628Y-46026043D01*
X28842907Y-46555839D01*
X28555328Y-47248405D01*
X28554674Y-47998305D01*
X27315574Y-47998305D01*
X27334388Y-47949194D01*
X27314250Y-47199565D01*
X27066123Y-46600533D01*
X26773320Y-46471285D01*
X25619605Y-47625000D01*
X25260395Y-47625000D01*
X24106680Y-46471285D01*
X23813877Y-46600533D01*
X23545612Y-47300806D01*
X19812000Y-47300806D01*
X19812000Y-46990000D01*
X19801994Y-46940590D01*
X19773553Y-46898965D01*
X19731159Y-46871685D01*
X19685000Y-46863000D01*
X13462000Y-46863000D01*
X13462000Y-46291680D01*
X24286285Y-46291680D01*
X25440000Y-47445395D01*
X26593715Y-46291680D01*
X26464467Y-45998877D01*
X25764194Y-45730612D01*
X25014565Y-45750750D01*
X24415533Y-45998877D01*
X24286285Y-46291680D01*
X13462000Y-46291680D01*
X13462000Y-43504467D01*
X16824538Y-43504467D01*
X17075775Y-43901169D01*
X18137846Y-44336227D01*
X19285562Y-44331730D01*
X20325025Y-43901169D01*
X20576262Y-43504467D01*
X18700400Y-41628605D01*
X16824538Y-43504467D01*
X13462000Y-43504467D01*
X13462000Y-38805467D01*
X13824798Y-38805467D01*
X14076035Y-39202169D01*
X15138106Y-39637227D01*
X16285822Y-39632730D01*
X16581887Y-39510095D01*
X16644931Y-39573139D01*
X16248231Y-39824375D01*
X15813173Y-40886446D01*
X15817670Y-42034162D01*
X16248231Y-43073625D01*
X16644933Y-43324862D01*
X18520795Y-41449000D01*
X18506653Y-41434858D01*
X18686258Y-41255253D01*
X18700400Y-41269395D01*
X18714543Y-41255253D01*
X18894148Y-41434858D01*
X18880005Y-41449000D01*
X20755867Y-43324862D01*
X21152569Y-43073625D01*
X21587627Y-42011554D01*
X21583130Y-40863838D01*
X21152569Y-39824375D01*
X20755869Y-39573139D01*
X20820454Y-39508554D01*
X21123760Y-39634498D01*
X22271484Y-39635499D01*
X23332226Y-39197210D01*
X24144497Y-38386355D01*
X24584638Y-37326380D01*
X24585639Y-36178656D01*
X24147350Y-35117914D01*
X23336495Y-34305643D01*
X22276520Y-33865502D01*
X21128796Y-33864501D01*
X20068054Y-34302790D01*
X19255783Y-35113645D01*
X18815642Y-36173620D01*
X18814641Y-37321344D01*
X19252930Y-38382086D01*
X19549462Y-38679136D01*
X19262954Y-38561773D01*
X18115238Y-38566270D01*
X17819173Y-38688905D01*
X17756129Y-38625861D01*
X18152829Y-38374625D01*
X18587887Y-37312554D01*
X18583390Y-36164838D01*
X18152829Y-35125375D01*
X17756127Y-34874138D01*
X15880265Y-36750000D01*
X15894408Y-36764143D01*
X15714803Y-36943748D01*
X15700660Y-36929605D01*
X13824798Y-38805467D01*
X13462000Y-38805467D01*
X13462000Y-38509843D01*
X13645193Y-38625862D01*
X15521055Y-36750000D01*
X13645193Y-34874138D01*
X13462000Y-34990157D01*
X13462000Y-34694533D01*
X13824798Y-34694533D01*
X15700660Y-36570395D01*
X17576522Y-34694533D01*
X17325285Y-34297831D01*
X16263214Y-33862773D01*
X15115498Y-33867270D01*
X14076035Y-34297831D01*
X13824798Y-34694533D01*
X13462000Y-34694533D01*
X13462000Y-31877000D01*
X19050000Y-31877000D01*
X19099410Y-31866994D01*
X19141035Y-31838553D01*
X19168315Y-31796159D01*
X19177000Y-31750000D01*
X19177000Y-29874980D01*
X19358960Y-29511060D01*
X19358960Y-30133600D01*
X19403238Y-30368917D01*
X19542310Y-30585041D01*
X19754510Y-30730031D01*
X20006400Y-30781040D01*
X21733600Y-30781040D01*
X21968917Y-30736762D01*
X22185041Y-30597690D01*
X22330031Y-30385490D01*
X22338864Y-30341869D01*
X22350330Y-30359029D01*
X22836511Y-30683885D01*
X23410000Y-30797959D01*
X23983489Y-30683885D01*
X24027721Y-30654330D01*
X24100599Y-30763401D01*
X24608599Y-31271401D01*
X24855161Y-31436148D01*
X25146000Y-31494000D01*
X34483198Y-31494000D01*
X37594000Y-34604802D01*
X37594000Y-39624000D01*
X37651852Y-39914839D01*
X37816599Y-40161401D01*
X38324599Y-40669401D01*
X38571161Y-40834148D01*
X38862000Y-40892000D01*
X50739198Y-40892000D01*
X51818000Y-41970802D01*
X51818000Y-47244000D01*
X51875852Y-47534839D01*
X52040599Y-47781401D01*
X54322498Y-50063300D01*
X54155633Y-50368181D01*
X54138096Y-50450961D01*
X54260085Y-50673000D01*
X55753000Y-50673000D01*
X55753000Y-50653000D01*
X56007000Y-50653000D01*
X56007000Y-50673000D01*
X57499915Y-50673000D01*
X57621904Y-50450961D01*
X57604367Y-50368181D01*
X57561578Y-50290000D01*
X57658000Y-50290000D01*
X57948839Y-50232148D01*
X58195401Y-50067401D01*
X61782802Y-46480000D01*
X61930148Y-46480000D01*
X62100332Y-46734698D01*
X62482418Y-46990000D01*
X62100332Y-47245302D01*
X61789263Y-47710849D01*
X61680030Y-48260000D01*
X61789263Y-48809151D01*
X62100332Y-49274698D01*
X62482418Y-49530000D01*
X62100332Y-49785302D01*
X61789263Y-50250849D01*
X61680030Y-50800000D01*
X61789263Y-51349151D01*
X62100332Y-51814698D01*
X62565879Y-52125767D01*
X63115030Y-52235000D01*
X63884970Y-52235000D01*
X64434121Y-52125767D01*
X64899668Y-51814698D01*
X65210737Y-51349151D01*
X65319970Y-50800000D01*
X65210737Y-50250849D01*
X64899668Y-49785302D01*
X64517582Y-49530000D01*
X64899668Y-49274698D01*
X65210737Y-48809151D01*
X65319970Y-48260000D01*
X65210737Y-47710849D01*
X64899668Y-47245302D01*
X64517582Y-46990000D01*
X64899668Y-46734698D01*
X65210737Y-46269151D01*
X65319970Y-45720000D01*
X65210737Y-45170849D01*
X64899668Y-44705302D01*
X64517582Y-44450000D01*
X64899668Y-44194698D01*
X65210737Y-43729151D01*
X65317910Y-43190355D01*
X70410373Y-43190355D01*
X70676932Y-43769726D01*
X71144916Y-44202987D01*
X71619646Y-44399619D01*
X71873000Y-44280265D01*
X71873000Y-42937000D01*
X72127000Y-42937000D01*
X72127000Y-44280265D01*
X72380354Y-44399619D01*
X72855084Y-44202987D01*
X73323068Y-43769726D01*
X73589627Y-43190355D01*
X73470807Y-42937000D01*
X72127000Y-42937000D01*
X71873000Y-42937000D01*
X70529193Y-42937000D01*
X70410373Y-43190355D01*
X65317910Y-43190355D01*
X65319970Y-43180000D01*
X65210737Y-42630849D01*
X65155831Y-42548677D01*
X65307401Y-42447401D01*
X66724802Y-41030000D01*
X70558407Y-41030000D01*
X70844241Y-41457781D01*
X70993300Y-41557379D01*
X70676932Y-41850274D01*
X70410373Y-42429645D01*
X70529193Y-42683000D01*
X71873000Y-42683000D01*
X71873000Y-42663000D01*
X72127000Y-42663000D01*
X72127000Y-42683000D01*
X73470807Y-42683000D01*
X73589627Y-42429645D01*
X73323068Y-41850274D01*
X73006700Y-41557379D01*
X73155759Y-41457781D01*
X73510072Y-40927514D01*
X73634490Y-40302022D01*
X73634490Y-40237978D01*
X73510072Y-39612486D01*
X73155759Y-39082219D01*
X73032710Y-39000000D01*
X73155759Y-38917781D01*
X73510072Y-38387514D01*
X73634490Y-37762022D01*
X73634490Y-37697978D01*
X73510072Y-37072486D01*
X73296547Y-36752923D01*
X73450931Y-36653580D01*
X73595921Y-36441380D01*
X73646930Y-36189490D01*
X73646930Y-34190510D01*
X73602652Y-33955193D01*
X73463580Y-33739069D01*
X73251380Y-33594079D01*
X72999490Y-33543070D01*
X71000510Y-33543070D01*
X70765193Y-33587348D01*
X70549069Y-33726420D01*
X70404079Y-33938620D01*
X70353070Y-34190510D01*
X70353070Y-36189490D01*
X70397348Y-36424807D01*
X70536420Y-36640931D01*
X70702473Y-36754390D01*
X70558407Y-36970000D01*
X66664000Y-36970000D01*
X66373160Y-37027852D01*
X66126599Y-37192599D01*
X65303251Y-38015947D01*
X65210737Y-37550849D01*
X64899668Y-37085302D01*
X64517582Y-36830000D01*
X64899668Y-36574698D01*
X65210737Y-36109151D01*
X65319970Y-35560000D01*
X65210737Y-35010849D01*
X64899668Y-34545302D01*
X64434121Y-34234233D01*
X63884970Y-34125000D01*
X63115030Y-34125000D01*
X62565879Y-34234233D01*
X62100332Y-34545302D01*
X61789263Y-35010849D01*
X61684209Y-35538989D01*
X60930599Y-36292599D01*
X60765852Y-36539161D01*
X60708000Y-36830000D01*
X60708000Y-37791537D01*
X60675808Y-37823673D01*
X60533162Y-38167201D01*
X60532838Y-38539167D01*
X60562106Y-38610000D01*
X58928000Y-38610000D01*
X58637161Y-38667852D01*
X58637159Y-38667853D01*
X58637160Y-38667853D01*
X58418000Y-38814290D01*
X58418000Y-37338000D01*
X58360148Y-37047161D01*
X58195401Y-36800599D01*
X57687401Y-36292599D01*
X57506062Y-36171433D01*
X57604367Y-35991819D01*
X57621904Y-35909039D01*
X57499915Y-35687000D01*
X56007000Y-35687000D01*
X56007000Y-35707000D01*
X55753000Y-35707000D01*
X55753000Y-35687000D01*
X54260085Y-35687000D01*
X54138096Y-35909039D01*
X54155633Y-35991819D01*
X54198422Y-36070000D01*
X53146802Y-36070000D01*
X52287763Y-35210961D01*
X54138096Y-35210961D01*
X54260085Y-35433000D01*
X55753000Y-35433000D01*
X55753000Y-34125000D01*
X56007000Y-34125000D01*
X56007000Y-35433000D01*
X57499915Y-35433000D01*
X57621904Y-35210961D01*
X57604367Y-35128181D01*
X57334500Y-34635104D01*
X56896483Y-34282834D01*
X56357000Y-34125000D01*
X56007000Y-34125000D01*
X55753000Y-34125000D01*
X55403000Y-34125000D01*
X54863517Y-34282834D01*
X54425500Y-34635104D01*
X54155633Y-35128181D01*
X54138096Y-35210961D01*
X52287763Y-35210961D01*
X49570000Y-32493198D01*
X49570000Y-30559262D01*
X49869670Y-30359029D01*
X50085664Y-30035772D01*
X50143179Y-30158490D01*
X50575053Y-30552688D01*
X50990974Y-30724958D01*
X51223000Y-30603817D01*
X51223000Y-29397000D01*
X51203000Y-29397000D01*
X51203000Y-29143000D01*
X51223000Y-29143000D01*
X51223000Y-29123000D01*
X51477000Y-29123000D01*
X51477000Y-29143000D01*
G36*
X54858151Y-44452851D02*
X54608000Y-44619997D01*
X54608000Y-44251669D01*
X54858151Y-44452851D01*
X54858151Y-44452851D01*
G37*
X54858151Y-44452851D02*
X54608000Y-44619997D01*
X54608000Y-44251669D01*
X54858151Y-44452851D01*
G36*
X56007000Y-43053000D02*
X56027000Y-43053000D01*
X56027000Y-43307000D01*
X56007000Y-43307000D01*
X56007000Y-43327000D01*
X55753000Y-43327000D01*
X55753000Y-43307000D01*
X55733000Y-43307000D01*
X55733000Y-43053000D01*
X55753000Y-43053000D01*
X55753000Y-43033000D01*
X56007000Y-43033000D01*
X56007000Y-43053000D01*
X56007000Y-43053000D01*
G37*
X56007000Y-43053000D02*
X56027000Y-43053000D01*
X56027000Y-43307000D01*
X56007000Y-43307000D01*
X56007000Y-43327000D01*
X55753000Y-43327000D01*
X55753000Y-43307000D01*
X55733000Y-43307000D01*
X55733000Y-43053000D01*
X55753000Y-43053000D01*
X55753000Y-43033000D01*
X56007000Y-43033000D01*
X56007000Y-43053000D01*
G36*
X31157000Y-29143000D02*
X31177000Y-29143000D01*
X31177000Y-29397000D01*
X31157000Y-29397000D01*
X31157000Y-29417000D01*
X30903000Y-29417000D01*
X30903000Y-29397000D01*
X30883000Y-29397000D01*
X30883000Y-29143000D01*
X30903000Y-29143000D01*
X30903000Y-29123000D01*
X31157000Y-29123000D01*
X31157000Y-29143000D01*
X31157000Y-29143000D01*
G37*
X31157000Y-29143000D02*
X31177000Y-29143000D01*
X31177000Y-29397000D01*
X31157000Y-29397000D01*
X31157000Y-29417000D01*
X30903000Y-29417000D01*
X30903000Y-29397000D01*
X30883000Y-29397000D01*
X30883000Y-29143000D01*
X30903000Y-29143000D01*
X30903000Y-29123000D01*
X31157000Y-29123000D01*
X31157000Y-29143000D01*
G36*
X52830330Y-27819029D02*
X53101172Y-28000000D01*
X52830330Y-28180971D01*
X52614336Y-28504228D01*
X52556821Y-28381510D01*
X52138839Y-27999992D01*
X52409670Y-27819029D01*
X52620000Y-27504248D01*
X52830330Y-27819029D01*
X52830330Y-27819029D01*
G37*
X52830330Y-27819029D02*
X53101172Y-28000000D01*
X52830330Y-28180971D01*
X52614336Y-28504228D01*
X52556821Y-28381510D01*
X52138839Y-27999992D01*
X52409670Y-27819029D01*
X52620000Y-27504248D01*
X52830330Y-27819029D01*
G36*
X50290330Y-27819029D02*
X50561161Y-27999992D01*
X50143179Y-28381510D01*
X50085664Y-28504228D01*
X49869670Y-28180971D01*
X49598828Y-28000000D01*
X49869670Y-27819029D01*
X50080000Y-27504248D01*
X50290330Y-27819029D01*
X50290330Y-27819029D01*
G37*
X50290330Y-27819029D02*
X50561161Y-27999992D01*
X50143179Y-28381510D01*
X50085664Y-28504228D01*
X49869670Y-28180971D01*
X49598828Y-28000000D01*
X49869670Y-27819029D01*
X50080000Y-27504248D01*
X50290330Y-27819029D01*
G36*
X29970330Y-27819029D02*
X30241161Y-27999992D01*
X29823179Y-28381510D01*
X29765664Y-28504228D01*
X29549670Y-28180971D01*
X29278828Y-28000000D01*
X29549670Y-27819029D01*
X29760000Y-27504248D01*
X29970330Y-27819029D01*
X29970330Y-27819029D01*
G37*
X29970330Y-27819029D02*
X30241161Y-27999992D01*
X29823179Y-28381510D01*
X29765664Y-28504228D01*
X29549670Y-28180971D01*
X29278828Y-28000000D01*
X29549670Y-27819029D01*
X29760000Y-27504248D01*
X29970330Y-27819029D01*
G36*
X68070330Y-27819029D02*
X68341161Y-27999992D01*
X67923179Y-28381510D01*
X67865664Y-28504228D01*
X67649670Y-28180971D01*
X67378828Y-28000000D01*
X67649670Y-27819029D01*
X67860000Y-27504248D01*
X68070330Y-27819029D01*
X68070330Y-27819029D01*
G37*
X68070330Y-27819029D02*
X68341161Y-27999992D01*
X67923179Y-28381510D01*
X67865664Y-28504228D01*
X67649670Y-28180971D01*
X67378828Y-28000000D01*
X67649670Y-27819029D01*
X67860000Y-27504248D01*
X68070330Y-27819029D01*
G36*
X32510330Y-27819029D02*
X32781172Y-28000000D01*
X32510330Y-28180971D01*
X32294336Y-28504228D01*
X32236821Y-28381510D01*
X31818839Y-27999992D01*
X32089670Y-27819029D01*
X32300000Y-27504248D01*
X32510330Y-27819029D01*
X32510330Y-27819029D01*
G37*
X32510330Y-27819029D02*
X32781172Y-28000000D01*
X32510330Y-28180971D01*
X32294336Y-28504228D01*
X32236821Y-28381510D01*
X31818839Y-27999992D01*
X32089670Y-27819029D01*
X32300000Y-27504248D01*
X32510330Y-27819029D01*
G36*
X60303179Y-27618490D02*
X60721161Y-28000008D01*
X60450330Y-28180971D01*
X60240000Y-28495752D01*
X60029670Y-28180971D01*
X59758828Y-28000000D01*
X60029670Y-27819029D01*
X60245664Y-27495772D01*
X60303179Y-27618490D01*
X60303179Y-27618490D01*
G37*
X60303179Y-27618490D02*
X60721161Y-28000008D01*
X60450330Y-28180971D01*
X60240000Y-28495752D01*
X60029670Y-28180971D01*
X59758828Y-28000000D01*
X60029670Y-27819029D01*
X60245664Y-27495772D01*
X60303179Y-27618490D01*
G36*
X57910330Y-27819029D02*
X58181172Y-28000000D01*
X57910330Y-28180971D01*
X57700000Y-28495752D01*
X57489670Y-28180971D01*
X57218839Y-28000008D01*
X57636821Y-27618490D01*
X57694336Y-27495772D01*
X57910330Y-27819029D01*
X57910330Y-27819029D01*
G37*
X57910330Y-27819029D02*
X58181172Y-28000000D01*
X57910330Y-28180971D01*
X57700000Y-28495752D01*
X57489670Y-28180971D01*
X57218839Y-28000008D01*
X57636821Y-27618490D01*
X57694336Y-27495772D01*
X57910330Y-27819029D01*
G36*
X55223179Y-27618490D02*
X55641161Y-28000008D01*
X55370330Y-28180971D01*
X55160000Y-28495752D01*
X54949670Y-28180971D01*
X54678828Y-28000000D01*
X54949670Y-27819029D01*
X55165664Y-27495772D01*
X55223179Y-27618490D01*
X55223179Y-27618490D01*
G37*
X55223179Y-27618490D02*
X55641161Y-28000008D01*
X55370330Y-28180971D01*
X55160000Y-28495752D01*
X54949670Y-28180971D01*
X54678828Y-28000000D01*
X54949670Y-27819029D01*
X55165664Y-27495772D01*
X55223179Y-27618490D01*
G36*
X45210330Y-27819029D02*
X45481172Y-28000000D01*
X45210330Y-28180971D01*
X45000000Y-28495752D01*
X44789670Y-28180971D01*
X44518839Y-28000008D01*
X44936821Y-27618490D01*
X44994336Y-27495772D01*
X45210330Y-27819029D01*
X45210330Y-27819029D01*
G37*
X45210330Y-27819029D02*
X45481172Y-28000000D01*
X45210330Y-28180971D01*
X45000000Y-28495752D01*
X44789670Y-28180971D01*
X44518839Y-28000008D01*
X44936821Y-27618490D01*
X44994336Y-27495772D01*
X45210330Y-27819029D01*
G36*
X34903179Y-27618490D02*
X35321161Y-28000008D01*
X35050330Y-28180971D01*
X34840000Y-28495752D01*
X34629670Y-28180971D01*
X34358828Y-28000000D01*
X34629670Y-27819029D01*
X34845664Y-27495772D01*
X34903179Y-27618490D01*
X34903179Y-27618490D01*
G37*
X34903179Y-27618490D02*
X35321161Y-28000008D01*
X35050330Y-28180971D01*
X34840000Y-28495752D01*
X34629670Y-28180971D01*
X34358828Y-28000000D01*
X34629670Y-27819029D01*
X34845664Y-27495772D01*
X34903179Y-27618490D01*
G36*
X27430330Y-27819029D02*
X27701172Y-28000000D01*
X27430330Y-28180971D01*
X27220000Y-28495752D01*
X27009670Y-28180971D01*
X26738839Y-28000008D01*
X27156821Y-27618490D01*
X27214336Y-27495772D01*
X27430330Y-27819029D01*
X27430330Y-27819029D01*
G37*
X27430330Y-27819029D02*
X27701172Y-28000000D01*
X27430330Y-28180971D01*
X27220000Y-28495752D01*
X27009670Y-28180971D01*
X26738839Y-28000008D01*
X27156821Y-27618490D01*
X27214336Y-27495772D01*
X27430330Y-27819029D01*
G36*
X62990330Y-27819029D02*
X63261172Y-28000000D01*
X62990330Y-28180971D01*
X62780000Y-28495752D01*
X62569670Y-28180971D01*
X62298839Y-28000008D01*
X62716821Y-27618490D01*
X62774336Y-27495772D01*
X62990330Y-27819029D01*
X62990330Y-27819029D01*
G37*
X62990330Y-27819029D02*
X63261172Y-28000000D01*
X62990330Y-28180971D01*
X62780000Y-28495752D01*
X62569670Y-28180971D01*
X62298839Y-28000008D01*
X62716821Y-27618490D01*
X62774336Y-27495772D01*
X62990330Y-27819029D01*
G36*
X70358000Y-25892894D02*
X70189670Y-25640971D01*
X69703489Y-25316115D01*
X69130000Y-25202041D01*
X68556511Y-25316115D01*
X68070330Y-25640971D01*
X67860000Y-25955752D01*
X67649670Y-25640971D01*
X67163489Y-25316115D01*
X66590000Y-25202041D01*
X66016511Y-25316115D01*
X65530330Y-25640971D01*
X65320000Y-25955752D01*
X65109670Y-25640971D01*
X64623489Y-25316115D01*
X64050000Y-25202041D01*
X63476511Y-25316115D01*
X62990330Y-25640971D01*
X62774336Y-25964228D01*
X62716821Y-25841510D01*
X62284947Y-25447312D01*
X61869026Y-25275042D01*
X61637000Y-25396183D01*
X61637000Y-26603000D01*
X61657000Y-26603000D01*
X61657000Y-26857000D01*
X61637000Y-26857000D01*
X61637000Y-26877000D01*
X61383000Y-26877000D01*
X61383000Y-26857000D01*
X61363000Y-26857000D01*
X61363000Y-26603000D01*
X61383000Y-26603000D01*
X61383000Y-25396183D01*
X61150974Y-25275042D01*
X60735053Y-25447312D01*
X60303179Y-25841510D01*
X60245664Y-25964228D01*
X60029670Y-25640971D01*
X59543489Y-25316115D01*
X58970000Y-25202041D01*
X58396511Y-25316115D01*
X57910330Y-25640971D01*
X57694336Y-25964228D01*
X57636821Y-25841510D01*
X57204947Y-25447312D01*
X56789026Y-25275042D01*
X56557000Y-25396183D01*
X56557000Y-26603000D01*
X56577000Y-26603000D01*
X56577000Y-26857000D01*
X56557000Y-26857000D01*
X56557000Y-26877000D01*
X56303000Y-26877000D01*
X56303000Y-26857000D01*
X56283000Y-26857000D01*
X56283000Y-26603000D01*
X56303000Y-26603000D01*
X56303000Y-25396183D01*
X56070974Y-25275042D01*
X55655053Y-25447312D01*
X55223179Y-25841510D01*
X55165664Y-25964228D01*
X54949670Y-25640971D01*
X54463489Y-25316115D01*
X53890000Y-25202041D01*
X53316511Y-25316115D01*
X52830330Y-25640971D01*
X52620000Y-25955752D01*
X52409670Y-25640971D01*
X51923489Y-25316115D01*
X51350000Y-25202041D01*
X50776511Y-25316115D01*
X50290330Y-25640971D01*
X50080000Y-25955752D01*
X49869670Y-25640971D01*
X49383489Y-25316115D01*
X48810000Y-25202041D01*
X48236511Y-25316115D01*
X47750330Y-25640971D01*
X47540000Y-25955752D01*
X47329670Y-25640971D01*
X46843489Y-25316115D01*
X46270000Y-25202041D01*
X45696511Y-25316115D01*
X45210330Y-25640971D01*
X44994336Y-25964228D01*
X44936821Y-25841510D01*
X44504947Y-25447312D01*
X44089026Y-25275042D01*
X43857000Y-25396183D01*
X43857000Y-26603000D01*
X43877000Y-26603000D01*
X43877000Y-26857000D01*
X43857000Y-26857000D01*
X43857000Y-26877000D01*
X43603000Y-26877000D01*
X43603000Y-26857000D01*
X43583000Y-26857000D01*
X43583000Y-26603000D01*
X43603000Y-26603000D01*
X43603000Y-25396183D01*
X43370974Y-25275042D01*
X42955053Y-25447312D01*
X42523179Y-25841510D01*
X42465664Y-25964228D01*
X42249670Y-25640971D01*
X41763489Y-25316115D01*
X41190000Y-25202041D01*
X40616511Y-25316115D01*
X40130330Y-25640971D01*
X39920000Y-25955752D01*
X39709670Y-25640971D01*
X39223489Y-25316115D01*
X38650000Y-25202041D01*
X38076511Y-25316115D01*
X37590330Y-25640971D01*
X37374336Y-25964228D01*
X37316821Y-25841510D01*
X36884947Y-25447312D01*
X36469026Y-25275042D01*
X36237000Y-25396183D01*
X36237000Y-26603000D01*
X36257000Y-26603000D01*
X36257000Y-26857000D01*
X36237000Y-26857000D01*
X36237000Y-26877000D01*
X35983000Y-26877000D01*
X35983000Y-26857000D01*
X35963000Y-26857000D01*
X35963000Y-26603000D01*
X35983000Y-26603000D01*
X35983000Y-25396183D01*
X35750974Y-25275042D01*
X35335053Y-25447312D01*
X34903179Y-25841510D01*
X34845664Y-25964228D01*
X34629670Y-25640971D01*
X34143489Y-25316115D01*
X33570000Y-25202041D01*
X32996511Y-25316115D01*
X32510330Y-25640971D01*
X32300000Y-25955752D01*
X32089670Y-25640971D01*
X31603489Y-25316115D01*
X31030000Y-25202041D01*
X30456511Y-25316115D01*
X29970330Y-25640971D01*
X29760000Y-25955752D01*
X29549670Y-25640971D01*
X29063489Y-25316115D01*
X28490000Y-25202041D01*
X27916511Y-25316115D01*
X27430330Y-25640971D01*
X27214336Y-25964228D01*
X27156821Y-25841510D01*
X26724947Y-25447312D01*
X26309026Y-25275042D01*
X26077000Y-25396183D01*
X26077000Y-26603000D01*
X26097000Y-26603000D01*
X26097000Y-26857000D01*
X26077000Y-26857000D01*
X26077000Y-26877000D01*
X25823000Y-26877000D01*
X25823000Y-26857000D01*
X25803000Y-26857000D01*
X25803000Y-26603000D01*
X25823000Y-26603000D01*
X25823000Y-25396183D01*
X25590974Y-25275042D01*
X25175053Y-25447312D01*
X24743179Y-25841510D01*
X24685664Y-25964228D01*
X24469670Y-25640971D01*
X23983489Y-25316115D01*
X23410000Y-25202041D01*
X22836511Y-25316115D01*
X22350330Y-25640971D01*
X22140000Y-25955752D01*
X21929670Y-25640971D01*
X21443489Y-25316115D01*
X20870000Y-25202041D01*
X20296511Y-25316115D01*
X19812000Y-25639855D01*
X19812000Y-25185000D01*
X70358000Y-25185000D01*
X70358000Y-25892894D01*
X70358000Y-25892894D01*
G37*
X70358000Y-25892894D02*
X70189670Y-25640971D01*
X69703489Y-25316115D01*
X69130000Y-25202041D01*
X68556511Y-25316115D01*
X68070330Y-25640971D01*
X67860000Y-25955752D01*
X67649670Y-25640971D01*
X67163489Y-25316115D01*
X66590000Y-25202041D01*
X66016511Y-25316115D01*
X65530330Y-25640971D01*
X65320000Y-25955752D01*
X65109670Y-25640971D01*
X64623489Y-25316115D01*
X64050000Y-25202041D01*
X63476511Y-25316115D01*
X62990330Y-25640971D01*
X62774336Y-25964228D01*
X62716821Y-25841510D01*
X62284947Y-25447312D01*
X61869026Y-25275042D01*
X61637000Y-25396183D01*
X61637000Y-26603000D01*
X61657000Y-26603000D01*
X61657000Y-26857000D01*
X61637000Y-26857000D01*
X61637000Y-26877000D01*
X61383000Y-26877000D01*
X61383000Y-26857000D01*
X61363000Y-26857000D01*
X61363000Y-26603000D01*
X61383000Y-26603000D01*
X61383000Y-25396183D01*
X61150974Y-25275042D01*
X60735053Y-25447312D01*
X60303179Y-25841510D01*
X60245664Y-25964228D01*
X60029670Y-25640971D01*
X59543489Y-25316115D01*
X58970000Y-25202041D01*
X58396511Y-25316115D01*
X57910330Y-25640971D01*
X57694336Y-25964228D01*
X57636821Y-25841510D01*
X57204947Y-25447312D01*
X56789026Y-25275042D01*
X56557000Y-25396183D01*
X56557000Y-26603000D01*
X56577000Y-26603000D01*
X56577000Y-26857000D01*
X56557000Y-26857000D01*
X56557000Y-26877000D01*
X56303000Y-26877000D01*
X56303000Y-26857000D01*
X56283000Y-26857000D01*
X56283000Y-26603000D01*
X56303000Y-26603000D01*
X56303000Y-25396183D01*
X56070974Y-25275042D01*
X55655053Y-25447312D01*
X55223179Y-25841510D01*
X55165664Y-25964228D01*
X54949670Y-25640971D01*
X54463489Y-25316115D01*
X53890000Y-25202041D01*
X53316511Y-25316115D01*
X52830330Y-25640971D01*
X52620000Y-25955752D01*
X52409670Y-25640971D01*
X51923489Y-25316115D01*
X51350000Y-25202041D01*
X50776511Y-25316115D01*
X50290330Y-25640971D01*
X50080000Y-25955752D01*
X49869670Y-25640971D01*
X49383489Y-25316115D01*
X48810000Y-25202041D01*
X48236511Y-25316115D01*
X47750330Y-25640971D01*
X47540000Y-25955752D01*
X47329670Y-25640971D01*
X46843489Y-25316115D01*
X46270000Y-25202041D01*
X45696511Y-25316115D01*
X45210330Y-25640971D01*
X44994336Y-25964228D01*
X44936821Y-25841510D01*
X44504947Y-25447312D01*
X44089026Y-25275042D01*
X43857000Y-25396183D01*
X43857000Y-26603000D01*
X43877000Y-26603000D01*
X43877000Y-26857000D01*
X43857000Y-26857000D01*
X43857000Y-26877000D01*
X43603000Y-26877000D01*
X43603000Y-26857000D01*
X43583000Y-26857000D01*
X43583000Y-26603000D01*
X43603000Y-26603000D01*
X43603000Y-25396183D01*
X43370974Y-25275042D01*
X42955053Y-25447312D01*
X42523179Y-25841510D01*
X42465664Y-25964228D01*
X42249670Y-25640971D01*
X41763489Y-25316115D01*
X41190000Y-25202041D01*
X40616511Y-25316115D01*
X40130330Y-25640971D01*
X39920000Y-25955752D01*
X39709670Y-25640971D01*
X39223489Y-25316115D01*
X38650000Y-25202041D01*
X38076511Y-25316115D01*
X37590330Y-25640971D01*
X37374336Y-25964228D01*
X37316821Y-25841510D01*
X36884947Y-25447312D01*
X36469026Y-25275042D01*
X36237000Y-25396183D01*
X36237000Y-26603000D01*
X36257000Y-26603000D01*
X36257000Y-26857000D01*
X36237000Y-26857000D01*
X36237000Y-26877000D01*
X35983000Y-26877000D01*
X35983000Y-26857000D01*
X35963000Y-26857000D01*
X35963000Y-26603000D01*
X35983000Y-26603000D01*
X35983000Y-25396183D01*
X35750974Y-25275042D01*
X35335053Y-25447312D01*
X34903179Y-25841510D01*
X34845664Y-25964228D01*
X34629670Y-25640971D01*
X34143489Y-25316115D01*
X33570000Y-25202041D01*
X32996511Y-25316115D01*
X32510330Y-25640971D01*
X32300000Y-25955752D01*
X32089670Y-25640971D01*
X31603489Y-25316115D01*
X31030000Y-25202041D01*
X30456511Y-25316115D01*
X29970330Y-25640971D01*
X29760000Y-25955752D01*
X29549670Y-25640971D01*
X29063489Y-25316115D01*
X28490000Y-25202041D01*
X27916511Y-25316115D01*
X27430330Y-25640971D01*
X27214336Y-25964228D01*
X27156821Y-25841510D01*
X26724947Y-25447312D01*
X26309026Y-25275042D01*
X26077000Y-25396183D01*
X26077000Y-26603000D01*
X26097000Y-26603000D01*
X26097000Y-26857000D01*
X26077000Y-26857000D01*
X26077000Y-26877000D01*
X25823000Y-26877000D01*
X25823000Y-26857000D01*
X25803000Y-26857000D01*
X25803000Y-26603000D01*
X25823000Y-26603000D01*
X25823000Y-25396183D01*
X25590974Y-25275042D01*
X25175053Y-25447312D01*
X24743179Y-25841510D01*
X24685664Y-25964228D01*
X24469670Y-25640971D01*
X23983489Y-25316115D01*
X23410000Y-25202041D01*
X22836511Y-25316115D01*
X22350330Y-25640971D01*
X22140000Y-25955752D01*
X21929670Y-25640971D01*
X21443489Y-25316115D01*
X20870000Y-25202041D01*
X20296511Y-25316115D01*
X19812000Y-25639855D01*
X19812000Y-25185000D01*
X70358000Y-25185000D01*
X70358000Y-25892894D01*
M02*
