M48
; DRILL file {KiCad (5.1.2)-2} date 8/20/2019 6:50:38 PM
; FORMAT={-:-/ absolute / metric / decimal}
; #@! TF.CreationDate,2019-08-20T18:50:38-04:00
; #@! TF.GenerationSoftware,Kicad,Pcbnew,(5.1.2)-2
FMAT,2
METRIC
T1C0.400
T2C1.000
T3C1.097
T4C1.300
T5C3.000
T6C2.750
%
G90
G05
T1
X56.5Y-41.0
X57.0Y-32.5
X64.5Y-34.0
X66.0Y-37.0
X66.0Y-41.5
T2
X21.0Y-26.96
X21.0Y-29.5
X23.54Y-26.96
X23.54Y-29.5
X26.08Y-26.96
X26.08Y-29.5
X28.62Y-26.96
X28.62Y-29.5
X31.16Y-26.96
X31.16Y-29.5
X33.7Y-26.96
X33.7Y-29.5
X36.24Y-26.96
X36.24Y-29.5
X38.78Y-26.96
X38.78Y-29.5
X41.32Y-26.96
X41.32Y-29.5
X43.86Y-26.96
X43.86Y-29.5
X46.4Y-26.96
X46.4Y-29.5
X48.94Y-26.96
X48.94Y-29.5
X51.48Y-26.96
X51.48Y-29.5
X54.02Y-26.96
X54.02Y-29.5
X56.56Y-26.96
X56.56Y-29.5
X59.1Y-26.96
X59.1Y-29.5
X61.64Y-26.96
X61.64Y-29.5
X64.18Y-26.96
X64.18Y-29.5
X66.72Y-26.96
X66.72Y-29.5
X69.26Y-26.96
X69.26Y-29.5
T3
X72.0Y-35.19
X72.0Y-37.73
X72.0Y-40.27
X72.0Y-42.81
T4
X25.44Y-47.625
X30.44Y-47.625
T5
X15.701Y-37.5
X18.7Y-42.199
X21.7Y-37.5
T6
X16.0Y-51.0
X74.0Y-51.0
X74.0Y-28.0
X16.0Y-28.0
T0
M30
