G04 #@! TF.GenerationSoftware,KiCad,Pcbnew,(5.1.2)-2*
G04 #@! TF.CreationDate,2019-08-22T16:24:48-04:00*
G04 #@! TF.ProjectId,PiPixelv2,50695069-7865-46c7-9632-2e6b69636164,rev?*
G04 #@! TF.SameCoordinates,Original*
G04 #@! TF.FileFunction,Copper,L2,Bot*
G04 #@! TF.FilePolarity,Positive*
%FSLAX46Y46*%
G04 Gerber Fmt 4.6, Leading zero omitted, Abs format (unit mm)*
G04 Created by KiCad (PCBNEW (5.1.2)-2) date 2019-08-22 16:24:48*
%MOMM*%
%LPD*%
G04 APERTURE LIST*
%ADD10O,1.700000X1.700000*%
%ADD11R,1.700000X1.700000*%
%ADD12C,3.000000*%
%ADD13C,4.500000*%
%ADD14C,2.500000*%
%ADD15O,1.998980X1.998980*%
%ADD16R,1.998980X1.998980*%
%ADD17C,0.600000*%
%ADD18C,0.250000*%
%ADD19C,0.254000*%
G04 APERTURE END LIST*
D10*
X69260000Y-26960000D03*
X69260000Y-29500000D03*
X66720000Y-26960000D03*
X66720000Y-29500000D03*
X64180000Y-26960000D03*
X64180000Y-29500000D03*
X61640000Y-26960000D03*
X61640000Y-29500000D03*
X59100000Y-26960000D03*
X59100000Y-29500000D03*
X56560000Y-26960000D03*
X56560000Y-29500000D03*
X54020000Y-26960000D03*
X54020000Y-29500000D03*
X51480000Y-26960000D03*
X51480000Y-29500000D03*
X48940000Y-26960000D03*
X48940000Y-29500000D03*
X46400000Y-26960000D03*
X46400000Y-29500000D03*
X43860000Y-26960000D03*
X43860000Y-29500000D03*
X41320000Y-26960000D03*
X41320000Y-29500000D03*
X38780000Y-26960000D03*
X38780000Y-29500000D03*
X36240000Y-26960000D03*
X36240000Y-29500000D03*
X33700000Y-26960000D03*
X33700000Y-29500000D03*
X31160000Y-26960000D03*
X31160000Y-29500000D03*
X28620000Y-26960000D03*
X28620000Y-29500000D03*
X26080000Y-26960000D03*
X26080000Y-29500000D03*
X23540000Y-26960000D03*
X23540000Y-29500000D03*
X21000000Y-26960000D03*
D11*
X21000000Y-29500000D03*
D12*
X16000000Y-28000000D03*
X16000000Y-51000000D03*
X74000000Y-51000000D03*
X74000000Y-28000000D03*
D13*
X21700140Y-37500000D03*
X15700660Y-37500000D03*
X18700400Y-42199000D03*
D14*
X25440000Y-47625000D03*
X30440000Y-47625000D03*
D15*
X72000000Y-42810000D03*
D16*
X72000000Y-35190000D03*
D15*
X72000000Y-37730000D03*
X72000000Y-40270000D03*
D17*
X64500000Y-34000000D03*
X66000000Y-37000000D03*
X57000000Y-32500000D03*
X66000000Y-41500006D03*
X56500000Y-41000000D03*
D18*
X69000000Y-29500000D02*
X69260000Y-29500000D01*
X64500000Y-34000000D02*
X69000000Y-29500000D01*
X62489999Y-27809999D02*
X61640000Y-26960000D01*
X63004999Y-28324999D02*
X62489999Y-27809999D01*
X68084999Y-28324999D02*
X63004999Y-28324999D01*
X69260000Y-29500000D02*
X68084999Y-28324999D01*
X37089999Y-27809999D02*
X36240000Y-26960000D01*
X37604999Y-28324999D02*
X37089999Y-27809999D01*
X42495001Y-28324999D02*
X37604999Y-28324999D01*
X43860000Y-26960000D02*
X42495001Y-28324999D01*
X32009999Y-28650001D02*
X31160000Y-29500000D01*
X32524999Y-28135001D02*
X32009999Y-28650001D01*
X35064999Y-28135001D02*
X32524999Y-28135001D01*
X36240000Y-26960000D02*
X35064999Y-28135001D01*
X26929999Y-27809999D02*
X26080000Y-26960000D01*
X27444999Y-28324999D02*
X26929999Y-27809999D01*
X29984999Y-28324999D02*
X27444999Y-28324999D01*
X31160000Y-29500000D02*
X29984999Y-28324999D01*
X57409999Y-27809999D02*
X56560000Y-26960000D01*
X57735001Y-28135001D02*
X57409999Y-27809999D01*
X60464999Y-28135001D02*
X57735001Y-28135001D01*
X61640000Y-26960000D02*
X60464999Y-28135001D01*
X52329999Y-28650001D02*
X51480000Y-29500000D01*
X52844999Y-28135001D02*
X52329999Y-28650001D01*
X55384999Y-28135001D02*
X52844999Y-28135001D01*
X56560000Y-26960000D02*
X55384999Y-28135001D01*
X44400000Y-27500000D02*
X43860000Y-26960000D01*
X45200998Y-27500000D02*
X44400000Y-27500000D01*
X45835999Y-28135001D02*
X45200998Y-27500000D01*
X49314003Y-28135001D02*
X45835999Y-28135001D01*
X51480000Y-29500000D02*
X50679002Y-29500000D01*
X50679002Y-29500000D02*
X49314003Y-28135001D01*
X17950659Y-35250001D02*
X15700660Y-37500000D01*
X19529001Y-35250001D02*
X17950659Y-35250001D01*
X24715001Y-30064001D02*
X19529001Y-35250001D01*
X24715001Y-28324999D02*
X24715001Y-30064001D01*
X26080000Y-26960000D02*
X24715001Y-28324999D01*
X57424264Y-32500000D02*
X57000000Y-32500000D01*
X60000000Y-32500000D02*
X57424264Y-32500000D01*
X66000000Y-37000000D02*
X64500000Y-37000000D01*
X64500000Y-37000000D02*
X60000000Y-32500000D01*
X66000000Y-41500006D02*
X65499994Y-41000000D01*
X65499994Y-41000000D02*
X56924264Y-41000000D01*
X56924264Y-41000000D02*
X56500000Y-41000000D01*
D19*
G36*
X19511928Y-30350000D02*
G01*
X19524188Y-30474482D01*
X19560498Y-30594180D01*
X19619463Y-30704494D01*
X19698815Y-30801185D01*
X19795506Y-30880537D01*
X19905820Y-30939502D01*
X20025518Y-30975812D01*
X20150000Y-30988072D01*
X21850000Y-30988072D01*
X21974482Y-30975812D01*
X22094180Y-30939502D01*
X22204494Y-30880537D01*
X22301185Y-30801185D01*
X22380537Y-30704494D01*
X22439502Y-30594180D01*
X22460393Y-30525313D01*
X22484866Y-30555134D01*
X22710986Y-30740706D01*
X22968966Y-30878599D01*
X23248889Y-30963513D01*
X23467050Y-30985000D01*
X23612950Y-30985000D01*
X23831111Y-30963513D01*
X24111034Y-30878599D01*
X24369014Y-30740706D01*
X24595134Y-30555134D01*
X24780706Y-30329014D01*
X24810000Y-30274209D01*
X24839294Y-30329014D01*
X25024866Y-30555134D01*
X25250986Y-30740706D01*
X25508966Y-30878599D01*
X25788889Y-30963513D01*
X26007050Y-30985000D01*
X26152950Y-30985000D01*
X26371111Y-30963513D01*
X26651034Y-30878599D01*
X26909014Y-30740706D01*
X27135134Y-30555134D01*
X27320706Y-30329014D01*
X27350000Y-30274209D01*
X27379294Y-30329014D01*
X27564866Y-30555134D01*
X27790986Y-30740706D01*
X28048966Y-30878599D01*
X28328889Y-30963513D01*
X28547050Y-30985000D01*
X28692950Y-30985000D01*
X28911111Y-30963513D01*
X29191034Y-30878599D01*
X29449014Y-30740706D01*
X29675134Y-30555134D01*
X29860706Y-30329014D01*
X29895201Y-30264477D01*
X29964822Y-30381355D01*
X30159731Y-30597588D01*
X30393080Y-30771641D01*
X30655901Y-30896825D01*
X30803110Y-30941476D01*
X31033000Y-30820155D01*
X31033000Y-29627000D01*
X31013000Y-29627000D01*
X31013000Y-29373000D01*
X31033000Y-29373000D01*
X31033000Y-29353000D01*
X31287000Y-29353000D01*
X31287000Y-29373000D01*
X31307000Y-29373000D01*
X31307000Y-29627000D01*
X31287000Y-29627000D01*
X31287000Y-30820155D01*
X31516890Y-30941476D01*
X31664099Y-30896825D01*
X31926920Y-30771641D01*
X32160269Y-30597588D01*
X32355178Y-30381355D01*
X32424799Y-30264477D01*
X32459294Y-30329014D01*
X32644866Y-30555134D01*
X32870986Y-30740706D01*
X33128966Y-30878599D01*
X33408889Y-30963513D01*
X33627050Y-30985000D01*
X33772950Y-30985000D01*
X33991111Y-30963513D01*
X34271034Y-30878599D01*
X34529014Y-30740706D01*
X34755134Y-30555134D01*
X34940706Y-30329014D01*
X34970000Y-30274209D01*
X34999294Y-30329014D01*
X35184866Y-30555134D01*
X35410986Y-30740706D01*
X35668966Y-30878599D01*
X35948889Y-30963513D01*
X36167050Y-30985000D01*
X36312950Y-30985000D01*
X36531111Y-30963513D01*
X36811034Y-30878599D01*
X37069014Y-30740706D01*
X37295134Y-30555134D01*
X37480706Y-30329014D01*
X37510000Y-30274209D01*
X37539294Y-30329014D01*
X37724866Y-30555134D01*
X37950986Y-30740706D01*
X38208966Y-30878599D01*
X38488889Y-30963513D01*
X38707050Y-30985000D01*
X38852950Y-30985000D01*
X39071111Y-30963513D01*
X39351034Y-30878599D01*
X39609014Y-30740706D01*
X39835134Y-30555134D01*
X40020706Y-30329014D01*
X40050000Y-30274209D01*
X40079294Y-30329014D01*
X40264866Y-30555134D01*
X40490986Y-30740706D01*
X40748966Y-30878599D01*
X41028889Y-30963513D01*
X41247050Y-30985000D01*
X41392950Y-30985000D01*
X41611111Y-30963513D01*
X41891034Y-30878599D01*
X42149014Y-30740706D01*
X42375134Y-30555134D01*
X42560706Y-30329014D01*
X42590000Y-30274209D01*
X42619294Y-30329014D01*
X42804866Y-30555134D01*
X43030986Y-30740706D01*
X43288966Y-30878599D01*
X43568889Y-30963513D01*
X43787050Y-30985000D01*
X43932950Y-30985000D01*
X44151111Y-30963513D01*
X44431034Y-30878599D01*
X44689014Y-30740706D01*
X44915134Y-30555134D01*
X45100706Y-30329014D01*
X45130000Y-30274209D01*
X45159294Y-30329014D01*
X45344866Y-30555134D01*
X45570986Y-30740706D01*
X45828966Y-30878599D01*
X46108889Y-30963513D01*
X46327050Y-30985000D01*
X46472950Y-30985000D01*
X46691111Y-30963513D01*
X46971034Y-30878599D01*
X47229014Y-30740706D01*
X47455134Y-30555134D01*
X47640706Y-30329014D01*
X47670000Y-30274209D01*
X47699294Y-30329014D01*
X47884866Y-30555134D01*
X48110986Y-30740706D01*
X48368966Y-30878599D01*
X48648889Y-30963513D01*
X48867050Y-30985000D01*
X49012950Y-30985000D01*
X49231111Y-30963513D01*
X49511034Y-30878599D01*
X49769014Y-30740706D01*
X49995134Y-30555134D01*
X50180706Y-30329014D01*
X50215201Y-30264477D01*
X50284822Y-30381355D01*
X50479731Y-30597588D01*
X50713080Y-30771641D01*
X50975901Y-30896825D01*
X51123110Y-30941476D01*
X51353000Y-30820155D01*
X51353000Y-29627000D01*
X51333000Y-29627000D01*
X51333000Y-29373000D01*
X51353000Y-29373000D01*
X51353000Y-29353000D01*
X51607000Y-29353000D01*
X51607000Y-29373000D01*
X51627000Y-29373000D01*
X51627000Y-29627000D01*
X51607000Y-29627000D01*
X51607000Y-30820155D01*
X51836890Y-30941476D01*
X51984099Y-30896825D01*
X52246920Y-30771641D01*
X52480269Y-30597588D01*
X52675178Y-30381355D01*
X52744799Y-30264477D01*
X52779294Y-30329014D01*
X52964866Y-30555134D01*
X53190986Y-30740706D01*
X53448966Y-30878599D01*
X53728889Y-30963513D01*
X53947050Y-30985000D01*
X54092950Y-30985000D01*
X54311111Y-30963513D01*
X54591034Y-30878599D01*
X54849014Y-30740706D01*
X55075134Y-30555134D01*
X55260706Y-30329014D01*
X55290000Y-30274209D01*
X55319294Y-30329014D01*
X55504866Y-30555134D01*
X55730986Y-30740706D01*
X55988966Y-30878599D01*
X56268889Y-30963513D01*
X56487050Y-30985000D01*
X56632950Y-30985000D01*
X56851111Y-30963513D01*
X57131034Y-30878599D01*
X57389014Y-30740706D01*
X57615134Y-30555134D01*
X57800706Y-30329014D01*
X57830000Y-30274209D01*
X57859294Y-30329014D01*
X58044866Y-30555134D01*
X58270986Y-30740706D01*
X58528966Y-30878599D01*
X58808889Y-30963513D01*
X59027050Y-30985000D01*
X59172950Y-30985000D01*
X59391111Y-30963513D01*
X59671034Y-30878599D01*
X59929014Y-30740706D01*
X60155134Y-30555134D01*
X60340706Y-30329014D01*
X60370000Y-30274209D01*
X60399294Y-30329014D01*
X60584866Y-30555134D01*
X60810986Y-30740706D01*
X61068966Y-30878599D01*
X61348889Y-30963513D01*
X61567050Y-30985000D01*
X61712950Y-30985000D01*
X61931111Y-30963513D01*
X62211034Y-30878599D01*
X62469014Y-30740706D01*
X62695134Y-30555134D01*
X62880706Y-30329014D01*
X62910000Y-30274209D01*
X62939294Y-30329014D01*
X63124866Y-30555134D01*
X63350986Y-30740706D01*
X63608966Y-30878599D01*
X63888889Y-30963513D01*
X64107050Y-30985000D01*
X64252950Y-30985000D01*
X64471111Y-30963513D01*
X64751034Y-30878599D01*
X65009014Y-30740706D01*
X65235134Y-30555134D01*
X65420706Y-30329014D01*
X65450000Y-30274209D01*
X65479294Y-30329014D01*
X65664866Y-30555134D01*
X65890986Y-30740706D01*
X66148966Y-30878599D01*
X66428889Y-30963513D01*
X66647050Y-30985000D01*
X66792950Y-30985000D01*
X67011111Y-30963513D01*
X67291034Y-30878599D01*
X67549014Y-30740706D01*
X67775134Y-30555134D01*
X67960706Y-30329014D01*
X67995201Y-30264477D01*
X68064822Y-30381355D01*
X68259731Y-30597588D01*
X68493080Y-30771641D01*
X68755901Y-30896825D01*
X68903110Y-30941476D01*
X69133000Y-30820155D01*
X69133000Y-29627000D01*
X69113000Y-29627000D01*
X69113000Y-29373000D01*
X69133000Y-29373000D01*
X69133000Y-29353000D01*
X69387000Y-29353000D01*
X69387000Y-29373000D01*
X69407000Y-29373000D01*
X69407000Y-29627000D01*
X69387000Y-29627000D01*
X69387000Y-30820155D01*
X69616890Y-30941476D01*
X69764099Y-30896825D01*
X70026920Y-30771641D01*
X70260269Y-30597588D01*
X70455178Y-30381355D01*
X70604157Y-30131252D01*
X70701481Y-29856891D01*
X70580815Y-29627002D01*
X70722396Y-29627002D01*
X72935197Y-31839803D01*
X72954443Y-31855597D01*
X72976399Y-31867333D01*
X73000224Y-31874560D01*
X73025000Y-31877000D01*
X76708000Y-31877000D01*
X76708000Y-47498000D01*
X72390000Y-47498000D01*
X72365224Y-47500440D01*
X72341399Y-47507667D01*
X72319443Y-47519403D01*
X72300197Y-47535197D01*
X72288400Y-47548800D01*
X70383400Y-50088800D01*
X70370486Y-50110085D01*
X70361973Y-50133481D01*
X70358000Y-50165000D01*
X70358000Y-53815000D01*
X19812000Y-53815000D01*
X19812000Y-48938605D01*
X24306000Y-48938605D01*
X24431914Y-49228577D01*
X24764126Y-49394433D01*
X25122312Y-49492290D01*
X25492706Y-49518389D01*
X25861075Y-49471725D01*
X26213262Y-49354094D01*
X26448086Y-49228577D01*
X26574000Y-48938605D01*
X25440000Y-47804605D01*
X24306000Y-48938605D01*
X19812000Y-48938605D01*
X19812000Y-47677706D01*
X23546611Y-47677706D01*
X23593275Y-48046075D01*
X23710906Y-48398262D01*
X23836423Y-48633086D01*
X24126395Y-48759000D01*
X25260395Y-47625000D01*
X25619605Y-47625000D01*
X26753605Y-48759000D01*
X27043577Y-48633086D01*
X27209433Y-48300874D01*
X27307290Y-47942688D01*
X27333389Y-47572294D01*
X27316548Y-47439344D01*
X28555000Y-47439344D01*
X28555000Y-47810656D01*
X28627439Y-48174834D01*
X28769534Y-48517882D01*
X28975825Y-48826618D01*
X29238382Y-49089175D01*
X29547118Y-49295466D01*
X29890166Y-49437561D01*
X30254344Y-49510000D01*
X30625656Y-49510000D01*
X30989834Y-49437561D01*
X31332882Y-49295466D01*
X31641618Y-49089175D01*
X31904175Y-48826618D01*
X32110466Y-48517882D01*
X32252561Y-48174834D01*
X32325000Y-47810656D01*
X32325000Y-47439344D01*
X32252561Y-47075166D01*
X32110466Y-46732118D01*
X31904175Y-46423382D01*
X31641618Y-46160825D01*
X31332882Y-45954534D01*
X30989834Y-45812439D01*
X30625656Y-45740000D01*
X30254344Y-45740000D01*
X29890166Y-45812439D01*
X29547118Y-45954534D01*
X29238382Y-46160825D01*
X28975825Y-46423382D01*
X28769534Y-46732118D01*
X28627439Y-47075166D01*
X28555000Y-47439344D01*
X27316548Y-47439344D01*
X27286725Y-47203925D01*
X27169094Y-46851738D01*
X27043577Y-46616914D01*
X26753605Y-46491000D01*
X25619605Y-47625000D01*
X25260395Y-47625000D01*
X24126395Y-46491000D01*
X23836423Y-46616914D01*
X23670567Y-46949126D01*
X23572710Y-47307312D01*
X23546611Y-47677706D01*
X19812000Y-47677706D01*
X19812000Y-46990000D01*
X19809560Y-46965224D01*
X19802333Y-46941399D01*
X19790597Y-46919443D01*
X19774803Y-46900197D01*
X19755557Y-46884403D01*
X19733601Y-46872667D01*
X19709776Y-46865440D01*
X19685000Y-46863000D01*
X13462000Y-46863000D01*
X13462000Y-46311395D01*
X24306000Y-46311395D01*
X25440000Y-47445395D01*
X26574000Y-46311395D01*
X26448086Y-46021423D01*
X26115874Y-45855567D01*
X25757688Y-45757710D01*
X25387294Y-45731611D01*
X25018925Y-45778275D01*
X24666738Y-45895906D01*
X24431914Y-46021423D01*
X24306000Y-46311395D01*
X13462000Y-46311395D01*
X13462000Y-44224340D01*
X16854665Y-44224340D01*
X17100816Y-44616704D01*
X17603222Y-44882312D01*
X18147793Y-45044801D01*
X18713599Y-45097928D01*
X19278898Y-45039652D01*
X19821966Y-44872210D01*
X20299984Y-44616704D01*
X20546135Y-44224340D01*
X18700400Y-42378605D01*
X16854665Y-44224340D01*
X13462000Y-44224340D01*
X13462000Y-39525340D01*
X13854925Y-39525340D01*
X14101076Y-39917704D01*
X14603482Y-40183312D01*
X15148053Y-40345801D01*
X15713859Y-40398928D01*
X16279158Y-40340652D01*
X16572117Y-40250325D01*
X16675058Y-40353266D01*
X16282696Y-40599416D01*
X16017088Y-41101822D01*
X15854599Y-41646393D01*
X15801472Y-42212199D01*
X15859748Y-42777498D01*
X16027190Y-43320566D01*
X16282696Y-43798584D01*
X16675060Y-44044735D01*
X18520795Y-42199000D01*
X18506653Y-42184858D01*
X18686258Y-42005253D01*
X18700400Y-42019395D01*
X18714543Y-42005253D01*
X18894148Y-42184858D01*
X18880005Y-42199000D01*
X20725740Y-44044735D01*
X21118104Y-43798584D01*
X21383712Y-43296178D01*
X21415287Y-43190355D01*
X70410377Y-43190355D01*
X70515125Y-43493167D01*
X70676936Y-43769725D01*
X70889591Y-44009401D01*
X71144919Y-44202985D01*
X71433107Y-44343037D01*
X71619646Y-44399619D01*
X71873000Y-44280265D01*
X71873000Y-42937000D01*
X72127000Y-42937000D01*
X72127000Y-44280265D01*
X72380354Y-44399619D01*
X72566893Y-44343037D01*
X72855081Y-44202985D01*
X73110409Y-44009401D01*
X73323064Y-43769725D01*
X73484875Y-43493167D01*
X73589623Y-43190355D01*
X73470803Y-42937000D01*
X72127000Y-42937000D01*
X71873000Y-42937000D01*
X70529197Y-42937000D01*
X70410377Y-43190355D01*
X21415287Y-43190355D01*
X21546201Y-42751607D01*
X21599328Y-42185801D01*
X21541052Y-41620502D01*
X21373610Y-41077434D01*
X21282999Y-40907911D01*
X55565000Y-40907911D01*
X55565000Y-41092089D01*
X55600932Y-41272729D01*
X55671414Y-41442889D01*
X55773738Y-41596028D01*
X55903972Y-41726262D01*
X56057111Y-41828586D01*
X56227271Y-41899068D01*
X56407911Y-41935000D01*
X56592089Y-41935000D01*
X56772729Y-41899068D01*
X56942889Y-41828586D01*
X57045535Y-41760000D01*
X65098399Y-41760000D01*
X65100932Y-41772735D01*
X65171414Y-41942895D01*
X65273738Y-42096034D01*
X65403972Y-42226268D01*
X65557111Y-42328592D01*
X65727271Y-42399074D01*
X65907911Y-42435006D01*
X66092089Y-42435006D01*
X66272729Y-42399074D01*
X66442889Y-42328592D01*
X66596028Y-42226268D01*
X66726262Y-42096034D01*
X66828586Y-41942895D01*
X66899068Y-41772735D01*
X66935000Y-41592095D01*
X66935000Y-41407917D01*
X66899068Y-41227277D01*
X66828586Y-41057117D01*
X66726262Y-40903978D01*
X66596028Y-40773744D01*
X66442889Y-40671420D01*
X66272729Y-40600938D01*
X66151648Y-40576853D01*
X66063798Y-40489003D01*
X66039995Y-40459999D01*
X65924270Y-40365026D01*
X65792241Y-40294454D01*
X65648980Y-40250997D01*
X65537327Y-40240000D01*
X65537316Y-40240000D01*
X65499994Y-40236324D01*
X65462672Y-40240000D01*
X57045535Y-40240000D01*
X56942889Y-40171414D01*
X56772729Y-40100932D01*
X56592089Y-40065000D01*
X56407911Y-40065000D01*
X56227271Y-40100932D01*
X56057111Y-40171414D01*
X55903972Y-40273738D01*
X55773738Y-40403972D01*
X55671414Y-40557111D01*
X55600932Y-40727271D01*
X55565000Y-40907911D01*
X21282999Y-40907911D01*
X21118104Y-40599416D01*
X20725742Y-40353266D01*
X20820617Y-40258391D01*
X20858617Y-40274131D01*
X21415992Y-40385000D01*
X21984288Y-40385000D01*
X22541663Y-40274131D01*
X23066700Y-40056654D01*
X23539220Y-39740926D01*
X23941066Y-39339080D01*
X24256794Y-38866560D01*
X24474271Y-38341523D01*
X24585140Y-37784148D01*
X24585140Y-37215852D01*
X24474271Y-36658477D01*
X24256794Y-36133440D01*
X23941066Y-35660920D01*
X23539220Y-35259074D01*
X23066700Y-34943346D01*
X22541663Y-34725869D01*
X21984288Y-34615000D01*
X21415992Y-34615000D01*
X20858617Y-34725869D01*
X20333580Y-34943346D01*
X19861060Y-35259074D01*
X19459214Y-35660920D01*
X19143486Y-36133440D01*
X18926009Y-36658477D01*
X18815140Y-37215852D01*
X18815140Y-37784148D01*
X18926009Y-38341523D01*
X19143486Y-38866560D01*
X19459214Y-39339080D01*
X19567032Y-39446898D01*
X19253007Y-39353199D01*
X18687201Y-39300072D01*
X18121902Y-39358348D01*
X17828943Y-39448675D01*
X17726002Y-39345734D01*
X18118364Y-39099584D01*
X18383972Y-38597178D01*
X18546461Y-38052607D01*
X18599588Y-37486801D01*
X18541312Y-36921502D01*
X18373870Y-36378434D01*
X18118364Y-35900416D01*
X17726000Y-35654265D01*
X15880265Y-37500000D01*
X15894408Y-37514143D01*
X15714803Y-37693748D01*
X15700660Y-37679605D01*
X13854925Y-39525340D01*
X13462000Y-39525340D01*
X13462000Y-39211908D01*
X13675320Y-39345735D01*
X15521055Y-37500000D01*
X13675320Y-35654265D01*
X13462000Y-35788092D01*
X13462000Y-35474660D01*
X13854925Y-35474660D01*
X15700660Y-37320395D01*
X17546395Y-35474660D01*
X17300244Y-35082296D01*
X16797838Y-34816688D01*
X16253267Y-34654199D01*
X15687461Y-34601072D01*
X15122162Y-34659348D01*
X14579094Y-34826790D01*
X14101076Y-35082296D01*
X13854925Y-35474660D01*
X13462000Y-35474660D01*
X13462000Y-32407911D01*
X56065000Y-32407911D01*
X56065000Y-32592089D01*
X56100932Y-32772729D01*
X56171414Y-32942889D01*
X56273738Y-33096028D01*
X56403972Y-33226262D01*
X56557111Y-33328586D01*
X56727271Y-33399068D01*
X56907911Y-33435000D01*
X57092089Y-33435000D01*
X57272729Y-33399068D01*
X57442889Y-33328586D01*
X57545535Y-33260000D01*
X59685199Y-33260000D01*
X63936201Y-37511003D01*
X63959999Y-37540001D01*
X63988997Y-37563799D01*
X64075723Y-37634974D01*
X64207753Y-37705546D01*
X64351014Y-37749003D01*
X64462667Y-37760000D01*
X64462676Y-37760000D01*
X64499999Y-37763676D01*
X64537322Y-37760000D01*
X65454465Y-37760000D01*
X65557111Y-37828586D01*
X65727271Y-37899068D01*
X65907911Y-37935000D01*
X66092089Y-37935000D01*
X66272729Y-37899068D01*
X66442889Y-37828586D01*
X66590433Y-37730000D01*
X70357602Y-37730000D01*
X70389160Y-38050416D01*
X70482622Y-38358519D01*
X70634396Y-38642467D01*
X70838649Y-38891351D01*
X70971039Y-39000000D01*
X70838649Y-39108649D01*
X70634396Y-39357533D01*
X70482622Y-39641481D01*
X70389160Y-39949584D01*
X70357602Y-40270000D01*
X70389160Y-40590416D01*
X70482622Y-40898519D01*
X70634396Y-41182467D01*
X70838649Y-41431351D01*
X70976642Y-41544599D01*
X70889591Y-41610599D01*
X70676936Y-41850275D01*
X70515125Y-42126833D01*
X70410377Y-42429645D01*
X70529197Y-42683000D01*
X71873000Y-42683000D01*
X71873000Y-42663000D01*
X72127000Y-42663000D01*
X72127000Y-42683000D01*
X73470803Y-42683000D01*
X73589623Y-42429645D01*
X73484875Y-42126833D01*
X73323064Y-41850275D01*
X73110409Y-41610599D01*
X73023358Y-41544599D01*
X73161351Y-41431351D01*
X73365604Y-41182467D01*
X73517378Y-40898519D01*
X73610840Y-40590416D01*
X73642398Y-40270000D01*
X73610840Y-39949584D01*
X73517378Y-39641481D01*
X73365604Y-39357533D01*
X73161351Y-39108649D01*
X73028961Y-39000000D01*
X73161351Y-38891351D01*
X73365604Y-38642467D01*
X73517378Y-38358519D01*
X73610840Y-38050416D01*
X73642398Y-37730000D01*
X73610840Y-37409584D01*
X73517378Y-37101481D01*
X73365604Y-36817533D01*
X73306439Y-36745440D01*
X73353984Y-36720027D01*
X73450675Y-36640675D01*
X73530027Y-36543984D01*
X73588992Y-36433670D01*
X73625302Y-36313972D01*
X73637562Y-36189490D01*
X73637562Y-34190510D01*
X73625302Y-34066028D01*
X73588992Y-33946330D01*
X73530027Y-33836016D01*
X73450675Y-33739325D01*
X73353984Y-33659973D01*
X73243670Y-33601008D01*
X73123972Y-33564698D01*
X72999490Y-33552438D01*
X71000510Y-33552438D01*
X70876028Y-33564698D01*
X70756330Y-33601008D01*
X70646016Y-33659973D01*
X70549325Y-33739325D01*
X70469973Y-33836016D01*
X70411008Y-33946330D01*
X70374698Y-34066028D01*
X70362438Y-34190510D01*
X70362438Y-36189490D01*
X70374698Y-36313972D01*
X70411008Y-36433670D01*
X70469973Y-36543984D01*
X70549325Y-36640675D01*
X70646016Y-36720027D01*
X70693561Y-36745440D01*
X70634396Y-36817533D01*
X70482622Y-37101481D01*
X70389160Y-37409584D01*
X70357602Y-37730000D01*
X66590433Y-37730000D01*
X66596028Y-37726262D01*
X66726262Y-37596028D01*
X66828586Y-37442889D01*
X66899068Y-37272729D01*
X66935000Y-37092089D01*
X66935000Y-36907911D01*
X66899068Y-36727271D01*
X66828586Y-36557111D01*
X66726262Y-36403972D01*
X66596028Y-36273738D01*
X66442889Y-36171414D01*
X66272729Y-36100932D01*
X66092089Y-36065000D01*
X65907911Y-36065000D01*
X65727271Y-36100932D01*
X65557111Y-36171414D01*
X65454465Y-36240000D01*
X64814802Y-36240000D01*
X60563804Y-31989003D01*
X60540001Y-31959999D01*
X60424276Y-31865026D01*
X60292247Y-31794454D01*
X60148986Y-31750997D01*
X60037333Y-31740000D01*
X60037322Y-31740000D01*
X60000000Y-31736324D01*
X59962678Y-31740000D01*
X57545535Y-31740000D01*
X57442889Y-31671414D01*
X57272729Y-31600932D01*
X57092089Y-31565000D01*
X56907911Y-31565000D01*
X56727271Y-31600932D01*
X56557111Y-31671414D01*
X56403972Y-31773738D01*
X56273738Y-31903972D01*
X56171414Y-32057111D01*
X56100932Y-32227271D01*
X56065000Y-32407911D01*
X13462000Y-32407911D01*
X13462000Y-31877000D01*
X19050000Y-31877000D01*
X19074776Y-31874560D01*
X19098601Y-31867333D01*
X19120557Y-31855597D01*
X19139803Y-31839803D01*
X19155597Y-31820557D01*
X19167333Y-31798601D01*
X19174560Y-31774776D01*
X19177000Y-31750000D01*
X19177000Y-29874980D01*
X19511928Y-29205124D01*
X19511928Y-30350000D01*
X19511928Y-30350000D01*
G37*
X19511928Y-30350000D02*
X19524188Y-30474482D01*
X19560498Y-30594180D01*
X19619463Y-30704494D01*
X19698815Y-30801185D01*
X19795506Y-30880537D01*
X19905820Y-30939502D01*
X20025518Y-30975812D01*
X20150000Y-30988072D01*
X21850000Y-30988072D01*
X21974482Y-30975812D01*
X22094180Y-30939502D01*
X22204494Y-30880537D01*
X22301185Y-30801185D01*
X22380537Y-30704494D01*
X22439502Y-30594180D01*
X22460393Y-30525313D01*
X22484866Y-30555134D01*
X22710986Y-30740706D01*
X22968966Y-30878599D01*
X23248889Y-30963513D01*
X23467050Y-30985000D01*
X23612950Y-30985000D01*
X23831111Y-30963513D01*
X24111034Y-30878599D01*
X24369014Y-30740706D01*
X24595134Y-30555134D01*
X24780706Y-30329014D01*
X24810000Y-30274209D01*
X24839294Y-30329014D01*
X25024866Y-30555134D01*
X25250986Y-30740706D01*
X25508966Y-30878599D01*
X25788889Y-30963513D01*
X26007050Y-30985000D01*
X26152950Y-30985000D01*
X26371111Y-30963513D01*
X26651034Y-30878599D01*
X26909014Y-30740706D01*
X27135134Y-30555134D01*
X27320706Y-30329014D01*
X27350000Y-30274209D01*
X27379294Y-30329014D01*
X27564866Y-30555134D01*
X27790986Y-30740706D01*
X28048966Y-30878599D01*
X28328889Y-30963513D01*
X28547050Y-30985000D01*
X28692950Y-30985000D01*
X28911111Y-30963513D01*
X29191034Y-30878599D01*
X29449014Y-30740706D01*
X29675134Y-30555134D01*
X29860706Y-30329014D01*
X29895201Y-30264477D01*
X29964822Y-30381355D01*
X30159731Y-30597588D01*
X30393080Y-30771641D01*
X30655901Y-30896825D01*
X30803110Y-30941476D01*
X31033000Y-30820155D01*
X31033000Y-29627000D01*
X31013000Y-29627000D01*
X31013000Y-29373000D01*
X31033000Y-29373000D01*
X31033000Y-29353000D01*
X31287000Y-29353000D01*
X31287000Y-29373000D01*
X31307000Y-29373000D01*
X31307000Y-29627000D01*
X31287000Y-29627000D01*
X31287000Y-30820155D01*
X31516890Y-30941476D01*
X31664099Y-30896825D01*
X31926920Y-30771641D01*
X32160269Y-30597588D01*
X32355178Y-30381355D01*
X32424799Y-30264477D01*
X32459294Y-30329014D01*
X32644866Y-30555134D01*
X32870986Y-30740706D01*
X33128966Y-30878599D01*
X33408889Y-30963513D01*
X33627050Y-30985000D01*
X33772950Y-30985000D01*
X33991111Y-30963513D01*
X34271034Y-30878599D01*
X34529014Y-30740706D01*
X34755134Y-30555134D01*
X34940706Y-30329014D01*
X34970000Y-30274209D01*
X34999294Y-30329014D01*
X35184866Y-30555134D01*
X35410986Y-30740706D01*
X35668966Y-30878599D01*
X35948889Y-30963513D01*
X36167050Y-30985000D01*
X36312950Y-30985000D01*
X36531111Y-30963513D01*
X36811034Y-30878599D01*
X37069014Y-30740706D01*
X37295134Y-30555134D01*
X37480706Y-30329014D01*
X37510000Y-30274209D01*
X37539294Y-30329014D01*
X37724866Y-30555134D01*
X37950986Y-30740706D01*
X38208966Y-30878599D01*
X38488889Y-30963513D01*
X38707050Y-30985000D01*
X38852950Y-30985000D01*
X39071111Y-30963513D01*
X39351034Y-30878599D01*
X39609014Y-30740706D01*
X39835134Y-30555134D01*
X40020706Y-30329014D01*
X40050000Y-30274209D01*
X40079294Y-30329014D01*
X40264866Y-30555134D01*
X40490986Y-30740706D01*
X40748966Y-30878599D01*
X41028889Y-30963513D01*
X41247050Y-30985000D01*
X41392950Y-30985000D01*
X41611111Y-30963513D01*
X41891034Y-30878599D01*
X42149014Y-30740706D01*
X42375134Y-30555134D01*
X42560706Y-30329014D01*
X42590000Y-30274209D01*
X42619294Y-30329014D01*
X42804866Y-30555134D01*
X43030986Y-30740706D01*
X43288966Y-30878599D01*
X43568889Y-30963513D01*
X43787050Y-30985000D01*
X43932950Y-30985000D01*
X44151111Y-30963513D01*
X44431034Y-30878599D01*
X44689014Y-30740706D01*
X44915134Y-30555134D01*
X45100706Y-30329014D01*
X45130000Y-30274209D01*
X45159294Y-30329014D01*
X45344866Y-30555134D01*
X45570986Y-30740706D01*
X45828966Y-30878599D01*
X46108889Y-30963513D01*
X46327050Y-30985000D01*
X46472950Y-30985000D01*
X46691111Y-30963513D01*
X46971034Y-30878599D01*
X47229014Y-30740706D01*
X47455134Y-30555134D01*
X47640706Y-30329014D01*
X47670000Y-30274209D01*
X47699294Y-30329014D01*
X47884866Y-30555134D01*
X48110986Y-30740706D01*
X48368966Y-30878599D01*
X48648889Y-30963513D01*
X48867050Y-30985000D01*
X49012950Y-30985000D01*
X49231111Y-30963513D01*
X49511034Y-30878599D01*
X49769014Y-30740706D01*
X49995134Y-30555134D01*
X50180706Y-30329014D01*
X50215201Y-30264477D01*
X50284822Y-30381355D01*
X50479731Y-30597588D01*
X50713080Y-30771641D01*
X50975901Y-30896825D01*
X51123110Y-30941476D01*
X51353000Y-30820155D01*
X51353000Y-29627000D01*
X51333000Y-29627000D01*
X51333000Y-29373000D01*
X51353000Y-29373000D01*
X51353000Y-29353000D01*
X51607000Y-29353000D01*
X51607000Y-29373000D01*
X51627000Y-29373000D01*
X51627000Y-29627000D01*
X51607000Y-29627000D01*
X51607000Y-30820155D01*
X51836890Y-30941476D01*
X51984099Y-30896825D01*
X52246920Y-30771641D01*
X52480269Y-30597588D01*
X52675178Y-30381355D01*
X52744799Y-30264477D01*
X52779294Y-30329014D01*
X52964866Y-30555134D01*
X53190986Y-30740706D01*
X53448966Y-30878599D01*
X53728889Y-30963513D01*
X53947050Y-30985000D01*
X54092950Y-30985000D01*
X54311111Y-30963513D01*
X54591034Y-30878599D01*
X54849014Y-30740706D01*
X55075134Y-30555134D01*
X55260706Y-30329014D01*
X55290000Y-30274209D01*
X55319294Y-30329014D01*
X55504866Y-30555134D01*
X55730986Y-30740706D01*
X55988966Y-30878599D01*
X56268889Y-30963513D01*
X56487050Y-30985000D01*
X56632950Y-30985000D01*
X56851111Y-30963513D01*
X57131034Y-30878599D01*
X57389014Y-30740706D01*
X57615134Y-30555134D01*
X57800706Y-30329014D01*
X57830000Y-30274209D01*
X57859294Y-30329014D01*
X58044866Y-30555134D01*
X58270986Y-30740706D01*
X58528966Y-30878599D01*
X58808889Y-30963513D01*
X59027050Y-30985000D01*
X59172950Y-30985000D01*
X59391111Y-30963513D01*
X59671034Y-30878599D01*
X59929014Y-30740706D01*
X60155134Y-30555134D01*
X60340706Y-30329014D01*
X60370000Y-30274209D01*
X60399294Y-30329014D01*
X60584866Y-30555134D01*
X60810986Y-30740706D01*
X61068966Y-30878599D01*
X61348889Y-30963513D01*
X61567050Y-30985000D01*
X61712950Y-30985000D01*
X61931111Y-30963513D01*
X62211034Y-30878599D01*
X62469014Y-30740706D01*
X62695134Y-30555134D01*
X62880706Y-30329014D01*
X62910000Y-30274209D01*
X62939294Y-30329014D01*
X63124866Y-30555134D01*
X63350986Y-30740706D01*
X63608966Y-30878599D01*
X63888889Y-30963513D01*
X64107050Y-30985000D01*
X64252950Y-30985000D01*
X64471111Y-30963513D01*
X64751034Y-30878599D01*
X65009014Y-30740706D01*
X65235134Y-30555134D01*
X65420706Y-30329014D01*
X65450000Y-30274209D01*
X65479294Y-30329014D01*
X65664866Y-30555134D01*
X65890986Y-30740706D01*
X66148966Y-30878599D01*
X66428889Y-30963513D01*
X66647050Y-30985000D01*
X66792950Y-30985000D01*
X67011111Y-30963513D01*
X67291034Y-30878599D01*
X67549014Y-30740706D01*
X67775134Y-30555134D01*
X67960706Y-30329014D01*
X67995201Y-30264477D01*
X68064822Y-30381355D01*
X68259731Y-30597588D01*
X68493080Y-30771641D01*
X68755901Y-30896825D01*
X68903110Y-30941476D01*
X69133000Y-30820155D01*
X69133000Y-29627000D01*
X69113000Y-29627000D01*
X69113000Y-29373000D01*
X69133000Y-29373000D01*
X69133000Y-29353000D01*
X69387000Y-29353000D01*
X69387000Y-29373000D01*
X69407000Y-29373000D01*
X69407000Y-29627000D01*
X69387000Y-29627000D01*
X69387000Y-30820155D01*
X69616890Y-30941476D01*
X69764099Y-30896825D01*
X70026920Y-30771641D01*
X70260269Y-30597588D01*
X70455178Y-30381355D01*
X70604157Y-30131252D01*
X70701481Y-29856891D01*
X70580815Y-29627002D01*
X70722396Y-29627002D01*
X72935197Y-31839803D01*
X72954443Y-31855597D01*
X72976399Y-31867333D01*
X73000224Y-31874560D01*
X73025000Y-31877000D01*
X76708000Y-31877000D01*
X76708000Y-47498000D01*
X72390000Y-47498000D01*
X72365224Y-47500440D01*
X72341399Y-47507667D01*
X72319443Y-47519403D01*
X72300197Y-47535197D01*
X72288400Y-47548800D01*
X70383400Y-50088800D01*
X70370486Y-50110085D01*
X70361973Y-50133481D01*
X70358000Y-50165000D01*
X70358000Y-53815000D01*
X19812000Y-53815000D01*
X19812000Y-48938605D01*
X24306000Y-48938605D01*
X24431914Y-49228577D01*
X24764126Y-49394433D01*
X25122312Y-49492290D01*
X25492706Y-49518389D01*
X25861075Y-49471725D01*
X26213262Y-49354094D01*
X26448086Y-49228577D01*
X26574000Y-48938605D01*
X25440000Y-47804605D01*
X24306000Y-48938605D01*
X19812000Y-48938605D01*
X19812000Y-47677706D01*
X23546611Y-47677706D01*
X23593275Y-48046075D01*
X23710906Y-48398262D01*
X23836423Y-48633086D01*
X24126395Y-48759000D01*
X25260395Y-47625000D01*
X25619605Y-47625000D01*
X26753605Y-48759000D01*
X27043577Y-48633086D01*
X27209433Y-48300874D01*
X27307290Y-47942688D01*
X27333389Y-47572294D01*
X27316548Y-47439344D01*
X28555000Y-47439344D01*
X28555000Y-47810656D01*
X28627439Y-48174834D01*
X28769534Y-48517882D01*
X28975825Y-48826618D01*
X29238382Y-49089175D01*
X29547118Y-49295466D01*
X29890166Y-49437561D01*
X30254344Y-49510000D01*
X30625656Y-49510000D01*
X30989834Y-49437561D01*
X31332882Y-49295466D01*
X31641618Y-49089175D01*
X31904175Y-48826618D01*
X32110466Y-48517882D01*
X32252561Y-48174834D01*
X32325000Y-47810656D01*
X32325000Y-47439344D01*
X32252561Y-47075166D01*
X32110466Y-46732118D01*
X31904175Y-46423382D01*
X31641618Y-46160825D01*
X31332882Y-45954534D01*
X30989834Y-45812439D01*
X30625656Y-45740000D01*
X30254344Y-45740000D01*
X29890166Y-45812439D01*
X29547118Y-45954534D01*
X29238382Y-46160825D01*
X28975825Y-46423382D01*
X28769534Y-46732118D01*
X28627439Y-47075166D01*
X28555000Y-47439344D01*
X27316548Y-47439344D01*
X27286725Y-47203925D01*
X27169094Y-46851738D01*
X27043577Y-46616914D01*
X26753605Y-46491000D01*
X25619605Y-47625000D01*
X25260395Y-47625000D01*
X24126395Y-46491000D01*
X23836423Y-46616914D01*
X23670567Y-46949126D01*
X23572710Y-47307312D01*
X23546611Y-47677706D01*
X19812000Y-47677706D01*
X19812000Y-46990000D01*
X19809560Y-46965224D01*
X19802333Y-46941399D01*
X19790597Y-46919443D01*
X19774803Y-46900197D01*
X19755557Y-46884403D01*
X19733601Y-46872667D01*
X19709776Y-46865440D01*
X19685000Y-46863000D01*
X13462000Y-46863000D01*
X13462000Y-46311395D01*
X24306000Y-46311395D01*
X25440000Y-47445395D01*
X26574000Y-46311395D01*
X26448086Y-46021423D01*
X26115874Y-45855567D01*
X25757688Y-45757710D01*
X25387294Y-45731611D01*
X25018925Y-45778275D01*
X24666738Y-45895906D01*
X24431914Y-46021423D01*
X24306000Y-46311395D01*
X13462000Y-46311395D01*
X13462000Y-44224340D01*
X16854665Y-44224340D01*
X17100816Y-44616704D01*
X17603222Y-44882312D01*
X18147793Y-45044801D01*
X18713599Y-45097928D01*
X19278898Y-45039652D01*
X19821966Y-44872210D01*
X20299984Y-44616704D01*
X20546135Y-44224340D01*
X18700400Y-42378605D01*
X16854665Y-44224340D01*
X13462000Y-44224340D01*
X13462000Y-39525340D01*
X13854925Y-39525340D01*
X14101076Y-39917704D01*
X14603482Y-40183312D01*
X15148053Y-40345801D01*
X15713859Y-40398928D01*
X16279158Y-40340652D01*
X16572117Y-40250325D01*
X16675058Y-40353266D01*
X16282696Y-40599416D01*
X16017088Y-41101822D01*
X15854599Y-41646393D01*
X15801472Y-42212199D01*
X15859748Y-42777498D01*
X16027190Y-43320566D01*
X16282696Y-43798584D01*
X16675060Y-44044735D01*
X18520795Y-42199000D01*
X18506653Y-42184858D01*
X18686258Y-42005253D01*
X18700400Y-42019395D01*
X18714543Y-42005253D01*
X18894148Y-42184858D01*
X18880005Y-42199000D01*
X20725740Y-44044735D01*
X21118104Y-43798584D01*
X21383712Y-43296178D01*
X21415287Y-43190355D01*
X70410377Y-43190355D01*
X70515125Y-43493167D01*
X70676936Y-43769725D01*
X70889591Y-44009401D01*
X71144919Y-44202985D01*
X71433107Y-44343037D01*
X71619646Y-44399619D01*
X71873000Y-44280265D01*
X71873000Y-42937000D01*
X72127000Y-42937000D01*
X72127000Y-44280265D01*
X72380354Y-44399619D01*
X72566893Y-44343037D01*
X72855081Y-44202985D01*
X73110409Y-44009401D01*
X73323064Y-43769725D01*
X73484875Y-43493167D01*
X73589623Y-43190355D01*
X73470803Y-42937000D01*
X72127000Y-42937000D01*
X71873000Y-42937000D01*
X70529197Y-42937000D01*
X70410377Y-43190355D01*
X21415287Y-43190355D01*
X21546201Y-42751607D01*
X21599328Y-42185801D01*
X21541052Y-41620502D01*
X21373610Y-41077434D01*
X21282999Y-40907911D01*
X55565000Y-40907911D01*
X55565000Y-41092089D01*
X55600932Y-41272729D01*
X55671414Y-41442889D01*
X55773738Y-41596028D01*
X55903972Y-41726262D01*
X56057111Y-41828586D01*
X56227271Y-41899068D01*
X56407911Y-41935000D01*
X56592089Y-41935000D01*
X56772729Y-41899068D01*
X56942889Y-41828586D01*
X57045535Y-41760000D01*
X65098399Y-41760000D01*
X65100932Y-41772735D01*
X65171414Y-41942895D01*
X65273738Y-42096034D01*
X65403972Y-42226268D01*
X65557111Y-42328592D01*
X65727271Y-42399074D01*
X65907911Y-42435006D01*
X66092089Y-42435006D01*
X66272729Y-42399074D01*
X66442889Y-42328592D01*
X66596028Y-42226268D01*
X66726262Y-42096034D01*
X66828586Y-41942895D01*
X66899068Y-41772735D01*
X66935000Y-41592095D01*
X66935000Y-41407917D01*
X66899068Y-41227277D01*
X66828586Y-41057117D01*
X66726262Y-40903978D01*
X66596028Y-40773744D01*
X66442889Y-40671420D01*
X66272729Y-40600938D01*
X66151648Y-40576853D01*
X66063798Y-40489003D01*
X66039995Y-40459999D01*
X65924270Y-40365026D01*
X65792241Y-40294454D01*
X65648980Y-40250997D01*
X65537327Y-40240000D01*
X65537316Y-40240000D01*
X65499994Y-40236324D01*
X65462672Y-40240000D01*
X57045535Y-40240000D01*
X56942889Y-40171414D01*
X56772729Y-40100932D01*
X56592089Y-40065000D01*
X56407911Y-40065000D01*
X56227271Y-40100932D01*
X56057111Y-40171414D01*
X55903972Y-40273738D01*
X55773738Y-40403972D01*
X55671414Y-40557111D01*
X55600932Y-40727271D01*
X55565000Y-40907911D01*
X21282999Y-40907911D01*
X21118104Y-40599416D01*
X20725742Y-40353266D01*
X20820617Y-40258391D01*
X20858617Y-40274131D01*
X21415992Y-40385000D01*
X21984288Y-40385000D01*
X22541663Y-40274131D01*
X23066700Y-40056654D01*
X23539220Y-39740926D01*
X23941066Y-39339080D01*
X24256794Y-38866560D01*
X24474271Y-38341523D01*
X24585140Y-37784148D01*
X24585140Y-37215852D01*
X24474271Y-36658477D01*
X24256794Y-36133440D01*
X23941066Y-35660920D01*
X23539220Y-35259074D01*
X23066700Y-34943346D01*
X22541663Y-34725869D01*
X21984288Y-34615000D01*
X21415992Y-34615000D01*
X20858617Y-34725869D01*
X20333580Y-34943346D01*
X19861060Y-35259074D01*
X19459214Y-35660920D01*
X19143486Y-36133440D01*
X18926009Y-36658477D01*
X18815140Y-37215852D01*
X18815140Y-37784148D01*
X18926009Y-38341523D01*
X19143486Y-38866560D01*
X19459214Y-39339080D01*
X19567032Y-39446898D01*
X19253007Y-39353199D01*
X18687201Y-39300072D01*
X18121902Y-39358348D01*
X17828943Y-39448675D01*
X17726002Y-39345734D01*
X18118364Y-39099584D01*
X18383972Y-38597178D01*
X18546461Y-38052607D01*
X18599588Y-37486801D01*
X18541312Y-36921502D01*
X18373870Y-36378434D01*
X18118364Y-35900416D01*
X17726000Y-35654265D01*
X15880265Y-37500000D01*
X15894408Y-37514143D01*
X15714803Y-37693748D01*
X15700660Y-37679605D01*
X13854925Y-39525340D01*
X13462000Y-39525340D01*
X13462000Y-39211908D01*
X13675320Y-39345735D01*
X15521055Y-37500000D01*
X13675320Y-35654265D01*
X13462000Y-35788092D01*
X13462000Y-35474660D01*
X13854925Y-35474660D01*
X15700660Y-37320395D01*
X17546395Y-35474660D01*
X17300244Y-35082296D01*
X16797838Y-34816688D01*
X16253267Y-34654199D01*
X15687461Y-34601072D01*
X15122162Y-34659348D01*
X14579094Y-34826790D01*
X14101076Y-35082296D01*
X13854925Y-35474660D01*
X13462000Y-35474660D01*
X13462000Y-32407911D01*
X56065000Y-32407911D01*
X56065000Y-32592089D01*
X56100932Y-32772729D01*
X56171414Y-32942889D01*
X56273738Y-33096028D01*
X56403972Y-33226262D01*
X56557111Y-33328586D01*
X56727271Y-33399068D01*
X56907911Y-33435000D01*
X57092089Y-33435000D01*
X57272729Y-33399068D01*
X57442889Y-33328586D01*
X57545535Y-33260000D01*
X59685199Y-33260000D01*
X63936201Y-37511003D01*
X63959999Y-37540001D01*
X63988997Y-37563799D01*
X64075723Y-37634974D01*
X64207753Y-37705546D01*
X64351014Y-37749003D01*
X64462667Y-37760000D01*
X64462676Y-37760000D01*
X64499999Y-37763676D01*
X64537322Y-37760000D01*
X65454465Y-37760000D01*
X65557111Y-37828586D01*
X65727271Y-37899068D01*
X65907911Y-37935000D01*
X66092089Y-37935000D01*
X66272729Y-37899068D01*
X66442889Y-37828586D01*
X66590433Y-37730000D01*
X70357602Y-37730000D01*
X70389160Y-38050416D01*
X70482622Y-38358519D01*
X70634396Y-38642467D01*
X70838649Y-38891351D01*
X70971039Y-39000000D01*
X70838649Y-39108649D01*
X70634396Y-39357533D01*
X70482622Y-39641481D01*
X70389160Y-39949584D01*
X70357602Y-40270000D01*
X70389160Y-40590416D01*
X70482622Y-40898519D01*
X70634396Y-41182467D01*
X70838649Y-41431351D01*
X70976642Y-41544599D01*
X70889591Y-41610599D01*
X70676936Y-41850275D01*
X70515125Y-42126833D01*
X70410377Y-42429645D01*
X70529197Y-42683000D01*
X71873000Y-42683000D01*
X71873000Y-42663000D01*
X72127000Y-42663000D01*
X72127000Y-42683000D01*
X73470803Y-42683000D01*
X73589623Y-42429645D01*
X73484875Y-42126833D01*
X73323064Y-41850275D01*
X73110409Y-41610599D01*
X73023358Y-41544599D01*
X73161351Y-41431351D01*
X73365604Y-41182467D01*
X73517378Y-40898519D01*
X73610840Y-40590416D01*
X73642398Y-40270000D01*
X73610840Y-39949584D01*
X73517378Y-39641481D01*
X73365604Y-39357533D01*
X73161351Y-39108649D01*
X73028961Y-39000000D01*
X73161351Y-38891351D01*
X73365604Y-38642467D01*
X73517378Y-38358519D01*
X73610840Y-38050416D01*
X73642398Y-37730000D01*
X73610840Y-37409584D01*
X73517378Y-37101481D01*
X73365604Y-36817533D01*
X73306439Y-36745440D01*
X73353984Y-36720027D01*
X73450675Y-36640675D01*
X73530027Y-36543984D01*
X73588992Y-36433670D01*
X73625302Y-36313972D01*
X73637562Y-36189490D01*
X73637562Y-34190510D01*
X73625302Y-34066028D01*
X73588992Y-33946330D01*
X73530027Y-33836016D01*
X73450675Y-33739325D01*
X73353984Y-33659973D01*
X73243670Y-33601008D01*
X73123972Y-33564698D01*
X72999490Y-33552438D01*
X71000510Y-33552438D01*
X70876028Y-33564698D01*
X70756330Y-33601008D01*
X70646016Y-33659973D01*
X70549325Y-33739325D01*
X70469973Y-33836016D01*
X70411008Y-33946330D01*
X70374698Y-34066028D01*
X70362438Y-34190510D01*
X70362438Y-36189490D01*
X70374698Y-36313972D01*
X70411008Y-36433670D01*
X70469973Y-36543984D01*
X70549325Y-36640675D01*
X70646016Y-36720027D01*
X70693561Y-36745440D01*
X70634396Y-36817533D01*
X70482622Y-37101481D01*
X70389160Y-37409584D01*
X70357602Y-37730000D01*
X66590433Y-37730000D01*
X66596028Y-37726262D01*
X66726262Y-37596028D01*
X66828586Y-37442889D01*
X66899068Y-37272729D01*
X66935000Y-37092089D01*
X66935000Y-36907911D01*
X66899068Y-36727271D01*
X66828586Y-36557111D01*
X66726262Y-36403972D01*
X66596028Y-36273738D01*
X66442889Y-36171414D01*
X66272729Y-36100932D01*
X66092089Y-36065000D01*
X65907911Y-36065000D01*
X65727271Y-36100932D01*
X65557111Y-36171414D01*
X65454465Y-36240000D01*
X64814802Y-36240000D01*
X60563804Y-31989003D01*
X60540001Y-31959999D01*
X60424276Y-31865026D01*
X60292247Y-31794454D01*
X60148986Y-31750997D01*
X60037333Y-31740000D01*
X60037322Y-31740000D01*
X60000000Y-31736324D01*
X59962678Y-31740000D01*
X57545535Y-31740000D01*
X57442889Y-31671414D01*
X57272729Y-31600932D01*
X57092089Y-31565000D01*
X56907911Y-31565000D01*
X56727271Y-31600932D01*
X56557111Y-31671414D01*
X56403972Y-31773738D01*
X56273738Y-31903972D01*
X56171414Y-32057111D01*
X56100932Y-32227271D01*
X56065000Y-32407911D01*
X13462000Y-32407911D01*
X13462000Y-31877000D01*
X19050000Y-31877000D01*
X19074776Y-31874560D01*
X19098601Y-31867333D01*
X19120557Y-31855597D01*
X19139803Y-31839803D01*
X19155597Y-31820557D01*
X19167333Y-31798601D01*
X19174560Y-31774776D01*
X19177000Y-31750000D01*
X19177000Y-29874980D01*
X19511928Y-29205124D01*
X19511928Y-30350000D01*
G36*
X52779294Y-27789014D02*
G01*
X52964866Y-28015134D01*
X53190986Y-28200706D01*
X53245791Y-28230000D01*
X53190986Y-28259294D01*
X52964866Y-28444866D01*
X52779294Y-28670986D01*
X52744799Y-28735523D01*
X52675178Y-28618645D01*
X52480269Y-28402412D01*
X52251244Y-28231584D01*
X52309014Y-28200706D01*
X52535134Y-28015134D01*
X52720706Y-27789014D01*
X52750000Y-27734209D01*
X52779294Y-27789014D01*
X52779294Y-27789014D01*
G37*
X52779294Y-27789014D02*
X52964866Y-28015134D01*
X53190986Y-28200706D01*
X53245791Y-28230000D01*
X53190986Y-28259294D01*
X52964866Y-28444866D01*
X52779294Y-28670986D01*
X52744799Y-28735523D01*
X52675178Y-28618645D01*
X52480269Y-28402412D01*
X52251244Y-28231584D01*
X52309014Y-28200706D01*
X52535134Y-28015134D01*
X52720706Y-27789014D01*
X52750000Y-27734209D01*
X52779294Y-27789014D01*
G36*
X32459294Y-27789014D02*
G01*
X32644866Y-28015134D01*
X32870986Y-28200706D01*
X32925791Y-28230000D01*
X32870986Y-28259294D01*
X32644866Y-28444866D01*
X32459294Y-28670986D01*
X32424799Y-28735523D01*
X32355178Y-28618645D01*
X32160269Y-28402412D01*
X31931244Y-28231584D01*
X31989014Y-28200706D01*
X32215134Y-28015134D01*
X32400706Y-27789014D01*
X32430000Y-27734209D01*
X32459294Y-27789014D01*
X32459294Y-27789014D01*
G37*
X32459294Y-27789014D02*
X32644866Y-28015134D01*
X32870986Y-28200706D01*
X32925791Y-28230000D01*
X32870986Y-28259294D01*
X32644866Y-28444866D01*
X32459294Y-28670986D01*
X32424799Y-28735523D01*
X32355178Y-28618645D01*
X32160269Y-28402412D01*
X31931244Y-28231584D01*
X31989014Y-28200706D01*
X32215134Y-28015134D01*
X32400706Y-27789014D01*
X32430000Y-27734209D01*
X32459294Y-27789014D01*
G36*
X29919294Y-27789014D02*
G01*
X30104866Y-28015134D01*
X30330986Y-28200706D01*
X30388756Y-28231584D01*
X30159731Y-28402412D01*
X29964822Y-28618645D01*
X29895201Y-28735523D01*
X29860706Y-28670986D01*
X29675134Y-28444866D01*
X29449014Y-28259294D01*
X29394209Y-28230000D01*
X29449014Y-28200706D01*
X29675134Y-28015134D01*
X29860706Y-27789014D01*
X29890000Y-27734209D01*
X29919294Y-27789014D01*
X29919294Y-27789014D01*
G37*
X29919294Y-27789014D02*
X30104866Y-28015134D01*
X30330986Y-28200706D01*
X30388756Y-28231584D01*
X30159731Y-28402412D01*
X29964822Y-28618645D01*
X29895201Y-28735523D01*
X29860706Y-28670986D01*
X29675134Y-28444866D01*
X29449014Y-28259294D01*
X29394209Y-28230000D01*
X29449014Y-28200706D01*
X29675134Y-28015134D01*
X29860706Y-27789014D01*
X29890000Y-27734209D01*
X29919294Y-27789014D01*
G36*
X68019294Y-27789014D02*
G01*
X68204866Y-28015134D01*
X68430986Y-28200706D01*
X68488756Y-28231584D01*
X68259731Y-28402412D01*
X68064822Y-28618645D01*
X67995201Y-28735523D01*
X67960706Y-28670986D01*
X67775134Y-28444866D01*
X67549014Y-28259294D01*
X67494209Y-28230000D01*
X67549014Y-28200706D01*
X67775134Y-28015134D01*
X67960706Y-27789014D01*
X67990000Y-27734209D01*
X68019294Y-27789014D01*
X68019294Y-27789014D01*
G37*
X68019294Y-27789014D02*
X68204866Y-28015134D01*
X68430986Y-28200706D01*
X68488756Y-28231584D01*
X68259731Y-28402412D01*
X68064822Y-28618645D01*
X67995201Y-28735523D01*
X67960706Y-28670986D01*
X67775134Y-28444866D01*
X67549014Y-28259294D01*
X67494209Y-28230000D01*
X67549014Y-28200706D01*
X67775134Y-28015134D01*
X67960706Y-27789014D01*
X67990000Y-27734209D01*
X68019294Y-27789014D01*
G36*
X62939294Y-27789014D02*
G01*
X63124866Y-28015134D01*
X63350986Y-28200706D01*
X63405791Y-28230000D01*
X63350986Y-28259294D01*
X63124866Y-28444866D01*
X62939294Y-28670986D01*
X62910000Y-28725791D01*
X62880706Y-28670986D01*
X62695134Y-28444866D01*
X62469014Y-28259294D01*
X62411244Y-28228416D01*
X62640269Y-28057588D01*
X62835178Y-27841355D01*
X62904799Y-27724477D01*
X62939294Y-27789014D01*
X62939294Y-27789014D01*
G37*
X62939294Y-27789014D02*
X63124866Y-28015134D01*
X63350986Y-28200706D01*
X63405791Y-28230000D01*
X63350986Y-28259294D01*
X63124866Y-28444866D01*
X62939294Y-28670986D01*
X62910000Y-28725791D01*
X62880706Y-28670986D01*
X62695134Y-28444866D01*
X62469014Y-28259294D01*
X62411244Y-28228416D01*
X62640269Y-28057588D01*
X62835178Y-27841355D01*
X62904799Y-27724477D01*
X62939294Y-27789014D01*
G36*
X60444822Y-27841355D02*
G01*
X60639731Y-28057588D01*
X60868756Y-28228416D01*
X60810986Y-28259294D01*
X60584866Y-28444866D01*
X60399294Y-28670986D01*
X60370000Y-28725791D01*
X60340706Y-28670986D01*
X60155134Y-28444866D01*
X59929014Y-28259294D01*
X59874209Y-28230000D01*
X59929014Y-28200706D01*
X60155134Y-28015134D01*
X60340706Y-27789014D01*
X60375201Y-27724477D01*
X60444822Y-27841355D01*
X60444822Y-27841355D01*
G37*
X60444822Y-27841355D02*
X60639731Y-28057588D01*
X60868756Y-28228416D01*
X60810986Y-28259294D01*
X60584866Y-28444866D01*
X60399294Y-28670986D01*
X60370000Y-28725791D01*
X60340706Y-28670986D01*
X60155134Y-28444866D01*
X59929014Y-28259294D01*
X59874209Y-28230000D01*
X59929014Y-28200706D01*
X60155134Y-28015134D01*
X60340706Y-27789014D01*
X60375201Y-27724477D01*
X60444822Y-27841355D01*
G36*
X57859294Y-27789014D02*
G01*
X58044866Y-28015134D01*
X58270986Y-28200706D01*
X58325791Y-28230000D01*
X58270986Y-28259294D01*
X58044866Y-28444866D01*
X57859294Y-28670986D01*
X57830000Y-28725791D01*
X57800706Y-28670986D01*
X57615134Y-28444866D01*
X57389014Y-28259294D01*
X57331244Y-28228416D01*
X57560269Y-28057588D01*
X57755178Y-27841355D01*
X57824799Y-27724477D01*
X57859294Y-27789014D01*
X57859294Y-27789014D01*
G37*
X57859294Y-27789014D02*
X58044866Y-28015134D01*
X58270986Y-28200706D01*
X58325791Y-28230000D01*
X58270986Y-28259294D01*
X58044866Y-28444866D01*
X57859294Y-28670986D01*
X57830000Y-28725791D01*
X57800706Y-28670986D01*
X57615134Y-28444866D01*
X57389014Y-28259294D01*
X57331244Y-28228416D01*
X57560269Y-28057588D01*
X57755178Y-27841355D01*
X57824799Y-27724477D01*
X57859294Y-27789014D01*
G36*
X55364822Y-27841355D02*
G01*
X55559731Y-28057588D01*
X55788756Y-28228416D01*
X55730986Y-28259294D01*
X55504866Y-28444866D01*
X55319294Y-28670986D01*
X55290000Y-28725791D01*
X55260706Y-28670986D01*
X55075134Y-28444866D01*
X54849014Y-28259294D01*
X54794209Y-28230000D01*
X54849014Y-28200706D01*
X55075134Y-28015134D01*
X55260706Y-27789014D01*
X55295201Y-27724477D01*
X55364822Y-27841355D01*
X55364822Y-27841355D01*
G37*
X55364822Y-27841355D02*
X55559731Y-28057588D01*
X55788756Y-28228416D01*
X55730986Y-28259294D01*
X55504866Y-28444866D01*
X55319294Y-28670986D01*
X55290000Y-28725791D01*
X55260706Y-28670986D01*
X55075134Y-28444866D01*
X54849014Y-28259294D01*
X54794209Y-28230000D01*
X54849014Y-28200706D01*
X55075134Y-28015134D01*
X55260706Y-27789014D01*
X55295201Y-27724477D01*
X55364822Y-27841355D01*
G36*
X42664822Y-27841355D02*
G01*
X42859731Y-28057588D01*
X43088756Y-28228416D01*
X43030986Y-28259294D01*
X42804866Y-28444866D01*
X42619294Y-28670986D01*
X42590000Y-28725791D01*
X42560706Y-28670986D01*
X42375134Y-28444866D01*
X42149014Y-28259294D01*
X42094209Y-28230000D01*
X42149014Y-28200706D01*
X42375134Y-28015134D01*
X42560706Y-27789014D01*
X42595201Y-27724477D01*
X42664822Y-27841355D01*
X42664822Y-27841355D01*
G37*
X42664822Y-27841355D02*
X42859731Y-28057588D01*
X43088756Y-28228416D01*
X43030986Y-28259294D01*
X42804866Y-28444866D01*
X42619294Y-28670986D01*
X42590000Y-28725791D01*
X42560706Y-28670986D01*
X42375134Y-28444866D01*
X42149014Y-28259294D01*
X42094209Y-28230000D01*
X42149014Y-28200706D01*
X42375134Y-28015134D01*
X42560706Y-27789014D01*
X42595201Y-27724477D01*
X42664822Y-27841355D01*
G36*
X37539294Y-27789014D02*
G01*
X37724866Y-28015134D01*
X37950986Y-28200706D01*
X38005791Y-28230000D01*
X37950986Y-28259294D01*
X37724866Y-28444866D01*
X37539294Y-28670986D01*
X37510000Y-28725791D01*
X37480706Y-28670986D01*
X37295134Y-28444866D01*
X37069014Y-28259294D01*
X37011244Y-28228416D01*
X37240269Y-28057588D01*
X37435178Y-27841355D01*
X37504799Y-27724477D01*
X37539294Y-27789014D01*
X37539294Y-27789014D01*
G37*
X37539294Y-27789014D02*
X37724866Y-28015134D01*
X37950986Y-28200706D01*
X38005791Y-28230000D01*
X37950986Y-28259294D01*
X37724866Y-28444866D01*
X37539294Y-28670986D01*
X37510000Y-28725791D01*
X37480706Y-28670986D01*
X37295134Y-28444866D01*
X37069014Y-28259294D01*
X37011244Y-28228416D01*
X37240269Y-28057588D01*
X37435178Y-27841355D01*
X37504799Y-27724477D01*
X37539294Y-27789014D01*
G36*
X35044822Y-27841355D02*
G01*
X35239731Y-28057588D01*
X35468756Y-28228416D01*
X35410986Y-28259294D01*
X35184866Y-28444866D01*
X34999294Y-28670986D01*
X34970000Y-28725791D01*
X34940706Y-28670986D01*
X34755134Y-28444866D01*
X34529014Y-28259294D01*
X34474209Y-28230000D01*
X34529014Y-28200706D01*
X34755134Y-28015134D01*
X34940706Y-27789014D01*
X34975201Y-27724477D01*
X35044822Y-27841355D01*
X35044822Y-27841355D01*
G37*
X35044822Y-27841355D02*
X35239731Y-28057588D01*
X35468756Y-28228416D01*
X35410986Y-28259294D01*
X35184866Y-28444866D01*
X34999294Y-28670986D01*
X34970000Y-28725791D01*
X34940706Y-28670986D01*
X34755134Y-28444866D01*
X34529014Y-28259294D01*
X34474209Y-28230000D01*
X34529014Y-28200706D01*
X34755134Y-28015134D01*
X34940706Y-27789014D01*
X34975201Y-27724477D01*
X35044822Y-27841355D01*
G36*
X27379294Y-27789014D02*
G01*
X27564866Y-28015134D01*
X27790986Y-28200706D01*
X27845791Y-28230000D01*
X27790986Y-28259294D01*
X27564866Y-28444866D01*
X27379294Y-28670986D01*
X27350000Y-28725791D01*
X27320706Y-28670986D01*
X27135134Y-28444866D01*
X26909014Y-28259294D01*
X26851244Y-28228416D01*
X27080269Y-28057588D01*
X27275178Y-27841355D01*
X27344799Y-27724477D01*
X27379294Y-27789014D01*
X27379294Y-27789014D01*
G37*
X27379294Y-27789014D02*
X27564866Y-28015134D01*
X27790986Y-28200706D01*
X27845791Y-28230000D01*
X27790986Y-28259294D01*
X27564866Y-28444866D01*
X27379294Y-28670986D01*
X27350000Y-28725791D01*
X27320706Y-28670986D01*
X27135134Y-28444866D01*
X26909014Y-28259294D01*
X26851244Y-28228416D01*
X27080269Y-28057588D01*
X27275178Y-27841355D01*
X27344799Y-27724477D01*
X27379294Y-27789014D01*
G36*
X24884822Y-27841355D02*
G01*
X25079731Y-28057588D01*
X25308756Y-28228416D01*
X25250986Y-28259294D01*
X25024866Y-28444866D01*
X24839294Y-28670986D01*
X24810000Y-28725791D01*
X24780706Y-28670986D01*
X24595134Y-28444866D01*
X24369014Y-28259294D01*
X24314209Y-28230000D01*
X24369014Y-28200706D01*
X24595134Y-28015134D01*
X24780706Y-27789014D01*
X24815201Y-27724477D01*
X24884822Y-27841355D01*
X24884822Y-27841355D01*
G37*
X24884822Y-27841355D02*
X25079731Y-28057588D01*
X25308756Y-28228416D01*
X25250986Y-28259294D01*
X25024866Y-28444866D01*
X24839294Y-28670986D01*
X24810000Y-28725791D01*
X24780706Y-28670986D01*
X24595134Y-28444866D01*
X24369014Y-28259294D01*
X24314209Y-28230000D01*
X24369014Y-28200706D01*
X24595134Y-28015134D01*
X24780706Y-27789014D01*
X24815201Y-27724477D01*
X24884822Y-27841355D01*
G36*
X45159294Y-27789014D02*
G01*
X45344866Y-28015134D01*
X45570986Y-28200706D01*
X45625791Y-28230000D01*
X45570986Y-28259294D01*
X45344866Y-28444866D01*
X45159294Y-28670986D01*
X45130000Y-28725791D01*
X45100706Y-28670986D01*
X44915134Y-28444866D01*
X44689014Y-28259294D01*
X44631244Y-28228416D01*
X44860269Y-28057588D01*
X45055178Y-27841355D01*
X45124799Y-27724477D01*
X45159294Y-27789014D01*
X45159294Y-27789014D01*
G37*
X45159294Y-27789014D02*
X45344866Y-28015134D01*
X45570986Y-28200706D01*
X45625791Y-28230000D01*
X45570986Y-28259294D01*
X45344866Y-28444866D01*
X45159294Y-28670986D01*
X45130000Y-28725791D01*
X45100706Y-28670986D01*
X44915134Y-28444866D01*
X44689014Y-28259294D01*
X44631244Y-28228416D01*
X44860269Y-28057588D01*
X45055178Y-27841355D01*
X45124799Y-27724477D01*
X45159294Y-27789014D01*
G36*
X70358000Y-25957098D02*
G01*
X70315134Y-25904866D01*
X70089014Y-25719294D01*
X69831034Y-25581401D01*
X69551111Y-25496487D01*
X69332950Y-25475000D01*
X69187050Y-25475000D01*
X68968889Y-25496487D01*
X68688966Y-25581401D01*
X68430986Y-25719294D01*
X68204866Y-25904866D01*
X68019294Y-26130986D01*
X67990000Y-26185791D01*
X67960706Y-26130986D01*
X67775134Y-25904866D01*
X67549014Y-25719294D01*
X67291034Y-25581401D01*
X67011111Y-25496487D01*
X66792950Y-25475000D01*
X66647050Y-25475000D01*
X66428889Y-25496487D01*
X66148966Y-25581401D01*
X65890986Y-25719294D01*
X65664866Y-25904866D01*
X65479294Y-26130986D01*
X65450000Y-26185791D01*
X65420706Y-26130986D01*
X65235134Y-25904866D01*
X65009014Y-25719294D01*
X64751034Y-25581401D01*
X64471111Y-25496487D01*
X64252950Y-25475000D01*
X64107050Y-25475000D01*
X63888889Y-25496487D01*
X63608966Y-25581401D01*
X63350986Y-25719294D01*
X63124866Y-25904866D01*
X62939294Y-26130986D01*
X62904799Y-26195523D01*
X62835178Y-26078645D01*
X62640269Y-25862412D01*
X62406920Y-25688359D01*
X62144099Y-25563175D01*
X61996890Y-25518524D01*
X61767000Y-25639845D01*
X61767000Y-26833000D01*
X61787000Y-26833000D01*
X61787000Y-27087000D01*
X61767000Y-27087000D01*
X61767000Y-27107000D01*
X61513000Y-27107000D01*
X61513000Y-27087000D01*
X61493000Y-27087000D01*
X61493000Y-26833000D01*
X61513000Y-26833000D01*
X61513000Y-25639845D01*
X61283110Y-25518524D01*
X61135901Y-25563175D01*
X60873080Y-25688359D01*
X60639731Y-25862412D01*
X60444822Y-26078645D01*
X60375201Y-26195523D01*
X60340706Y-26130986D01*
X60155134Y-25904866D01*
X59929014Y-25719294D01*
X59671034Y-25581401D01*
X59391111Y-25496487D01*
X59172950Y-25475000D01*
X59027050Y-25475000D01*
X58808889Y-25496487D01*
X58528966Y-25581401D01*
X58270986Y-25719294D01*
X58044866Y-25904866D01*
X57859294Y-26130986D01*
X57824799Y-26195523D01*
X57755178Y-26078645D01*
X57560269Y-25862412D01*
X57326920Y-25688359D01*
X57064099Y-25563175D01*
X56916890Y-25518524D01*
X56687000Y-25639845D01*
X56687000Y-26833000D01*
X56707000Y-26833000D01*
X56707000Y-27087000D01*
X56687000Y-27087000D01*
X56687000Y-27107000D01*
X56433000Y-27107000D01*
X56433000Y-27087000D01*
X56413000Y-27087000D01*
X56413000Y-26833000D01*
X56433000Y-26833000D01*
X56433000Y-25639845D01*
X56203110Y-25518524D01*
X56055901Y-25563175D01*
X55793080Y-25688359D01*
X55559731Y-25862412D01*
X55364822Y-26078645D01*
X55295201Y-26195523D01*
X55260706Y-26130986D01*
X55075134Y-25904866D01*
X54849014Y-25719294D01*
X54591034Y-25581401D01*
X54311111Y-25496487D01*
X54092950Y-25475000D01*
X53947050Y-25475000D01*
X53728889Y-25496487D01*
X53448966Y-25581401D01*
X53190986Y-25719294D01*
X52964866Y-25904866D01*
X52779294Y-26130986D01*
X52750000Y-26185791D01*
X52720706Y-26130986D01*
X52535134Y-25904866D01*
X52309014Y-25719294D01*
X52051034Y-25581401D01*
X51771111Y-25496487D01*
X51552950Y-25475000D01*
X51407050Y-25475000D01*
X51188889Y-25496487D01*
X50908966Y-25581401D01*
X50650986Y-25719294D01*
X50424866Y-25904866D01*
X50239294Y-26130986D01*
X50210000Y-26185791D01*
X50180706Y-26130986D01*
X49995134Y-25904866D01*
X49769014Y-25719294D01*
X49511034Y-25581401D01*
X49231111Y-25496487D01*
X49012950Y-25475000D01*
X48867050Y-25475000D01*
X48648889Y-25496487D01*
X48368966Y-25581401D01*
X48110986Y-25719294D01*
X47884866Y-25904866D01*
X47699294Y-26130986D01*
X47670000Y-26185791D01*
X47640706Y-26130986D01*
X47455134Y-25904866D01*
X47229014Y-25719294D01*
X46971034Y-25581401D01*
X46691111Y-25496487D01*
X46472950Y-25475000D01*
X46327050Y-25475000D01*
X46108889Y-25496487D01*
X45828966Y-25581401D01*
X45570986Y-25719294D01*
X45344866Y-25904866D01*
X45159294Y-26130986D01*
X45124799Y-26195523D01*
X45055178Y-26078645D01*
X44860269Y-25862412D01*
X44626920Y-25688359D01*
X44364099Y-25563175D01*
X44216890Y-25518524D01*
X43987000Y-25639845D01*
X43987000Y-26833000D01*
X44007000Y-26833000D01*
X44007000Y-27087000D01*
X43987000Y-27087000D01*
X43987000Y-27107000D01*
X43733000Y-27107000D01*
X43733000Y-27087000D01*
X43713000Y-27087000D01*
X43713000Y-26833000D01*
X43733000Y-26833000D01*
X43733000Y-25639845D01*
X43503110Y-25518524D01*
X43355901Y-25563175D01*
X43093080Y-25688359D01*
X42859731Y-25862412D01*
X42664822Y-26078645D01*
X42595201Y-26195523D01*
X42560706Y-26130986D01*
X42375134Y-25904866D01*
X42149014Y-25719294D01*
X41891034Y-25581401D01*
X41611111Y-25496487D01*
X41392950Y-25475000D01*
X41247050Y-25475000D01*
X41028889Y-25496487D01*
X40748966Y-25581401D01*
X40490986Y-25719294D01*
X40264866Y-25904866D01*
X40079294Y-26130986D01*
X40050000Y-26185791D01*
X40020706Y-26130986D01*
X39835134Y-25904866D01*
X39609014Y-25719294D01*
X39351034Y-25581401D01*
X39071111Y-25496487D01*
X38852950Y-25475000D01*
X38707050Y-25475000D01*
X38488889Y-25496487D01*
X38208966Y-25581401D01*
X37950986Y-25719294D01*
X37724866Y-25904866D01*
X37539294Y-26130986D01*
X37504799Y-26195523D01*
X37435178Y-26078645D01*
X37240269Y-25862412D01*
X37006920Y-25688359D01*
X36744099Y-25563175D01*
X36596890Y-25518524D01*
X36367000Y-25639845D01*
X36367000Y-26833000D01*
X36387000Y-26833000D01*
X36387000Y-27087000D01*
X36367000Y-27087000D01*
X36367000Y-27107000D01*
X36113000Y-27107000D01*
X36113000Y-27087000D01*
X36093000Y-27087000D01*
X36093000Y-26833000D01*
X36113000Y-26833000D01*
X36113000Y-25639845D01*
X35883110Y-25518524D01*
X35735901Y-25563175D01*
X35473080Y-25688359D01*
X35239731Y-25862412D01*
X35044822Y-26078645D01*
X34975201Y-26195523D01*
X34940706Y-26130986D01*
X34755134Y-25904866D01*
X34529014Y-25719294D01*
X34271034Y-25581401D01*
X33991111Y-25496487D01*
X33772950Y-25475000D01*
X33627050Y-25475000D01*
X33408889Y-25496487D01*
X33128966Y-25581401D01*
X32870986Y-25719294D01*
X32644866Y-25904866D01*
X32459294Y-26130986D01*
X32430000Y-26185791D01*
X32400706Y-26130986D01*
X32215134Y-25904866D01*
X31989014Y-25719294D01*
X31731034Y-25581401D01*
X31451111Y-25496487D01*
X31232950Y-25475000D01*
X31087050Y-25475000D01*
X30868889Y-25496487D01*
X30588966Y-25581401D01*
X30330986Y-25719294D01*
X30104866Y-25904866D01*
X29919294Y-26130986D01*
X29890000Y-26185791D01*
X29860706Y-26130986D01*
X29675134Y-25904866D01*
X29449014Y-25719294D01*
X29191034Y-25581401D01*
X28911111Y-25496487D01*
X28692950Y-25475000D01*
X28547050Y-25475000D01*
X28328889Y-25496487D01*
X28048966Y-25581401D01*
X27790986Y-25719294D01*
X27564866Y-25904866D01*
X27379294Y-26130986D01*
X27344799Y-26195523D01*
X27275178Y-26078645D01*
X27080269Y-25862412D01*
X26846920Y-25688359D01*
X26584099Y-25563175D01*
X26436890Y-25518524D01*
X26207000Y-25639845D01*
X26207000Y-26833000D01*
X26227000Y-26833000D01*
X26227000Y-27087000D01*
X26207000Y-27087000D01*
X26207000Y-27107000D01*
X25953000Y-27107000D01*
X25953000Y-27087000D01*
X25933000Y-27087000D01*
X25933000Y-26833000D01*
X25953000Y-26833000D01*
X25953000Y-25639845D01*
X25723110Y-25518524D01*
X25575901Y-25563175D01*
X25313080Y-25688359D01*
X25079731Y-25862412D01*
X24884822Y-26078645D01*
X24815201Y-26195523D01*
X24780706Y-26130986D01*
X24595134Y-25904866D01*
X24369014Y-25719294D01*
X24111034Y-25581401D01*
X23831111Y-25496487D01*
X23612950Y-25475000D01*
X23467050Y-25475000D01*
X23248889Y-25496487D01*
X22968966Y-25581401D01*
X22710986Y-25719294D01*
X22484866Y-25904866D01*
X22299294Y-26130986D01*
X22270000Y-26185791D01*
X22240706Y-26130986D01*
X22055134Y-25904866D01*
X21829014Y-25719294D01*
X21571034Y-25581401D01*
X21291111Y-25496487D01*
X21072950Y-25475000D01*
X20927050Y-25475000D01*
X20708889Y-25496487D01*
X20428966Y-25581401D01*
X20170986Y-25719294D01*
X19944866Y-25904866D01*
X19812000Y-26066764D01*
X19812000Y-25185000D01*
X70358000Y-25185000D01*
X70358000Y-25957098D01*
X70358000Y-25957098D01*
G37*
X70358000Y-25957098D02*
X70315134Y-25904866D01*
X70089014Y-25719294D01*
X69831034Y-25581401D01*
X69551111Y-25496487D01*
X69332950Y-25475000D01*
X69187050Y-25475000D01*
X68968889Y-25496487D01*
X68688966Y-25581401D01*
X68430986Y-25719294D01*
X68204866Y-25904866D01*
X68019294Y-26130986D01*
X67990000Y-26185791D01*
X67960706Y-26130986D01*
X67775134Y-25904866D01*
X67549014Y-25719294D01*
X67291034Y-25581401D01*
X67011111Y-25496487D01*
X66792950Y-25475000D01*
X66647050Y-25475000D01*
X66428889Y-25496487D01*
X66148966Y-25581401D01*
X65890986Y-25719294D01*
X65664866Y-25904866D01*
X65479294Y-26130986D01*
X65450000Y-26185791D01*
X65420706Y-26130986D01*
X65235134Y-25904866D01*
X65009014Y-25719294D01*
X64751034Y-25581401D01*
X64471111Y-25496487D01*
X64252950Y-25475000D01*
X64107050Y-25475000D01*
X63888889Y-25496487D01*
X63608966Y-25581401D01*
X63350986Y-25719294D01*
X63124866Y-25904866D01*
X62939294Y-26130986D01*
X62904799Y-26195523D01*
X62835178Y-26078645D01*
X62640269Y-25862412D01*
X62406920Y-25688359D01*
X62144099Y-25563175D01*
X61996890Y-25518524D01*
X61767000Y-25639845D01*
X61767000Y-26833000D01*
X61787000Y-26833000D01*
X61787000Y-27087000D01*
X61767000Y-27087000D01*
X61767000Y-27107000D01*
X61513000Y-27107000D01*
X61513000Y-27087000D01*
X61493000Y-27087000D01*
X61493000Y-26833000D01*
X61513000Y-26833000D01*
X61513000Y-25639845D01*
X61283110Y-25518524D01*
X61135901Y-25563175D01*
X60873080Y-25688359D01*
X60639731Y-25862412D01*
X60444822Y-26078645D01*
X60375201Y-26195523D01*
X60340706Y-26130986D01*
X60155134Y-25904866D01*
X59929014Y-25719294D01*
X59671034Y-25581401D01*
X59391111Y-25496487D01*
X59172950Y-25475000D01*
X59027050Y-25475000D01*
X58808889Y-25496487D01*
X58528966Y-25581401D01*
X58270986Y-25719294D01*
X58044866Y-25904866D01*
X57859294Y-26130986D01*
X57824799Y-26195523D01*
X57755178Y-26078645D01*
X57560269Y-25862412D01*
X57326920Y-25688359D01*
X57064099Y-25563175D01*
X56916890Y-25518524D01*
X56687000Y-25639845D01*
X56687000Y-26833000D01*
X56707000Y-26833000D01*
X56707000Y-27087000D01*
X56687000Y-27087000D01*
X56687000Y-27107000D01*
X56433000Y-27107000D01*
X56433000Y-27087000D01*
X56413000Y-27087000D01*
X56413000Y-26833000D01*
X56433000Y-26833000D01*
X56433000Y-25639845D01*
X56203110Y-25518524D01*
X56055901Y-25563175D01*
X55793080Y-25688359D01*
X55559731Y-25862412D01*
X55364822Y-26078645D01*
X55295201Y-26195523D01*
X55260706Y-26130986D01*
X55075134Y-25904866D01*
X54849014Y-25719294D01*
X54591034Y-25581401D01*
X54311111Y-25496487D01*
X54092950Y-25475000D01*
X53947050Y-25475000D01*
X53728889Y-25496487D01*
X53448966Y-25581401D01*
X53190986Y-25719294D01*
X52964866Y-25904866D01*
X52779294Y-26130986D01*
X52750000Y-26185791D01*
X52720706Y-26130986D01*
X52535134Y-25904866D01*
X52309014Y-25719294D01*
X52051034Y-25581401D01*
X51771111Y-25496487D01*
X51552950Y-25475000D01*
X51407050Y-25475000D01*
X51188889Y-25496487D01*
X50908966Y-25581401D01*
X50650986Y-25719294D01*
X50424866Y-25904866D01*
X50239294Y-26130986D01*
X50210000Y-26185791D01*
X50180706Y-26130986D01*
X49995134Y-25904866D01*
X49769014Y-25719294D01*
X49511034Y-25581401D01*
X49231111Y-25496487D01*
X49012950Y-25475000D01*
X48867050Y-25475000D01*
X48648889Y-25496487D01*
X48368966Y-25581401D01*
X48110986Y-25719294D01*
X47884866Y-25904866D01*
X47699294Y-26130986D01*
X47670000Y-26185791D01*
X47640706Y-26130986D01*
X47455134Y-25904866D01*
X47229014Y-25719294D01*
X46971034Y-25581401D01*
X46691111Y-25496487D01*
X46472950Y-25475000D01*
X46327050Y-25475000D01*
X46108889Y-25496487D01*
X45828966Y-25581401D01*
X45570986Y-25719294D01*
X45344866Y-25904866D01*
X45159294Y-26130986D01*
X45124799Y-26195523D01*
X45055178Y-26078645D01*
X44860269Y-25862412D01*
X44626920Y-25688359D01*
X44364099Y-25563175D01*
X44216890Y-25518524D01*
X43987000Y-25639845D01*
X43987000Y-26833000D01*
X44007000Y-26833000D01*
X44007000Y-27087000D01*
X43987000Y-27087000D01*
X43987000Y-27107000D01*
X43733000Y-27107000D01*
X43733000Y-27087000D01*
X43713000Y-27087000D01*
X43713000Y-26833000D01*
X43733000Y-26833000D01*
X43733000Y-25639845D01*
X43503110Y-25518524D01*
X43355901Y-25563175D01*
X43093080Y-25688359D01*
X42859731Y-25862412D01*
X42664822Y-26078645D01*
X42595201Y-26195523D01*
X42560706Y-26130986D01*
X42375134Y-25904866D01*
X42149014Y-25719294D01*
X41891034Y-25581401D01*
X41611111Y-25496487D01*
X41392950Y-25475000D01*
X41247050Y-25475000D01*
X41028889Y-25496487D01*
X40748966Y-25581401D01*
X40490986Y-25719294D01*
X40264866Y-25904866D01*
X40079294Y-26130986D01*
X40050000Y-26185791D01*
X40020706Y-26130986D01*
X39835134Y-25904866D01*
X39609014Y-25719294D01*
X39351034Y-25581401D01*
X39071111Y-25496487D01*
X38852950Y-25475000D01*
X38707050Y-25475000D01*
X38488889Y-25496487D01*
X38208966Y-25581401D01*
X37950986Y-25719294D01*
X37724866Y-25904866D01*
X37539294Y-26130986D01*
X37504799Y-26195523D01*
X37435178Y-26078645D01*
X37240269Y-25862412D01*
X37006920Y-25688359D01*
X36744099Y-25563175D01*
X36596890Y-25518524D01*
X36367000Y-25639845D01*
X36367000Y-26833000D01*
X36387000Y-26833000D01*
X36387000Y-27087000D01*
X36367000Y-27087000D01*
X36367000Y-27107000D01*
X36113000Y-27107000D01*
X36113000Y-27087000D01*
X36093000Y-27087000D01*
X36093000Y-26833000D01*
X36113000Y-26833000D01*
X36113000Y-25639845D01*
X35883110Y-25518524D01*
X35735901Y-25563175D01*
X35473080Y-25688359D01*
X35239731Y-25862412D01*
X35044822Y-26078645D01*
X34975201Y-26195523D01*
X34940706Y-26130986D01*
X34755134Y-25904866D01*
X34529014Y-25719294D01*
X34271034Y-25581401D01*
X33991111Y-25496487D01*
X33772950Y-25475000D01*
X33627050Y-25475000D01*
X33408889Y-25496487D01*
X33128966Y-25581401D01*
X32870986Y-25719294D01*
X32644866Y-25904866D01*
X32459294Y-26130986D01*
X32430000Y-26185791D01*
X32400706Y-26130986D01*
X32215134Y-25904866D01*
X31989014Y-25719294D01*
X31731034Y-25581401D01*
X31451111Y-25496487D01*
X31232950Y-25475000D01*
X31087050Y-25475000D01*
X30868889Y-25496487D01*
X30588966Y-25581401D01*
X30330986Y-25719294D01*
X30104866Y-25904866D01*
X29919294Y-26130986D01*
X29890000Y-26185791D01*
X29860706Y-26130986D01*
X29675134Y-25904866D01*
X29449014Y-25719294D01*
X29191034Y-25581401D01*
X28911111Y-25496487D01*
X28692950Y-25475000D01*
X28547050Y-25475000D01*
X28328889Y-25496487D01*
X28048966Y-25581401D01*
X27790986Y-25719294D01*
X27564866Y-25904866D01*
X27379294Y-26130986D01*
X27344799Y-26195523D01*
X27275178Y-26078645D01*
X27080269Y-25862412D01*
X26846920Y-25688359D01*
X26584099Y-25563175D01*
X26436890Y-25518524D01*
X26207000Y-25639845D01*
X26207000Y-26833000D01*
X26227000Y-26833000D01*
X26227000Y-27087000D01*
X26207000Y-27087000D01*
X26207000Y-27107000D01*
X25953000Y-27107000D01*
X25953000Y-27087000D01*
X25933000Y-27087000D01*
X25933000Y-26833000D01*
X25953000Y-26833000D01*
X25953000Y-25639845D01*
X25723110Y-25518524D01*
X25575901Y-25563175D01*
X25313080Y-25688359D01*
X25079731Y-25862412D01*
X24884822Y-26078645D01*
X24815201Y-26195523D01*
X24780706Y-26130986D01*
X24595134Y-25904866D01*
X24369014Y-25719294D01*
X24111034Y-25581401D01*
X23831111Y-25496487D01*
X23612950Y-25475000D01*
X23467050Y-25475000D01*
X23248889Y-25496487D01*
X22968966Y-25581401D01*
X22710986Y-25719294D01*
X22484866Y-25904866D01*
X22299294Y-26130986D01*
X22270000Y-26185791D01*
X22240706Y-26130986D01*
X22055134Y-25904866D01*
X21829014Y-25719294D01*
X21571034Y-25581401D01*
X21291111Y-25496487D01*
X21072950Y-25475000D01*
X20927050Y-25475000D01*
X20708889Y-25496487D01*
X20428966Y-25581401D01*
X20170986Y-25719294D01*
X19944866Y-25904866D01*
X19812000Y-26066764D01*
X19812000Y-25185000D01*
X70358000Y-25185000D01*
X70358000Y-25957098D01*
M02*
