G04 #@! TF.GenerationSoftware,KiCad,Pcbnew,(5.1.2)-2*
G04 #@! TF.CreationDate,2019-08-22T16:24:48-04:00*
G04 #@! TF.ProjectId,PiPixelv2,50695069-7865-46c7-9632-2e6b69636164,rev?*
G04 #@! TF.SameCoordinates,Original*
G04 #@! TF.FileFunction,Copper,L1,Top*
G04 #@! TF.FilePolarity,Positive*
%FSLAX46Y46*%
G04 Gerber Fmt 4.6, Leading zero omitted, Abs format (unit mm)*
G04 Created by KiCad (PCBNEW (5.1.2)-2) date 2019-08-22 16:24:48*
%MOMM*%
%LPD*%
G04 APERTURE LIST*
%ADD10C,0.100000*%
%ADD11O,1.700000X1.700000*%
%ADD12R,1.700000X1.700000*%
%ADD13C,3.000000*%
%ADD14C,4.500000*%
%ADD15C,2.500000*%
%ADD16O,1.998980X1.998980*%
%ADD17R,1.998980X1.998980*%
%ADD18R,1.000000X1.500000*%
%ADD19R,1.143000X0.508000*%
%ADD20C,0.600000*%
%ADD21C,0.250000*%
%ADD22C,0.254000*%
G04 APERTURE END LIST*
D10*
G36*
X45800000Y-32700000D02*
G01*
X47200000Y-32700000D01*
X47200000Y-33300000D01*
X45800000Y-33300000D01*
X45800000Y-32700000D01*
G37*
D11*
X69260000Y-26960000D03*
X69260000Y-29500000D03*
X66720000Y-26960000D03*
X66720000Y-29500000D03*
X64180000Y-26960000D03*
X64180000Y-29500000D03*
X61640000Y-26960000D03*
X61640000Y-29500000D03*
X59100000Y-26960000D03*
X59100000Y-29500000D03*
X56560000Y-26960000D03*
X56560000Y-29500000D03*
X54020000Y-26960000D03*
X54020000Y-29500000D03*
X51480000Y-26960000D03*
X51480000Y-29500000D03*
X48940000Y-26960000D03*
X48940000Y-29500000D03*
X46400000Y-26960000D03*
X46400000Y-29500000D03*
X43860000Y-26960000D03*
X43860000Y-29500000D03*
X41320000Y-26960000D03*
X41320000Y-29500000D03*
X38780000Y-26960000D03*
X38780000Y-29500000D03*
X36240000Y-26960000D03*
X36240000Y-29500000D03*
X33700000Y-26960000D03*
X33700000Y-29500000D03*
X31160000Y-26960000D03*
X31160000Y-29500000D03*
X28620000Y-26960000D03*
X28620000Y-29500000D03*
X26080000Y-26960000D03*
X26080000Y-29500000D03*
X23540000Y-26960000D03*
X23540000Y-29500000D03*
X21000000Y-26960000D03*
D12*
X21000000Y-29500000D03*
D13*
X16000000Y-28000000D03*
X16000000Y-51000000D03*
X74000000Y-51000000D03*
X74000000Y-28000000D03*
D14*
X21700140Y-37500000D03*
X15700660Y-37500000D03*
X18700400Y-42199000D03*
D15*
X25440000Y-47625000D03*
X30440000Y-47625000D03*
D16*
X72000000Y-42810000D03*
D17*
X72000000Y-35190000D03*
D16*
X72000000Y-37730000D03*
X72000000Y-40270000D03*
D18*
X47800000Y-40000000D03*
X46500000Y-40000000D03*
X45200000Y-40000000D03*
X30500000Y-36500000D03*
X29200000Y-36500000D03*
D19*
X57952000Y-37730000D03*
X57952000Y-42810000D03*
X57952000Y-41540000D03*
X57952000Y-40270000D03*
X57952000Y-39000000D03*
X57952000Y-36460000D03*
X57952000Y-35190000D03*
X64302000Y-35190000D03*
X64302000Y-36460000D03*
X64302000Y-37730000D03*
X64302000Y-39000000D03*
X64302000Y-40270000D03*
X64302000Y-41540000D03*
X64302000Y-42810000D03*
D18*
X45400000Y-33000000D03*
X47600000Y-33000000D03*
D20*
X64500000Y-34000000D03*
X66000000Y-37000000D03*
X57000000Y-32500000D03*
X66000000Y-41500006D03*
X56500000Y-41000000D03*
D21*
X29200000Y-36750000D02*
X29200000Y-36500000D01*
X28450000Y-37500000D02*
X29200000Y-36750000D01*
X21700140Y-37500000D02*
X28450000Y-37500000D01*
X63405499Y-39579001D02*
X63984500Y-39000000D01*
X63405499Y-42230999D02*
X63405499Y-39579001D01*
X63984500Y-42810000D02*
X63405499Y-42230999D01*
X64302000Y-42810000D02*
X63984500Y-42810000D01*
X63984500Y-35190000D02*
X64302000Y-35190000D01*
X63405499Y-35769001D02*
X63984500Y-35190000D01*
X63405499Y-38420999D02*
X63405499Y-35769001D01*
X63984500Y-39000000D02*
X63405499Y-38420999D01*
X64302000Y-39000000D02*
X63984500Y-39000000D01*
X64302000Y-35190000D02*
X64302000Y-34198000D01*
X64302000Y-34198000D02*
X64500000Y-34000000D01*
X21000000Y-26960000D02*
X23540000Y-26960000D01*
X30500000Y-35659002D02*
X30500000Y-36500000D01*
X24904999Y-30064001D02*
X30500000Y-35659002D01*
X24904999Y-28324999D02*
X24904999Y-30064001D01*
X23540000Y-26960000D02*
X24904999Y-28324999D01*
X31250000Y-36500000D02*
X37750000Y-43000000D01*
X30500000Y-36500000D02*
X31250000Y-36500000D01*
X37750000Y-43000000D02*
X56500000Y-43000000D01*
X56690000Y-42810000D02*
X57952000Y-42810000D01*
X56500000Y-43000000D02*
X56690000Y-42810000D01*
X57952000Y-41540000D02*
X57952000Y-42810000D01*
X58269500Y-37730000D02*
X57952000Y-37730000D01*
X58848501Y-38309001D02*
X58269500Y-37730000D01*
X58848501Y-40960999D02*
X58848501Y-38309001D01*
X58269500Y-41540000D02*
X58848501Y-40960999D01*
X57952000Y-41540000D02*
X58269500Y-41540000D01*
X61640000Y-29500000D02*
X53140000Y-38000000D01*
X53140000Y-38000000D02*
X49500000Y-38000000D01*
X47800000Y-39750000D02*
X47800000Y-40000000D01*
X49500000Y-38050000D02*
X47800000Y-39750000D01*
X49500000Y-38000000D02*
X49500000Y-38050000D01*
X45200000Y-39000000D02*
X44200000Y-38000000D01*
X45200000Y-40000000D02*
X45200000Y-39000000D01*
X44200000Y-38000000D02*
X41500000Y-38000000D01*
X34549999Y-27809999D02*
X33700000Y-26960000D01*
X34875001Y-28135001D02*
X34549999Y-27809999D01*
X34875001Y-31375001D02*
X34875001Y-28135001D01*
X41500000Y-38000000D02*
X34875001Y-31375001D01*
X44650000Y-33000000D02*
X45400000Y-33000000D01*
X43860000Y-32210000D02*
X44650000Y-33000000D01*
X43860000Y-29500000D02*
X43860000Y-32210000D01*
X65270000Y-37730000D02*
X65700001Y-37299999D01*
X64302000Y-37730000D02*
X65270000Y-37730000D01*
X65700001Y-37299999D02*
X66000000Y-37000000D01*
X48940000Y-29500000D02*
X51940000Y-32500000D01*
X56575736Y-32500000D02*
X57000000Y-32500000D01*
X51940000Y-32500000D02*
X56575736Y-32500000D01*
X72999489Y-38729489D02*
X72000000Y-37730000D01*
X67499752Y-40270000D02*
X71729752Y-44500000D01*
X71729752Y-44500000D02*
X72270248Y-44500000D01*
X72270248Y-44500000D02*
X73324491Y-43445757D01*
X64302000Y-40270000D02*
X67499752Y-40270000D01*
X73324491Y-43445757D02*
X73324491Y-39054491D01*
X73324491Y-39054491D02*
X72999489Y-38729489D01*
X67686000Y-35956000D02*
X71000511Y-39270511D01*
X65123500Y-35956000D02*
X67686000Y-35956000D01*
X71000511Y-39270511D02*
X72000000Y-40270000D01*
X64302000Y-36460000D02*
X64619500Y-36460000D01*
X64619500Y-36460000D02*
X65123500Y-35956000D01*
X46500000Y-39000000D02*
X46500000Y-40000000D01*
X46500000Y-35100000D02*
X46500000Y-39000000D01*
X47600000Y-34000000D02*
X46500000Y-35100000D01*
X47600000Y-33000000D02*
X47600000Y-34000000D01*
X65960006Y-41540000D02*
X66000000Y-41500006D01*
X64302000Y-41540000D02*
X65960006Y-41540000D01*
X46799999Y-41299999D02*
X56200001Y-41299999D01*
X56200001Y-41299999D02*
X56500000Y-41000000D01*
X46500000Y-41000000D02*
X46799999Y-41299999D01*
X46500000Y-40000000D02*
X46500000Y-41000000D01*
D22*
G36*
X19511928Y-30350000D02*
G01*
X19524188Y-30474482D01*
X19560498Y-30594180D01*
X19619463Y-30704494D01*
X19698815Y-30801185D01*
X19795506Y-30880537D01*
X19905820Y-30939502D01*
X20025518Y-30975812D01*
X20150000Y-30988072D01*
X21850000Y-30988072D01*
X21974482Y-30975812D01*
X22094180Y-30939502D01*
X22204494Y-30880537D01*
X22301185Y-30801185D01*
X22380537Y-30704494D01*
X22439502Y-30594180D01*
X22460393Y-30525313D01*
X22484866Y-30555134D01*
X22710986Y-30740706D01*
X22968966Y-30878599D01*
X23248889Y-30963513D01*
X23467050Y-30985000D01*
X23612950Y-30985000D01*
X23831111Y-30963513D01*
X24111034Y-30878599D01*
X24369014Y-30740706D01*
X24444749Y-30678552D01*
X28880715Y-35114519D01*
X28700000Y-35111928D01*
X28575518Y-35124188D01*
X28455820Y-35160498D01*
X28345506Y-35219463D01*
X28248815Y-35298815D01*
X28169463Y-35395506D01*
X28110498Y-35505820D01*
X28074188Y-35625518D01*
X28061928Y-35750000D01*
X28065000Y-36214250D01*
X28223750Y-36373000D01*
X29073000Y-36373000D01*
X29073000Y-36353000D01*
X29327000Y-36353000D01*
X29327000Y-36373000D01*
X29347000Y-36373000D01*
X29347000Y-36627000D01*
X29327000Y-36627000D01*
X29327000Y-37726250D01*
X29485750Y-37885000D01*
X29700000Y-37888072D01*
X29824482Y-37875812D01*
X29850000Y-37868071D01*
X29875518Y-37875812D01*
X30000000Y-37888072D01*
X31000000Y-37888072D01*
X31124482Y-37875812D01*
X31244180Y-37839502D01*
X31354494Y-37780537D01*
X31410101Y-37734902D01*
X37186201Y-43511003D01*
X37209999Y-43540001D01*
X37238997Y-43563799D01*
X37325723Y-43634974D01*
X37428317Y-43689812D01*
X37457753Y-43705546D01*
X37601014Y-43749003D01*
X37712667Y-43760000D01*
X37712676Y-43760000D01*
X37749999Y-43763676D01*
X37787322Y-43760000D01*
X56462678Y-43760000D01*
X56500000Y-43763676D01*
X56537322Y-43760000D01*
X56537333Y-43760000D01*
X56648986Y-43749003D01*
X56792247Y-43705546D01*
X56924276Y-43634974D01*
X56999777Y-43573012D01*
X57026006Y-43594537D01*
X57136320Y-43653502D01*
X57256018Y-43689812D01*
X57380500Y-43702072D01*
X58523500Y-43702072D01*
X58647982Y-43689812D01*
X58767680Y-43653502D01*
X58877994Y-43594537D01*
X58974685Y-43515185D01*
X59054037Y-43418494D01*
X59113002Y-43308180D01*
X59149312Y-43188482D01*
X59161572Y-43064000D01*
X59161572Y-42556000D01*
X59149312Y-42431518D01*
X59113002Y-42311820D01*
X59054037Y-42201506D01*
X59032284Y-42175000D01*
X59054037Y-42148494D01*
X59113002Y-42038180D01*
X59149312Y-41918482D01*
X59161572Y-41794000D01*
X59161572Y-41722730D01*
X59359505Y-41524797D01*
X59388502Y-41501000D01*
X59431190Y-41448985D01*
X59483475Y-41385276D01*
X59554047Y-41253246D01*
X59569839Y-41201185D01*
X59597504Y-41109985D01*
X59608501Y-40998332D01*
X59608501Y-40998323D01*
X59612177Y-40961000D01*
X59608501Y-40923677D01*
X59608501Y-38346323D01*
X59612177Y-38309000D01*
X59608501Y-38271677D01*
X59608501Y-38271668D01*
X59597504Y-38160015D01*
X59554047Y-38016754D01*
X59525137Y-37962668D01*
X59483475Y-37884724D01*
X59412300Y-37797998D01*
X59388502Y-37769000D01*
X59359503Y-37745201D01*
X59161572Y-37547270D01*
X59161572Y-37476000D01*
X59149312Y-37351518D01*
X59113002Y-37231820D01*
X59054037Y-37121506D01*
X59032284Y-37095000D01*
X59054037Y-37068494D01*
X59113002Y-36958180D01*
X59149312Y-36838482D01*
X59161572Y-36714000D01*
X59161572Y-36206000D01*
X59149312Y-36081518D01*
X59113002Y-35961820D01*
X59054037Y-35851506D01*
X59032284Y-35825000D01*
X59054037Y-35798494D01*
X59069801Y-35769001D01*
X62641823Y-35769001D01*
X62645500Y-35806333D01*
X62645499Y-38383676D01*
X62641823Y-38420999D01*
X62645499Y-38458321D01*
X62645499Y-38458331D01*
X62656496Y-38569984D01*
X62683547Y-38659160D01*
X62699953Y-38713245D01*
X62770525Y-38845275D01*
X62793652Y-38873455D01*
X62865498Y-38961000D01*
X62894501Y-38984802D01*
X62909699Y-39000000D01*
X62894497Y-39015202D01*
X62865499Y-39039000D01*
X62841701Y-39067998D01*
X62841700Y-39067999D01*
X62770525Y-39154725D01*
X62699953Y-39286755D01*
X62676373Y-39364490D01*
X62656497Y-39430015D01*
X62651695Y-39478766D01*
X62641823Y-39579001D01*
X62645500Y-39616333D01*
X62645499Y-42193676D01*
X62641823Y-42230999D01*
X62645499Y-42268321D01*
X62645499Y-42268331D01*
X62656496Y-42379984D01*
X62689742Y-42489584D01*
X62699953Y-42523245D01*
X62770525Y-42655275D01*
X62804566Y-42696754D01*
X62865498Y-42771000D01*
X62894501Y-42794802D01*
X63092428Y-42992729D01*
X63092428Y-43064000D01*
X63104688Y-43188482D01*
X63140998Y-43308180D01*
X63199963Y-43418494D01*
X63279315Y-43515185D01*
X63376006Y-43594537D01*
X63486320Y-43653502D01*
X63606018Y-43689812D01*
X63730500Y-43702072D01*
X64873500Y-43702072D01*
X64997982Y-43689812D01*
X65117680Y-43653502D01*
X65227994Y-43594537D01*
X65324685Y-43515185D01*
X65404037Y-43418494D01*
X65463002Y-43308180D01*
X65499312Y-43188482D01*
X65511572Y-43064000D01*
X65511572Y-42556000D01*
X65499312Y-42431518D01*
X65463002Y-42311820D01*
X65456684Y-42300000D01*
X65514320Y-42300000D01*
X65557111Y-42328592D01*
X65727271Y-42399074D01*
X65907911Y-42435006D01*
X66092089Y-42435006D01*
X66272729Y-42399074D01*
X66442889Y-42328592D01*
X66596028Y-42226268D01*
X66726262Y-42096034D01*
X66828586Y-41942895D01*
X66899068Y-41772735D01*
X66935000Y-41592095D01*
X66935000Y-41407917D01*
X66899068Y-41227277D01*
X66828586Y-41057117D01*
X66810467Y-41030000D01*
X67184951Y-41030000D01*
X71165953Y-45011003D01*
X71189751Y-45040001D01*
X71305476Y-45134974D01*
X71437505Y-45205546D01*
X71580766Y-45249003D01*
X71692419Y-45260000D01*
X71692428Y-45260000D01*
X71729751Y-45263676D01*
X71767074Y-45260000D01*
X72232926Y-45260000D01*
X72270248Y-45263676D01*
X72307570Y-45260000D01*
X72307581Y-45260000D01*
X72419234Y-45249003D01*
X72562495Y-45205546D01*
X72694524Y-45134974D01*
X72810249Y-45040001D01*
X72834052Y-45010998D01*
X73835495Y-44009555D01*
X73864492Y-43985758D01*
X73959465Y-43870033D01*
X74030037Y-43738004D01*
X74073494Y-43594743D01*
X74084491Y-43483090D01*
X74084491Y-43483082D01*
X74088167Y-43445757D01*
X74084491Y-43408432D01*
X74084491Y-39091813D01*
X74088167Y-39054490D01*
X74084491Y-39017167D01*
X74084491Y-39017158D01*
X74073494Y-38905505D01*
X74030037Y-38762244D01*
X73959465Y-38630215D01*
X73864492Y-38514490D01*
X73835488Y-38490687D01*
X73563293Y-38218492D01*
X73563288Y-38218486D01*
X73560655Y-38215853D01*
X73610840Y-38050416D01*
X73642398Y-37730000D01*
X73610840Y-37409584D01*
X73517378Y-37101481D01*
X73365604Y-36817533D01*
X73306439Y-36745440D01*
X73353984Y-36720027D01*
X73450675Y-36640675D01*
X73530027Y-36543984D01*
X73588992Y-36433670D01*
X73625302Y-36313972D01*
X73637562Y-36189490D01*
X73634490Y-35475750D01*
X73475740Y-35317000D01*
X72127000Y-35317000D01*
X72127000Y-35337000D01*
X71873000Y-35337000D01*
X71873000Y-35317000D01*
X70524260Y-35317000D01*
X70365510Y-35475750D01*
X70362438Y-36189490D01*
X70374698Y-36313972D01*
X70411008Y-36433670D01*
X70469973Y-36543984D01*
X70549325Y-36640675D01*
X70646016Y-36720027D01*
X70693561Y-36745440D01*
X70634396Y-36817533D01*
X70482622Y-37101481D01*
X70389160Y-37409584D01*
X70373490Y-37568687D01*
X68249804Y-35445003D01*
X68226001Y-35415999D01*
X68110276Y-35321026D01*
X67978247Y-35250454D01*
X67834986Y-35206997D01*
X67723333Y-35196000D01*
X67723322Y-35196000D01*
X67686000Y-35192324D01*
X67648678Y-35196000D01*
X65511572Y-35196000D01*
X65511572Y-34936000D01*
X65499312Y-34811518D01*
X65463002Y-34691820D01*
X65404037Y-34581506D01*
X65324685Y-34484815D01*
X65309112Y-34472034D01*
X65328586Y-34442889D01*
X65399068Y-34272729D01*
X65415422Y-34190510D01*
X70362438Y-34190510D01*
X70365510Y-34904250D01*
X70524260Y-35063000D01*
X71873000Y-35063000D01*
X71873000Y-33714260D01*
X72127000Y-33714260D01*
X72127000Y-35063000D01*
X73475740Y-35063000D01*
X73634490Y-34904250D01*
X73637562Y-34190510D01*
X73625302Y-34066028D01*
X73588992Y-33946330D01*
X73530027Y-33836016D01*
X73450675Y-33739325D01*
X73353984Y-33659973D01*
X73243670Y-33601008D01*
X73123972Y-33564698D01*
X72999490Y-33552438D01*
X72285750Y-33555510D01*
X72127000Y-33714260D01*
X71873000Y-33714260D01*
X71714250Y-33555510D01*
X71000510Y-33552438D01*
X70876028Y-33564698D01*
X70756330Y-33601008D01*
X70646016Y-33659973D01*
X70549325Y-33739325D01*
X70469973Y-33836016D01*
X70411008Y-33946330D01*
X70374698Y-34066028D01*
X70362438Y-34190510D01*
X65415422Y-34190510D01*
X65435000Y-34092089D01*
X65435000Y-33907911D01*
X65399068Y-33727271D01*
X65328586Y-33557111D01*
X65226262Y-33403972D01*
X65096028Y-33273738D01*
X64942889Y-33171414D01*
X64772729Y-33100932D01*
X64592089Y-33065000D01*
X64407911Y-33065000D01*
X64227271Y-33100932D01*
X64057111Y-33171414D01*
X63903972Y-33273738D01*
X63773738Y-33403972D01*
X63671414Y-33557111D01*
X63600932Y-33727271D01*
X63565000Y-33907911D01*
X63565000Y-34009448D01*
X63552998Y-34049014D01*
X63543151Y-34148987D01*
X63538324Y-34198000D01*
X63542001Y-34235332D01*
X63542001Y-34329607D01*
X63486320Y-34346498D01*
X63376006Y-34405463D01*
X63279315Y-34484815D01*
X63199963Y-34581506D01*
X63140998Y-34691820D01*
X63104688Y-34811518D01*
X63092428Y-34936000D01*
X63092428Y-35007271D01*
X62894497Y-35205202D01*
X62865499Y-35229000D01*
X62841701Y-35257998D01*
X62841700Y-35257999D01*
X62770525Y-35344725D01*
X62699953Y-35476755D01*
X62656497Y-35620016D01*
X62641823Y-35769001D01*
X59069801Y-35769001D01*
X59113002Y-35688180D01*
X59149312Y-35568482D01*
X59161572Y-35444000D01*
X59161572Y-34936000D01*
X59149312Y-34811518D01*
X59113002Y-34691820D01*
X59054037Y-34581506D01*
X58974685Y-34484815D01*
X58877994Y-34405463D01*
X58767680Y-34346498D01*
X58647982Y-34310188D01*
X58523500Y-34297928D01*
X57916873Y-34297928D01*
X61274005Y-30940797D01*
X61348889Y-30963513D01*
X61567050Y-30985000D01*
X61712950Y-30985000D01*
X61931111Y-30963513D01*
X62211034Y-30878599D01*
X62469014Y-30740706D01*
X62695134Y-30555134D01*
X62880706Y-30329014D01*
X62910000Y-30274209D01*
X62939294Y-30329014D01*
X63124866Y-30555134D01*
X63350986Y-30740706D01*
X63608966Y-30878599D01*
X63888889Y-30963513D01*
X64107050Y-30985000D01*
X64252950Y-30985000D01*
X64471111Y-30963513D01*
X64751034Y-30878599D01*
X65009014Y-30740706D01*
X65235134Y-30555134D01*
X65420706Y-30329014D01*
X65450000Y-30274209D01*
X65479294Y-30329014D01*
X65664866Y-30555134D01*
X65890986Y-30740706D01*
X66148966Y-30878599D01*
X66428889Y-30963513D01*
X66647050Y-30985000D01*
X66792950Y-30985000D01*
X67011111Y-30963513D01*
X67291034Y-30878599D01*
X67549014Y-30740706D01*
X67775134Y-30555134D01*
X67960706Y-30329014D01*
X67990000Y-30274209D01*
X68019294Y-30329014D01*
X68204866Y-30555134D01*
X68430986Y-30740706D01*
X68688966Y-30878599D01*
X68968889Y-30963513D01*
X69187050Y-30985000D01*
X69332950Y-30985000D01*
X69551111Y-30963513D01*
X69831034Y-30878599D01*
X70089014Y-30740706D01*
X70315134Y-30555134D01*
X70500706Y-30329014D01*
X70638599Y-30071034D01*
X70723513Y-29791111D01*
X70738127Y-29642733D01*
X72935197Y-31839803D01*
X72954443Y-31855597D01*
X72976399Y-31867333D01*
X73000224Y-31874560D01*
X73025000Y-31877000D01*
X76708000Y-31877000D01*
X76708000Y-47498000D01*
X72390000Y-47498000D01*
X72365224Y-47500440D01*
X72341399Y-47507667D01*
X72319443Y-47519403D01*
X72300197Y-47535197D01*
X72288400Y-47548800D01*
X70383400Y-50088800D01*
X70370486Y-50110085D01*
X70361973Y-50133481D01*
X70358000Y-50165000D01*
X70358000Y-53815000D01*
X19812000Y-53815000D01*
X19812000Y-47439344D01*
X23555000Y-47439344D01*
X23555000Y-47810656D01*
X23627439Y-48174834D01*
X23769534Y-48517882D01*
X23975825Y-48826618D01*
X24238382Y-49089175D01*
X24547118Y-49295466D01*
X24890166Y-49437561D01*
X25254344Y-49510000D01*
X25625656Y-49510000D01*
X25989834Y-49437561D01*
X26332882Y-49295466D01*
X26641618Y-49089175D01*
X26792188Y-48938605D01*
X29306000Y-48938605D01*
X29431914Y-49228577D01*
X29764126Y-49394433D01*
X30122312Y-49492290D01*
X30492706Y-49518389D01*
X30861075Y-49471725D01*
X31213262Y-49354094D01*
X31448086Y-49228577D01*
X31574000Y-48938605D01*
X30440000Y-47804605D01*
X29306000Y-48938605D01*
X26792188Y-48938605D01*
X26904175Y-48826618D01*
X27110466Y-48517882D01*
X27252561Y-48174834D01*
X27325000Y-47810656D01*
X27325000Y-47677706D01*
X28546611Y-47677706D01*
X28593275Y-48046075D01*
X28710906Y-48398262D01*
X28836423Y-48633086D01*
X29126395Y-48759000D01*
X30260395Y-47625000D01*
X30619605Y-47625000D01*
X31753605Y-48759000D01*
X32043577Y-48633086D01*
X32209433Y-48300874D01*
X32307290Y-47942688D01*
X32333389Y-47572294D01*
X32286725Y-47203925D01*
X32169094Y-46851738D01*
X32043577Y-46616914D01*
X31753605Y-46491000D01*
X30619605Y-47625000D01*
X30260395Y-47625000D01*
X29126395Y-46491000D01*
X28836423Y-46616914D01*
X28670567Y-46949126D01*
X28572710Y-47307312D01*
X28546611Y-47677706D01*
X27325000Y-47677706D01*
X27325000Y-47439344D01*
X27252561Y-47075166D01*
X27110466Y-46732118D01*
X26904175Y-46423382D01*
X26792188Y-46311395D01*
X29306000Y-46311395D01*
X30440000Y-47445395D01*
X31574000Y-46311395D01*
X31448086Y-46021423D01*
X31115874Y-45855567D01*
X30757688Y-45757710D01*
X30387294Y-45731611D01*
X30018925Y-45778275D01*
X29666738Y-45895906D01*
X29431914Y-46021423D01*
X29306000Y-46311395D01*
X26792188Y-46311395D01*
X26641618Y-46160825D01*
X26332882Y-45954534D01*
X25989834Y-45812439D01*
X25625656Y-45740000D01*
X25254344Y-45740000D01*
X24890166Y-45812439D01*
X24547118Y-45954534D01*
X24238382Y-46160825D01*
X23975825Y-46423382D01*
X23769534Y-46732118D01*
X23627439Y-47075166D01*
X23555000Y-47439344D01*
X19812000Y-47439344D01*
X19812000Y-46990000D01*
X19809560Y-46965224D01*
X19802333Y-46941399D01*
X19790597Y-46919443D01*
X19774803Y-46900197D01*
X19755557Y-46884403D01*
X19733601Y-46872667D01*
X19709776Y-46865440D01*
X19685000Y-46863000D01*
X13462000Y-46863000D01*
X13462000Y-39341346D01*
X13861580Y-39740926D01*
X14334100Y-40056654D01*
X14859137Y-40274131D01*
X15416512Y-40385000D01*
X15984808Y-40385000D01*
X16542183Y-40274131D01*
X16547441Y-40271953D01*
X16459474Y-40359920D01*
X16143746Y-40832440D01*
X15926269Y-41357477D01*
X15815400Y-41914852D01*
X15815400Y-42483148D01*
X15926269Y-43040523D01*
X16143746Y-43565560D01*
X16459474Y-44038080D01*
X16861320Y-44439926D01*
X17333840Y-44755654D01*
X17858877Y-44973131D01*
X18416252Y-45084000D01*
X18984548Y-45084000D01*
X19541923Y-44973131D01*
X20066960Y-44755654D01*
X20539480Y-44439926D01*
X20941326Y-44038080D01*
X21257054Y-43565560D01*
X21474531Y-43040523D01*
X21585400Y-42483148D01*
X21585400Y-41914852D01*
X21474531Y-41357477D01*
X21257054Y-40832440D01*
X20941326Y-40359920D01*
X20833508Y-40252102D01*
X21147533Y-40345801D01*
X21713339Y-40398928D01*
X22278638Y-40340652D01*
X22821706Y-40173210D01*
X23299724Y-39917704D01*
X23545875Y-39525340D01*
X21700140Y-37679605D01*
X21685998Y-37693748D01*
X21506393Y-37514143D01*
X21520535Y-37500000D01*
X21879745Y-37500000D01*
X23725480Y-39345735D01*
X24117844Y-39099584D01*
X24383452Y-38597178D01*
X24545941Y-38052607D01*
X24599068Y-37486801D01*
X24574657Y-37250000D01*
X28061928Y-37250000D01*
X28074188Y-37374482D01*
X28110498Y-37494180D01*
X28169463Y-37604494D01*
X28248815Y-37701185D01*
X28345506Y-37780537D01*
X28455820Y-37839502D01*
X28575518Y-37875812D01*
X28700000Y-37888072D01*
X28914250Y-37885000D01*
X29073000Y-37726250D01*
X29073000Y-36627000D01*
X28223750Y-36627000D01*
X28065000Y-36785750D01*
X28061928Y-37250000D01*
X24574657Y-37250000D01*
X24540792Y-36921502D01*
X24373350Y-36378434D01*
X24117844Y-35900416D01*
X23725480Y-35654265D01*
X21879745Y-37500000D01*
X21520535Y-37500000D01*
X19674800Y-35654265D01*
X19282436Y-35900416D01*
X19016828Y-36402822D01*
X18854339Y-36947393D01*
X18801212Y-37513199D01*
X18859488Y-38078498D01*
X19026930Y-38621566D01*
X19282436Y-39099584D01*
X19674798Y-39345734D01*
X19579923Y-39440609D01*
X19541923Y-39424869D01*
X18984548Y-39314000D01*
X18416252Y-39314000D01*
X17858877Y-39424869D01*
X17853619Y-39427047D01*
X17941586Y-39339080D01*
X18257314Y-38866560D01*
X18474791Y-38341523D01*
X18585660Y-37784148D01*
X18585660Y-37215852D01*
X18474791Y-36658477D01*
X18257314Y-36133440D01*
X17941586Y-35660920D01*
X17755326Y-35474660D01*
X19854405Y-35474660D01*
X21700140Y-37320395D01*
X23545875Y-35474660D01*
X23299724Y-35082296D01*
X22797318Y-34816688D01*
X22252747Y-34654199D01*
X21686941Y-34601072D01*
X21121642Y-34659348D01*
X20578574Y-34826790D01*
X20100556Y-35082296D01*
X19854405Y-35474660D01*
X17755326Y-35474660D01*
X17539740Y-35259074D01*
X17067220Y-34943346D01*
X16542183Y-34725869D01*
X15984808Y-34615000D01*
X15416512Y-34615000D01*
X14859137Y-34725869D01*
X14334100Y-34943346D01*
X13861580Y-35259074D01*
X13462000Y-35658654D01*
X13462000Y-31877000D01*
X19050000Y-31877000D01*
X19074776Y-31874560D01*
X19098601Y-31867333D01*
X19120557Y-31855597D01*
X19139803Y-31839803D01*
X19155597Y-31820557D01*
X19167333Y-31798601D01*
X19174560Y-31774776D01*
X19177000Y-31750000D01*
X19177000Y-29874980D01*
X19511928Y-29205124D01*
X19511928Y-30350000D01*
X19511928Y-30350000D01*
G37*
X19511928Y-30350000D02*
X19524188Y-30474482D01*
X19560498Y-30594180D01*
X19619463Y-30704494D01*
X19698815Y-30801185D01*
X19795506Y-30880537D01*
X19905820Y-30939502D01*
X20025518Y-30975812D01*
X20150000Y-30988072D01*
X21850000Y-30988072D01*
X21974482Y-30975812D01*
X22094180Y-30939502D01*
X22204494Y-30880537D01*
X22301185Y-30801185D01*
X22380537Y-30704494D01*
X22439502Y-30594180D01*
X22460393Y-30525313D01*
X22484866Y-30555134D01*
X22710986Y-30740706D01*
X22968966Y-30878599D01*
X23248889Y-30963513D01*
X23467050Y-30985000D01*
X23612950Y-30985000D01*
X23831111Y-30963513D01*
X24111034Y-30878599D01*
X24369014Y-30740706D01*
X24444749Y-30678552D01*
X28880715Y-35114519D01*
X28700000Y-35111928D01*
X28575518Y-35124188D01*
X28455820Y-35160498D01*
X28345506Y-35219463D01*
X28248815Y-35298815D01*
X28169463Y-35395506D01*
X28110498Y-35505820D01*
X28074188Y-35625518D01*
X28061928Y-35750000D01*
X28065000Y-36214250D01*
X28223750Y-36373000D01*
X29073000Y-36373000D01*
X29073000Y-36353000D01*
X29327000Y-36353000D01*
X29327000Y-36373000D01*
X29347000Y-36373000D01*
X29347000Y-36627000D01*
X29327000Y-36627000D01*
X29327000Y-37726250D01*
X29485750Y-37885000D01*
X29700000Y-37888072D01*
X29824482Y-37875812D01*
X29850000Y-37868071D01*
X29875518Y-37875812D01*
X30000000Y-37888072D01*
X31000000Y-37888072D01*
X31124482Y-37875812D01*
X31244180Y-37839502D01*
X31354494Y-37780537D01*
X31410101Y-37734902D01*
X37186201Y-43511003D01*
X37209999Y-43540001D01*
X37238997Y-43563799D01*
X37325723Y-43634974D01*
X37428317Y-43689812D01*
X37457753Y-43705546D01*
X37601014Y-43749003D01*
X37712667Y-43760000D01*
X37712676Y-43760000D01*
X37749999Y-43763676D01*
X37787322Y-43760000D01*
X56462678Y-43760000D01*
X56500000Y-43763676D01*
X56537322Y-43760000D01*
X56537333Y-43760000D01*
X56648986Y-43749003D01*
X56792247Y-43705546D01*
X56924276Y-43634974D01*
X56999777Y-43573012D01*
X57026006Y-43594537D01*
X57136320Y-43653502D01*
X57256018Y-43689812D01*
X57380500Y-43702072D01*
X58523500Y-43702072D01*
X58647982Y-43689812D01*
X58767680Y-43653502D01*
X58877994Y-43594537D01*
X58974685Y-43515185D01*
X59054037Y-43418494D01*
X59113002Y-43308180D01*
X59149312Y-43188482D01*
X59161572Y-43064000D01*
X59161572Y-42556000D01*
X59149312Y-42431518D01*
X59113002Y-42311820D01*
X59054037Y-42201506D01*
X59032284Y-42175000D01*
X59054037Y-42148494D01*
X59113002Y-42038180D01*
X59149312Y-41918482D01*
X59161572Y-41794000D01*
X59161572Y-41722730D01*
X59359505Y-41524797D01*
X59388502Y-41501000D01*
X59431190Y-41448985D01*
X59483475Y-41385276D01*
X59554047Y-41253246D01*
X59569839Y-41201185D01*
X59597504Y-41109985D01*
X59608501Y-40998332D01*
X59608501Y-40998323D01*
X59612177Y-40961000D01*
X59608501Y-40923677D01*
X59608501Y-38346323D01*
X59612177Y-38309000D01*
X59608501Y-38271677D01*
X59608501Y-38271668D01*
X59597504Y-38160015D01*
X59554047Y-38016754D01*
X59525137Y-37962668D01*
X59483475Y-37884724D01*
X59412300Y-37797998D01*
X59388502Y-37769000D01*
X59359503Y-37745201D01*
X59161572Y-37547270D01*
X59161572Y-37476000D01*
X59149312Y-37351518D01*
X59113002Y-37231820D01*
X59054037Y-37121506D01*
X59032284Y-37095000D01*
X59054037Y-37068494D01*
X59113002Y-36958180D01*
X59149312Y-36838482D01*
X59161572Y-36714000D01*
X59161572Y-36206000D01*
X59149312Y-36081518D01*
X59113002Y-35961820D01*
X59054037Y-35851506D01*
X59032284Y-35825000D01*
X59054037Y-35798494D01*
X59069801Y-35769001D01*
X62641823Y-35769001D01*
X62645500Y-35806333D01*
X62645499Y-38383676D01*
X62641823Y-38420999D01*
X62645499Y-38458321D01*
X62645499Y-38458331D01*
X62656496Y-38569984D01*
X62683547Y-38659160D01*
X62699953Y-38713245D01*
X62770525Y-38845275D01*
X62793652Y-38873455D01*
X62865498Y-38961000D01*
X62894501Y-38984802D01*
X62909699Y-39000000D01*
X62894497Y-39015202D01*
X62865499Y-39039000D01*
X62841701Y-39067998D01*
X62841700Y-39067999D01*
X62770525Y-39154725D01*
X62699953Y-39286755D01*
X62676373Y-39364490D01*
X62656497Y-39430015D01*
X62651695Y-39478766D01*
X62641823Y-39579001D01*
X62645500Y-39616333D01*
X62645499Y-42193676D01*
X62641823Y-42230999D01*
X62645499Y-42268321D01*
X62645499Y-42268331D01*
X62656496Y-42379984D01*
X62689742Y-42489584D01*
X62699953Y-42523245D01*
X62770525Y-42655275D01*
X62804566Y-42696754D01*
X62865498Y-42771000D01*
X62894501Y-42794802D01*
X63092428Y-42992729D01*
X63092428Y-43064000D01*
X63104688Y-43188482D01*
X63140998Y-43308180D01*
X63199963Y-43418494D01*
X63279315Y-43515185D01*
X63376006Y-43594537D01*
X63486320Y-43653502D01*
X63606018Y-43689812D01*
X63730500Y-43702072D01*
X64873500Y-43702072D01*
X64997982Y-43689812D01*
X65117680Y-43653502D01*
X65227994Y-43594537D01*
X65324685Y-43515185D01*
X65404037Y-43418494D01*
X65463002Y-43308180D01*
X65499312Y-43188482D01*
X65511572Y-43064000D01*
X65511572Y-42556000D01*
X65499312Y-42431518D01*
X65463002Y-42311820D01*
X65456684Y-42300000D01*
X65514320Y-42300000D01*
X65557111Y-42328592D01*
X65727271Y-42399074D01*
X65907911Y-42435006D01*
X66092089Y-42435006D01*
X66272729Y-42399074D01*
X66442889Y-42328592D01*
X66596028Y-42226268D01*
X66726262Y-42096034D01*
X66828586Y-41942895D01*
X66899068Y-41772735D01*
X66935000Y-41592095D01*
X66935000Y-41407917D01*
X66899068Y-41227277D01*
X66828586Y-41057117D01*
X66810467Y-41030000D01*
X67184951Y-41030000D01*
X71165953Y-45011003D01*
X71189751Y-45040001D01*
X71305476Y-45134974D01*
X71437505Y-45205546D01*
X71580766Y-45249003D01*
X71692419Y-45260000D01*
X71692428Y-45260000D01*
X71729751Y-45263676D01*
X71767074Y-45260000D01*
X72232926Y-45260000D01*
X72270248Y-45263676D01*
X72307570Y-45260000D01*
X72307581Y-45260000D01*
X72419234Y-45249003D01*
X72562495Y-45205546D01*
X72694524Y-45134974D01*
X72810249Y-45040001D01*
X72834052Y-45010998D01*
X73835495Y-44009555D01*
X73864492Y-43985758D01*
X73959465Y-43870033D01*
X74030037Y-43738004D01*
X74073494Y-43594743D01*
X74084491Y-43483090D01*
X74084491Y-43483082D01*
X74088167Y-43445757D01*
X74084491Y-43408432D01*
X74084491Y-39091813D01*
X74088167Y-39054490D01*
X74084491Y-39017167D01*
X74084491Y-39017158D01*
X74073494Y-38905505D01*
X74030037Y-38762244D01*
X73959465Y-38630215D01*
X73864492Y-38514490D01*
X73835488Y-38490687D01*
X73563293Y-38218492D01*
X73563288Y-38218486D01*
X73560655Y-38215853D01*
X73610840Y-38050416D01*
X73642398Y-37730000D01*
X73610840Y-37409584D01*
X73517378Y-37101481D01*
X73365604Y-36817533D01*
X73306439Y-36745440D01*
X73353984Y-36720027D01*
X73450675Y-36640675D01*
X73530027Y-36543984D01*
X73588992Y-36433670D01*
X73625302Y-36313972D01*
X73637562Y-36189490D01*
X73634490Y-35475750D01*
X73475740Y-35317000D01*
X72127000Y-35317000D01*
X72127000Y-35337000D01*
X71873000Y-35337000D01*
X71873000Y-35317000D01*
X70524260Y-35317000D01*
X70365510Y-35475750D01*
X70362438Y-36189490D01*
X70374698Y-36313972D01*
X70411008Y-36433670D01*
X70469973Y-36543984D01*
X70549325Y-36640675D01*
X70646016Y-36720027D01*
X70693561Y-36745440D01*
X70634396Y-36817533D01*
X70482622Y-37101481D01*
X70389160Y-37409584D01*
X70373490Y-37568687D01*
X68249804Y-35445003D01*
X68226001Y-35415999D01*
X68110276Y-35321026D01*
X67978247Y-35250454D01*
X67834986Y-35206997D01*
X67723333Y-35196000D01*
X67723322Y-35196000D01*
X67686000Y-35192324D01*
X67648678Y-35196000D01*
X65511572Y-35196000D01*
X65511572Y-34936000D01*
X65499312Y-34811518D01*
X65463002Y-34691820D01*
X65404037Y-34581506D01*
X65324685Y-34484815D01*
X65309112Y-34472034D01*
X65328586Y-34442889D01*
X65399068Y-34272729D01*
X65415422Y-34190510D01*
X70362438Y-34190510D01*
X70365510Y-34904250D01*
X70524260Y-35063000D01*
X71873000Y-35063000D01*
X71873000Y-33714260D01*
X72127000Y-33714260D01*
X72127000Y-35063000D01*
X73475740Y-35063000D01*
X73634490Y-34904250D01*
X73637562Y-34190510D01*
X73625302Y-34066028D01*
X73588992Y-33946330D01*
X73530027Y-33836016D01*
X73450675Y-33739325D01*
X73353984Y-33659973D01*
X73243670Y-33601008D01*
X73123972Y-33564698D01*
X72999490Y-33552438D01*
X72285750Y-33555510D01*
X72127000Y-33714260D01*
X71873000Y-33714260D01*
X71714250Y-33555510D01*
X71000510Y-33552438D01*
X70876028Y-33564698D01*
X70756330Y-33601008D01*
X70646016Y-33659973D01*
X70549325Y-33739325D01*
X70469973Y-33836016D01*
X70411008Y-33946330D01*
X70374698Y-34066028D01*
X70362438Y-34190510D01*
X65415422Y-34190510D01*
X65435000Y-34092089D01*
X65435000Y-33907911D01*
X65399068Y-33727271D01*
X65328586Y-33557111D01*
X65226262Y-33403972D01*
X65096028Y-33273738D01*
X64942889Y-33171414D01*
X64772729Y-33100932D01*
X64592089Y-33065000D01*
X64407911Y-33065000D01*
X64227271Y-33100932D01*
X64057111Y-33171414D01*
X63903972Y-33273738D01*
X63773738Y-33403972D01*
X63671414Y-33557111D01*
X63600932Y-33727271D01*
X63565000Y-33907911D01*
X63565000Y-34009448D01*
X63552998Y-34049014D01*
X63543151Y-34148987D01*
X63538324Y-34198000D01*
X63542001Y-34235332D01*
X63542001Y-34329607D01*
X63486320Y-34346498D01*
X63376006Y-34405463D01*
X63279315Y-34484815D01*
X63199963Y-34581506D01*
X63140998Y-34691820D01*
X63104688Y-34811518D01*
X63092428Y-34936000D01*
X63092428Y-35007271D01*
X62894497Y-35205202D01*
X62865499Y-35229000D01*
X62841701Y-35257998D01*
X62841700Y-35257999D01*
X62770525Y-35344725D01*
X62699953Y-35476755D01*
X62656497Y-35620016D01*
X62641823Y-35769001D01*
X59069801Y-35769001D01*
X59113002Y-35688180D01*
X59149312Y-35568482D01*
X59161572Y-35444000D01*
X59161572Y-34936000D01*
X59149312Y-34811518D01*
X59113002Y-34691820D01*
X59054037Y-34581506D01*
X58974685Y-34484815D01*
X58877994Y-34405463D01*
X58767680Y-34346498D01*
X58647982Y-34310188D01*
X58523500Y-34297928D01*
X57916873Y-34297928D01*
X61274005Y-30940797D01*
X61348889Y-30963513D01*
X61567050Y-30985000D01*
X61712950Y-30985000D01*
X61931111Y-30963513D01*
X62211034Y-30878599D01*
X62469014Y-30740706D01*
X62695134Y-30555134D01*
X62880706Y-30329014D01*
X62910000Y-30274209D01*
X62939294Y-30329014D01*
X63124866Y-30555134D01*
X63350986Y-30740706D01*
X63608966Y-30878599D01*
X63888889Y-30963513D01*
X64107050Y-30985000D01*
X64252950Y-30985000D01*
X64471111Y-30963513D01*
X64751034Y-30878599D01*
X65009014Y-30740706D01*
X65235134Y-30555134D01*
X65420706Y-30329014D01*
X65450000Y-30274209D01*
X65479294Y-30329014D01*
X65664866Y-30555134D01*
X65890986Y-30740706D01*
X66148966Y-30878599D01*
X66428889Y-30963513D01*
X66647050Y-30985000D01*
X66792950Y-30985000D01*
X67011111Y-30963513D01*
X67291034Y-30878599D01*
X67549014Y-30740706D01*
X67775134Y-30555134D01*
X67960706Y-30329014D01*
X67990000Y-30274209D01*
X68019294Y-30329014D01*
X68204866Y-30555134D01*
X68430986Y-30740706D01*
X68688966Y-30878599D01*
X68968889Y-30963513D01*
X69187050Y-30985000D01*
X69332950Y-30985000D01*
X69551111Y-30963513D01*
X69831034Y-30878599D01*
X70089014Y-30740706D01*
X70315134Y-30555134D01*
X70500706Y-30329014D01*
X70638599Y-30071034D01*
X70723513Y-29791111D01*
X70738127Y-29642733D01*
X72935197Y-31839803D01*
X72954443Y-31855597D01*
X72976399Y-31867333D01*
X73000224Y-31874560D01*
X73025000Y-31877000D01*
X76708000Y-31877000D01*
X76708000Y-47498000D01*
X72390000Y-47498000D01*
X72365224Y-47500440D01*
X72341399Y-47507667D01*
X72319443Y-47519403D01*
X72300197Y-47535197D01*
X72288400Y-47548800D01*
X70383400Y-50088800D01*
X70370486Y-50110085D01*
X70361973Y-50133481D01*
X70358000Y-50165000D01*
X70358000Y-53815000D01*
X19812000Y-53815000D01*
X19812000Y-47439344D01*
X23555000Y-47439344D01*
X23555000Y-47810656D01*
X23627439Y-48174834D01*
X23769534Y-48517882D01*
X23975825Y-48826618D01*
X24238382Y-49089175D01*
X24547118Y-49295466D01*
X24890166Y-49437561D01*
X25254344Y-49510000D01*
X25625656Y-49510000D01*
X25989834Y-49437561D01*
X26332882Y-49295466D01*
X26641618Y-49089175D01*
X26792188Y-48938605D01*
X29306000Y-48938605D01*
X29431914Y-49228577D01*
X29764126Y-49394433D01*
X30122312Y-49492290D01*
X30492706Y-49518389D01*
X30861075Y-49471725D01*
X31213262Y-49354094D01*
X31448086Y-49228577D01*
X31574000Y-48938605D01*
X30440000Y-47804605D01*
X29306000Y-48938605D01*
X26792188Y-48938605D01*
X26904175Y-48826618D01*
X27110466Y-48517882D01*
X27252561Y-48174834D01*
X27325000Y-47810656D01*
X27325000Y-47677706D01*
X28546611Y-47677706D01*
X28593275Y-48046075D01*
X28710906Y-48398262D01*
X28836423Y-48633086D01*
X29126395Y-48759000D01*
X30260395Y-47625000D01*
X30619605Y-47625000D01*
X31753605Y-48759000D01*
X32043577Y-48633086D01*
X32209433Y-48300874D01*
X32307290Y-47942688D01*
X32333389Y-47572294D01*
X32286725Y-47203925D01*
X32169094Y-46851738D01*
X32043577Y-46616914D01*
X31753605Y-46491000D01*
X30619605Y-47625000D01*
X30260395Y-47625000D01*
X29126395Y-46491000D01*
X28836423Y-46616914D01*
X28670567Y-46949126D01*
X28572710Y-47307312D01*
X28546611Y-47677706D01*
X27325000Y-47677706D01*
X27325000Y-47439344D01*
X27252561Y-47075166D01*
X27110466Y-46732118D01*
X26904175Y-46423382D01*
X26792188Y-46311395D01*
X29306000Y-46311395D01*
X30440000Y-47445395D01*
X31574000Y-46311395D01*
X31448086Y-46021423D01*
X31115874Y-45855567D01*
X30757688Y-45757710D01*
X30387294Y-45731611D01*
X30018925Y-45778275D01*
X29666738Y-45895906D01*
X29431914Y-46021423D01*
X29306000Y-46311395D01*
X26792188Y-46311395D01*
X26641618Y-46160825D01*
X26332882Y-45954534D01*
X25989834Y-45812439D01*
X25625656Y-45740000D01*
X25254344Y-45740000D01*
X24890166Y-45812439D01*
X24547118Y-45954534D01*
X24238382Y-46160825D01*
X23975825Y-46423382D01*
X23769534Y-46732118D01*
X23627439Y-47075166D01*
X23555000Y-47439344D01*
X19812000Y-47439344D01*
X19812000Y-46990000D01*
X19809560Y-46965224D01*
X19802333Y-46941399D01*
X19790597Y-46919443D01*
X19774803Y-46900197D01*
X19755557Y-46884403D01*
X19733601Y-46872667D01*
X19709776Y-46865440D01*
X19685000Y-46863000D01*
X13462000Y-46863000D01*
X13462000Y-39341346D01*
X13861580Y-39740926D01*
X14334100Y-40056654D01*
X14859137Y-40274131D01*
X15416512Y-40385000D01*
X15984808Y-40385000D01*
X16542183Y-40274131D01*
X16547441Y-40271953D01*
X16459474Y-40359920D01*
X16143746Y-40832440D01*
X15926269Y-41357477D01*
X15815400Y-41914852D01*
X15815400Y-42483148D01*
X15926269Y-43040523D01*
X16143746Y-43565560D01*
X16459474Y-44038080D01*
X16861320Y-44439926D01*
X17333840Y-44755654D01*
X17858877Y-44973131D01*
X18416252Y-45084000D01*
X18984548Y-45084000D01*
X19541923Y-44973131D01*
X20066960Y-44755654D01*
X20539480Y-44439926D01*
X20941326Y-44038080D01*
X21257054Y-43565560D01*
X21474531Y-43040523D01*
X21585400Y-42483148D01*
X21585400Y-41914852D01*
X21474531Y-41357477D01*
X21257054Y-40832440D01*
X20941326Y-40359920D01*
X20833508Y-40252102D01*
X21147533Y-40345801D01*
X21713339Y-40398928D01*
X22278638Y-40340652D01*
X22821706Y-40173210D01*
X23299724Y-39917704D01*
X23545875Y-39525340D01*
X21700140Y-37679605D01*
X21685998Y-37693748D01*
X21506393Y-37514143D01*
X21520535Y-37500000D01*
X21879745Y-37500000D01*
X23725480Y-39345735D01*
X24117844Y-39099584D01*
X24383452Y-38597178D01*
X24545941Y-38052607D01*
X24599068Y-37486801D01*
X24574657Y-37250000D01*
X28061928Y-37250000D01*
X28074188Y-37374482D01*
X28110498Y-37494180D01*
X28169463Y-37604494D01*
X28248815Y-37701185D01*
X28345506Y-37780537D01*
X28455820Y-37839502D01*
X28575518Y-37875812D01*
X28700000Y-37888072D01*
X28914250Y-37885000D01*
X29073000Y-37726250D01*
X29073000Y-36627000D01*
X28223750Y-36627000D01*
X28065000Y-36785750D01*
X28061928Y-37250000D01*
X24574657Y-37250000D01*
X24540792Y-36921502D01*
X24373350Y-36378434D01*
X24117844Y-35900416D01*
X23725480Y-35654265D01*
X21879745Y-37500000D01*
X21520535Y-37500000D01*
X19674800Y-35654265D01*
X19282436Y-35900416D01*
X19016828Y-36402822D01*
X18854339Y-36947393D01*
X18801212Y-37513199D01*
X18859488Y-38078498D01*
X19026930Y-38621566D01*
X19282436Y-39099584D01*
X19674798Y-39345734D01*
X19579923Y-39440609D01*
X19541923Y-39424869D01*
X18984548Y-39314000D01*
X18416252Y-39314000D01*
X17858877Y-39424869D01*
X17853619Y-39427047D01*
X17941586Y-39339080D01*
X18257314Y-38866560D01*
X18474791Y-38341523D01*
X18585660Y-37784148D01*
X18585660Y-37215852D01*
X18474791Y-36658477D01*
X18257314Y-36133440D01*
X17941586Y-35660920D01*
X17755326Y-35474660D01*
X19854405Y-35474660D01*
X21700140Y-37320395D01*
X23545875Y-35474660D01*
X23299724Y-35082296D01*
X22797318Y-34816688D01*
X22252747Y-34654199D01*
X21686941Y-34601072D01*
X21121642Y-34659348D01*
X20578574Y-34826790D01*
X20100556Y-35082296D01*
X19854405Y-35474660D01*
X17755326Y-35474660D01*
X17539740Y-35259074D01*
X17067220Y-34943346D01*
X16542183Y-34725869D01*
X15984808Y-34615000D01*
X15416512Y-34615000D01*
X14859137Y-34725869D01*
X14334100Y-34943346D01*
X13861580Y-35259074D01*
X13462000Y-35658654D01*
X13462000Y-31877000D01*
X19050000Y-31877000D01*
X19074776Y-31874560D01*
X19098601Y-31867333D01*
X19120557Y-31855597D01*
X19139803Y-31839803D01*
X19155597Y-31820557D01*
X19167333Y-31798601D01*
X19174560Y-31774776D01*
X19177000Y-31750000D01*
X19177000Y-29874980D01*
X19511928Y-29205124D01*
X19511928Y-30350000D01*
M02*
