G04 #@! TF.GenerationSoftware,KiCad,Pcbnew,(5.1.2)-2*
G04 #@! TF.CreationDate,2019-08-20T18:51:14-04:00*
G04 #@! TF.ProjectId,PiPixelv2,50695069-7865-46c7-9632-2e6b69636164,rev?*
G04 #@! TF.SameCoordinates,Original*
G04 #@! TF.FileFunction,Soldermask,Bot*
G04 #@! TF.FilePolarity,Negative*
%FSLAX46Y46*%
G04 Gerber Fmt 4.6, Leading zero omitted, Abs format (unit mm)*
G04 Created by KiCad (PCBNEW (5.1.2)-2) date 2019-08-20 18:51:14*
%MOMM*%
%LPD*%
G04 APERTURE LIST*
%ADD10C,6.450000*%
%ADD11O,1.700000X1.700000*%
%ADD12R,1.700000X1.700000*%
%ADD13C,4.500000*%
%ADD14C,2.500000*%
%ADD15O,1.998980X1.998980*%
%ADD16R,1.998980X1.998980*%
G04 APERTURE END LIST*
D10*
X16000000Y-28000000D03*
X16000000Y-51000000D03*
X74000000Y-51000000D03*
X74000000Y-28000000D03*
D11*
X69260000Y-26960000D03*
X69260000Y-29500000D03*
X66720000Y-26960000D03*
X66720000Y-29500000D03*
X64180000Y-26960000D03*
X64180000Y-29500000D03*
X61640000Y-26960000D03*
X61640000Y-29500000D03*
X59100000Y-26960000D03*
X59100000Y-29500000D03*
X56560000Y-26960000D03*
X56560000Y-29500000D03*
X54020000Y-26960000D03*
X54020000Y-29500000D03*
X51480000Y-26960000D03*
X51480000Y-29500000D03*
X48940000Y-26960000D03*
X48940000Y-29500000D03*
X46400000Y-26960000D03*
X46400000Y-29500000D03*
X43860000Y-26960000D03*
X43860000Y-29500000D03*
X41320000Y-26960000D03*
X41320000Y-29500000D03*
X38780000Y-26960000D03*
X38780000Y-29500000D03*
X36240000Y-26960000D03*
X36240000Y-29500000D03*
X33700000Y-26960000D03*
X33700000Y-29500000D03*
X31160000Y-26960000D03*
X31160000Y-29500000D03*
X28620000Y-26960000D03*
X28620000Y-29500000D03*
X26080000Y-26960000D03*
X26080000Y-29500000D03*
X23540000Y-26960000D03*
X23540000Y-29500000D03*
X21000000Y-26960000D03*
D12*
X21000000Y-29500000D03*
D13*
X21700140Y-37500000D03*
X15700660Y-37500000D03*
X18700400Y-42199000D03*
D14*
X25440000Y-47625000D03*
X30440000Y-47625000D03*
D15*
X72000000Y-42810000D03*
D16*
X72000000Y-35190000D03*
D15*
X72000000Y-37730000D03*
X72000000Y-40270000D03*
M02*
